<svg width="500" height="500" viewBox="0 0 500 500" fill="none" xmlns="http://www.w3.org/2000/svg">
<path d="M381.75 452.6L107.4 450.95C106.85 450.95 106.4 450.5 106.4 449.95C106.4 449.4 106.85 448.95 107.4 448.95L381.75 450.6C382.3 450.6 382.75 451.05 382.75 451.6C382.75 452.15 382.3 452.6 381.75 452.6Z" fill="black"/>
<path d="M117.55 438.05H78.1001C77.7001 438.05 77.3501 437.7 77.3501 437.3C77.3501 436.9 77.7001 436.55 78.1001 436.55H117.55C117.95 436.55 118.3 436.9 118.3 437.3C118.3 437.7 117.95 438.05 117.55 438.05Z" fill="black"/>
<path d="M352 201.3C352 201.3 349.95 187.6 363.75 182.8C377.55 178 391.9 177.8 400.1 185.6C408.3 193.4 408.5 202.2 405.55 207.9C402.6 213.6 396.25 214.35 389.9 209.2C389.9 209.2 382.95 217.9 372.3 208.25C372.3 208.25 356.9 217.15 357.7 201.25L352 201.3Z" fill="#FFCDB2"/>
<path d="M384.95 179.55C390.9 180 396.2 181.9 400.15 185.6C408.4 193.35 408.55 202.2 405.6 207.9C403.85 211.25 400.95 212.9 397.55 212.6C395.15 212.4 392.55 211.3 389.95 209.2C389.95 209.2 386.75 213.2 381.4 212.8C378.85 212.6 375.8 211.4 372.35 208.3C372.35 208.3 367.55 211.1 363.45 210.75C360.2 210.5 357.4 208.3 357.75 201.3L352 201.35C352 201.35 349.95 187.65 363.75 182.85C371 180.3 378.4 179.05 384.95 179.55ZM385.05 178.45C378.55 177.95 371.05 179.1 363.4 181.8C355.8 184.45 352.8 189.7 351.65 193.6C350.85 196.15 350.6 198.85 350.9 201.55C351 202.05 351.4 202.45 351.95 202.5H352.05L356.6 202.45C356.6 209.8 360.25 211.65 363.4 211.9C366.85 212.15 370.65 210.45 372.25 209.65C375.3 212.25 378.35 213.7 381.35 213.9C384.6 214.1 387.75 212.95 390.1 210.7C392.55 212.5 395.1 213.5 397.5 213.7C401.4 214 404.75 212.05 406.65 208.4C408.4 205 408.95 201.1 408.25 197.35C407.45 192.85 404.95 188.5 401 184.8C397.05 181.1 391.65 178.9 385.05 178.45Z" fill="black"/>
<path d="M389.6 211.3C389.5 211.3 389.4 211.3 389.3 211.25C388.9 211.1 388.75 210.65 388.9 210.25C394.3 197.75 386.4 189.2 386.05 188.85C385.75 188.55 385.8 188.05 386.1 187.8C386.4 187.55 386.85 187.55 387.15 187.8C387.25 187.9 396.1 197.4 390.3 210.8C390.15 211.1 389.9 211.25 389.6 211.3Z" fill="#1D1D1B"/>
<path d="M372.6 210.05C372.5 210.05 372.35 210.05 372.25 210C371.9 209.8 371.75 209.35 371.9 209C375.2 202.25 372.3 191.05 372.3 190.95C372.2 190.55 372.45 190.15 372.85 190.05C373.25 189.95 373.65 190.2 373.75 190.6C373.9 191.1 376.85 202.45 373.25 209.75C373.15 209.9 372.9 210.05 372.6 210.05Z" fill="#1D1D1B"/>
<path d="M357.25 203.3C356.9 203.3 356.6 203.05 356.5 202.75C356.4 202.45 354.7 195.55 357.6 191.3C357.8 190.95 358.25 190.85 358.65 191.05C359.05 191.25 359.1 191.7 358.9 192.1L358.85 192.15C356.35 195.8 357.95 202.3 358 202.4C358.1 202.8 357.85 203.2 357.45 203.3C357.35 203.3 357.3 203.3 357.25 203.3Z" fill="#1D1D1B"/>
<path d="M402.35 209.8C401.5 209.8 400.85 209.1 400.85 208.3C400.85 208.1 400.9 207.9 400.95 207.75C403 202.9 403.25 198.5 401.65 194.65C399.1 188.45 392.6 185.7 392.55 185.65C391.8 185.35 391.4 184.45 391.75 183.7C392.1 182.95 392.95 182.55 393.7 182.9C394 183.05 401.4 186.15 404.4 193.5C406.3 198.1 406.05 203.3 403.7 208.95C403.55 209.4 402.95 209.8 402.35 209.8Z" fill="white"/>
<path d="M464.7 292.35H445.95C445.4 292.35 444.8 292.4 444.25 292.45C440.55 276.3 433.6 261.1 423.8 247.75L434.7 235.55C439.85 229.8 439.35 220.95 433.6 215.8L411.6 196.1C405.85 190.95 397 191.45 391.85 197.2L379.75 210.7C370.85 206.3 361.45 203 351.75 200.9V184C351.75 176.25 345.5 170 337.75 170H308.25C300.5 170 294.25 176.25 294.25 184V202.4C282.5 205.55 271.25 210.5 261 217L247.35 204.8C241.6 199.65 232.75 200.15 227.6 205.9L207.9 227.9C202.75 233.65 203.25 242.5 209 247.65L221 258.4C214.85 268.95 210.3 280.4 207.55 292.3H189.75C182 292.3 175.75 298.55 175.75 306.3V335.8C175.75 343.55 182 349.8 189.75 349.8H208.3C211.5 362.3 216.75 374.25 223.75 385.1L211.7 398.55C206.55 404.3 207.05 413.15 212.8 418.3L234.8 437.95C240.55 443.1 249.4 442.6 254.55 436.85L265.45 424.75C275.95 430.8 287.25 435.2 299.1 437.85C299.05 438.2 299.05 438.6 299.05 438.95V450.7H356.55V439C356.55 438.35 356.5 437.65 356.4 437C369.75 433.55 382.35 427.85 393.8 420.1C394.1 420.45 394.45 420.8 394.8 421.1L408.8 433.6C414.55 438.7 423.35 438.2 428.5 432.5L448.15 410.5C453.3 404.75 452.8 395.9 447.05 390.75L433.05 378.25C432.85 378.05 432.6 377.85 432.35 377.7C437.2 368.85 440.95 359.45 443.45 349.65C444.25 349.8 445.1 349.85 445.9 349.85H464.65C472.4 349.85 478.65 343.6 478.65 335.85V306.35C478.7 298.6 472.4 292.35 464.7 292.35ZM326.15 406C278.25 406 239.45 367.2 239.45 319.3C239.45 271.4 278.25 232.6 326.15 232.6C374.05 232.6 412.85 271.4 412.85 319.3C412.9 367.15 374.1 406 326.15 406C326.2 406 326.2 406 326.15 406Z" fill="#D9CFFF"/>
<path d="M357.3 451.5H298.3V439C298.3 438.85 298.3 438.65 298.3 438.45C286.85 435.8 275.85 431.5 265.6 425.7L255.15 437.35C249.7 443.4 240.4 443.95 234.35 438.5L212.35 418.85C206.3 413.45 205.75 404.1 211.15 398.05L222.8 385C216 374.35 210.95 362.75 207.75 350.55H189.75C181.6 350.55 175.05 343.95 175 335.8V306.3C175 298.15 181.6 291.55 189.75 291.55H207C209.7 279.95 214.1 268.85 220.05 258.55L208.5 248.3C202.45 242.9 201.9 233.55 207.35 227.5L227.05 205.5C232.5 199.45 241.8 198.9 247.85 204.35L261.05 216.15C271.1 209.85 282 205 293.45 201.9V184C293.45 175.85 300.05 169.3 308.2 169.25H337.7C345.85 169.25 352.45 175.8 352.5 183.95V200.3C361.85 202.4 370.95 205.55 379.6 209.8L391.3 196.7C396.75 190.65 406.05 190.1 412.1 195.55L434.1 215.25C440.15 220.65 440.7 230 435.25 236.05L424.75 247.8C434.3 260.9 441.15 275.85 444.85 291.65C445.25 291.6 445.6 291.6 446 291.6H464.75C472.9 291.6 479.45 298.2 479.5 306.35V335.85C479.5 344 472.9 350.6 464.75 350.6H446C445.35 350.6 444.75 350.55 444.1 350.45C441.65 359.85 438.05 368.9 433.45 377.45L433.7 377.65L447.7 390.15C453.75 395.6 454.3 404.9 448.85 410.95L429.2 432.95C423.8 439 414.45 439.55 408.4 434.15L394.4 421.65C394.2 421.45 394 421.25 393.8 421.05C382.65 428.5 370.35 434.1 357.35 437.5C357.4 438 357.4 438.45 357.45 438.95L357.3 451.5ZM299.8 450H355.8V439C355.8 438.35 355.75 437.75 355.65 437.1L355.55 436.45L356.2 436.3C369.45 432.85 382 427.2 393.35 419.55L393.9 419.2L394.35 419.7C394.65 420.05 395 420.35 395.3 420.65L409.3 433.15C414.75 438 423.1 437.55 428 432.1L447.65 410.1C452.5 404.65 452.05 396.3 446.6 391.4L432.6 378.9C432.4 378.7 432.2 378.55 431.95 378.35L431.45 377.95L431.75 377.4C436.55 368.6 440.25 359.25 442.75 349.5L442.9 348.85L443.6 348.95C444.35 349.1 445.15 349.15 445.9 349.15H464.65C471.95 349.15 477.85 343.2 477.9 335.9V306.4C477.9 299.1 471.95 293.2 464.65 293.15H445.9C445.35 293.15 444.8 293.2 444.25 293.25L443.6 293.35L443.45 292.7C439.8 276.65 432.9 261.5 423.1 248.25L422.75 247.75L434.05 235.1C438.9 229.65 438.45 221.3 433 216.4L411 196.7C405.55 191.85 397.2 192.3 392.3 197.75L379.85 211.65L379.35 211.4C370.5 207 361.15 203.75 351.5 201.65L350.9 201.5V184C350.9 176.7 344.95 170.75 337.65 170.75H308.15C300.85 170.75 294.9 176.65 294.9 183.95V202.9L294.35 203.05C282.65 206.2 271.55 211.1 261.3 217.6L260.8 217.9L246.75 205.35C241.3 200.5 232.95 200.95 228.05 206.4L208.35 228.4C203.5 233.85 203.95 242.2 209.4 247.1L221.9 258.25L221.6 258.8C215.45 269.3 210.95 280.65 208.25 292.5L208.1 293.1H189.7C182.4 293.1 176.5 299.05 176.45 306.35V335.85C176.45 343.15 182.4 349.05 189.7 349.1H208.85L209 349.65C212.2 362.1 217.4 373.95 224.35 384.7L224.65 385.2L212.25 399.1C207.4 404.55 207.85 412.9 213.3 417.8L235.3 437.45C240.75 442.3 249.1 441.85 254 436.4L265.25 423.8L265.8 424.1C276.2 430.1 287.5 434.5 299.2 437.15L299.85 437.3L299.8 437.95C299.75 438.35 299.75 438.7 299.75 439L299.8 450ZM326.15 406.7C277.9 406.7 238.7 367.45 238.7 319.25C238.7 271.05 277.95 231.8 326.15 231.8C374.35 231.8 413.6 271.05 413.6 319.25C413.6 367.45 374.4 406.7 326.15 406.7ZM326.15 233.3C278.75 233.3 240.2 271.85 240.2 319.25C240.2 366.65 278.75 405.2 326.15 405.2C373.55 405.2 412.1 366.65 412.1 319.25C412.1 271.85 373.6 233.3 326.15 233.3Z" fill="#1D1E1B"/>
<path d="M365.85 271.65C368.087 271.65 369.9 269.837 369.9 267.6C369.9 265.363 368.087 263.55 365.85 263.55C363.613 263.55 361.8 265.363 361.8 267.6C361.8 269.837 363.613 271.65 365.85 271.65Z" fill="#2CB3FF"/>
<path d="M359.25 315.05C361.487 315.05 363.3 313.237 363.3 311C363.3 308.763 361.487 306.95 359.25 306.95C357.013 306.95 355.2 308.763 355.2 311C355.2 313.237 357.013 315.05 359.25 315.05Z" fill="#2CB3FF"/>
<path d="M438.5 297.5C437.75 297.5 437.1 296.9 437 296.15C433.6 263.7 412.3 247.35 412.1 247.2C411.45 246.7 411.3 245.75 411.8 245.1C412.3 244.45 413.25 244.3 413.9 244.8C414.8 245.5 436.45 262.1 440 295.85C440.1 296.65 439.5 297.4 438.65 297.5C438.6 297.5 438.55 297.5 438.5 297.5Z" fill="white"/>
<path d="M426 428.5C425.65 428.5 425.25 428.35 425 428.1C424.4 427.55 424.35 426.6 424.9 426C425 425.85 436.5 413.4 442.9 406.5C444.15 405.25 444.85 403.55 444.75 401.75C444.5 397.5 440.05 393.7 440 393.65C439.4 393.1 439.35 392.15 439.9 391.55C440.45 390.95 441.3 390.9 441.95 391.4C442.2 391.6 447.4 396.05 447.75 401.6C447.9 404.2 446.95 406.75 445.1 408.6C438.7 415.5 427.2 427.95 427.1 428.1C426.8 428.35 426.4 428.5 426 428.5Z" fill="white"/>
<path d="M473 333.5C472.15 333.5 471.5 332.85 471.5 332V319.5C471.5 319.3 471.55 319.1 471.65 318.9C471.7 318.45 471.9 316.55 471.5 309.05C471.35 306.45 470.55 304.5 469.05 303.35C466.4 301.25 462.3 301.95 462.3 301.95C461.5 302.1 460.7 301.55 460.55 300.75C460.4 299.95 460.95 299.15 461.75 299C461.95 298.95 467.2 298 470.95 300.95C473.15 302.7 474.35 305.35 474.55 308.9C474.9 316.3 474.8 318.75 474.55 319.75V332C474.5 332.85 473.85 333.5 473 333.5ZM473 318C472.7 318 472.35 318.1 472.1 318.3C472.35 318.1 472.7 318 473 318Z" fill="white"/>
<path d="M275 217.5C274.15 217.5 273.5 216.85 273.5 216C273.5 215.5 273.75 215 274.2 214.75C274.9 214.3 291.85 203.5 314.1 204.5C314.95 204.55 315.55 205.25 315.55 206.05C315.5 206.85 314.8 207.5 314 207.5C292.75 206.5 276.05 217.15 275.9 217.25C275.55 217.4 275.3 217.5 275 217.5Z" fill="white"/>
<path d="M307.5 188C307.4 188 307.3 188 307.25 187.95C306.7 187.8 306.4 187.25 306.55 186.7C306.6 186.5 312.45 166.6 332.55 140.35C344.3 124.95 358.6 110.45 375 97.15C395.5 80.55 419.4 65.9 446.1 53.55C446.6 53.35 447.2 53.6 447.4 54.1C447.6 54.55 447.4 55.1 446.95 55.35C386.95 83.15 352.5 117.6 334.15 141.55C314.3 167.5 308.55 187 308.5 187.2C308.35 187.7 307.95 188 307.5 188Z" fill="#1D1D1B"/>
<path d="M323 189.5C322.85 189.5 322.75 189.5 322.65 189.45C322.15 189.25 321.9 188.65 322.1 188.15C322.15 188 327.55 174.45 339.55 159.35C350.65 145.35 369.85 127.15 398.25 119.55C398.8 119.45 399.3 119.8 399.4 120.35C399.5 120.85 399.2 121.3 398.75 121.45C370.9 128.85 352.05 146.75 341.15 160.5C329.3 175.4 324 188.75 323.95 188.85C323.75 189.25 323.4 189.5 323 189.5Z" fill="#1D1D1B"/>
<path d="M457 419C456.75 419 456.5 418.9 456.35 418.75C455.95 418.4 455.9 417.75 456.3 417.35C462.25 410.75 464.9 404.4 464.15 398.45C463.15 390.75 456.55 386.35 456.5 386.35C456.05 386.05 455.9 385.45 456.2 384.95C456.5 384.5 457.1 384.35 457.6 384.65C457.9 384.85 465 389.55 466.15 398.15C467 404.65 464.2 411.55 457.8 418.65C457.55 418.85 457.3 419 457 419Z" fill="#1D1D1B"/>
<path d="M399.25 271.85C378.5 241.45 349.5 234.4 336.5 232.75C333.25 236.3 331.75 241.1 332.35 245.9C333.95 259.7 332.95 278.7 337.5 285.25C337.5 285.25 312.5 266.85 257.45 261.5C255.75 261.2 254 260.95 252.25 260.75L216.85 257.9C216.85 257.9 177.1 254.6 142.85 273.9C108.6 293.2 57.7498 335.75 70.2498 367.25C81.5498 395.75 95.2498 399.25 115.25 396.25C127.1 394.5 154.45 375.9 154.45 375.9C154.45 375.9 143.65 403.05 154.45 449.4L335.25 450.75C335.25 450.75 341.25 392.25 331.25 348.25C386.75 367.75 389.6 300.4 399.25 271.85Z" fill="#00A3FF"/>
<path d="M335.9 451.5H335.2L153.8 450.15L153.65 449.55C144.6 410.75 150.75 385 153 377.7C146.65 381.9 125.55 395.45 115.3 396.95C94.9 400 80.85 396.15 69.5 367.5C63.85 353.3 70.4 335.3 88.45 315.5C102.25 300.35 122.45 284.55 142.5 273.25C176.55 254.05 216.55 257.1 216.95 257.15L252.35 260C254.05 260.2 255.8 260.45 257.6 260.75C302.8 265.15 328.05 278.5 335.6 283.1C333.5 277.8 333.1 269.15 332.65 260.1C332.4 255.3 332.15 250.35 331.65 245.95C331 240.95 332.55 235.95 335.95 232.25L336.2 231.95L336.6 232C346.6 233.3 356.3 236.3 365.3 240.8C379.15 247.75 390.75 258.05 399.85 271.4L400.05 271.7L399.95 272.05C398.2 277.15 396.7 283.6 395.05 290.4C389.95 311.9 383.55 338.65 365.45 348.5C356.5 353.4 345.3 353.65 332.2 349.3C341.7 392.75 336 450.15 335.9 450.75V451.5ZM155.05 448.65L334.6 450C335.2 443.35 339.85 389.25 330.55 348.4L330.25 347.05L331.55 347.5C344.95 352.2 355.85 352.15 364.85 347.25C382.35 337.7 388.65 311.3 393.7 290.1C395.3 283.4 396.8 277.05 398.5 271.95C377.85 241.95 348.85 235.1 336.9 233.55C333.95 236.9 332.65 241.35 333.2 245.8C333.7 250.2 333.95 255.2 334.2 260.05C334.7 270.15 335.25 280.55 338.25 284.85L340.85 288.55L337.2 285.85C336.95 285.65 311.7 267.5 257.55 262.25H257.5C255.75 261.95 254 261.7 252.3 261.5L216.95 258.65C216.55 258.6 177.05 255.6 143.4 274.55C108.85 293.95 58.7 336.15 70.95 367C82 394.9 95 398.5 115.15 395.5C126.7 393.75 153.75 375.45 154.05 375.25L156.05 373.9L155.15 376.15C155 376.45 144.65 403.5 155.05 448.65Z" fill="#1D1D1B"/>
<path d="M187 205.7C187 205.7 177.05 224.2 165.3 214.15C153.55 204.1 128.65 182.35 111.75 198.9C94.8498 215.45 95.1998 220.45 80.1498 213.3C65.0998 206.15 26.1498 219.7 46.3498 261.75C66.5498 303.8 204.7 237.15 204.7 237.15L207.9 224.5L187 205.7Z" fill="#6C32AD"/>
<path d="M126.2 192.9C140.7 192.9 156.6 206.7 165.3 214.15C167.8 216.3 170.25 217.15 172.5 217.15C180.85 217.15 187 205.75 187 205.75L207.9 224.5L204.7 237.1C204.7 237.1 124.85 275.65 77.7001 275.65C62.8001 275.65 51.2001 271.8 46.3501 261.75C29.5501 226.75 53.7501 211.5 71.0001 211.5C74.1501 211.45 77.3001 212.05 80.2001 213.3C84.6501 215.45 87.7501 216.5 90.4001 216.5C96.6001 216.5 99.9501 210.6 111.8 198.95C116.15 194.6 121.1 192.9 126.2 192.9ZM126.25 191.4C120.35 191.4 115.1 193.6 110.75 197.85C107.6 200.95 105.05 203.6 102.85 205.95C97.1501 211.95 94.3001 214.95 90.4001 214.95C88.2001 214.95 85.3501 214.05 80.8501 211.9C77.7501 210.55 74.4001 209.85 71.0501 209.95C62.5501 209.95 50.2001 213.7 43.5501 224.35C39.2001 231.2 35.9501 243.4 45.0501 262.35C49.7501 272.15 60.7501 277.1 77.7501 277.1C97.5001 277.1 125 270.6 159.45 257.75C185.1 248.2 205.2 238.5 205.4 238.4C205.8 238.2 206.1 237.85 206.2 237.4L209.4 224.8C209.55 224.25 209.35 223.7 208.95 223.3L188 204.55C187.75 204.3 187.35 204.15 187 204.15C186.9 204.15 186.85 204.15 186.75 204.15C186.3 204.25 185.9 204.5 185.7 204.9C185.65 205 179.85 215.55 172.5 215.55C170.4 215.55 168.3 214.65 166.25 212.9L165.8 212.5C157.15 205.1 141 191.25 126.2 191.25L126.25 191.4Z" fill="black"/>
<path d="M147.75 252.75C147.75 252.75 152.55 263 143.9 282.9C135.25 302.8 111.25 277.2 111.25 277.2L147.75 252.75Z" fill="#FFCDB2"/>
<path d="M133.9 291.2C123.5 291.2 111.3 278.3 110.75 277.7L110.15 277.05L148.1 251.65L148.45 252.45C148.65 252.9 153.3 263.25 144.6 283.2C142.6 287.75 139.7 290.4 135.85 291.05C135.2 291.15 134.55 291.2 133.9 291.2ZM112.45 277.3C115.25 280.1 126.85 291.05 135.6 289.55C138.9 289 141.45 286.65 143.2 282.6C150.25 266.45 148.2 256.7 147.35 253.9L112.45 277.3Z" fill="#1D1E1B"/>
<path d="M142.45 359.3C145.75 349.1 158.5 340.15 164.7 318.75C170.9 297.35 143.4 289.85 143.4 289.85L144.35 282.75C144.35 282.75 126.2 288 106.75 274.3L101.35 282.85C101.35 282.85 78.7498 289.5 78.5998 308.85C78.4498 328.2 60.6998 345.6 70.7498 368.2" fill="#00A3FF"/>
<path d="M70.7999 368.95C70.4999 368.95 70.1999 368.8 70.0499 368.5C63.6999 354.25 68.1999 342.05 72.5499 330.25C75.2499 322.95 77.7998 316.05 77.8498 308.85C77.9998 290.4 98.2499 283.1 100.85 282.25L106.15 273.9C106.25 273.7 106.45 273.6 106.65 273.55C106.85 273.5 107.05 273.55 107.2 273.65C126.15 286.95 144 282.05 144.15 282C144.4 281.95 144.65 282 144.85 282.15C145.05 282.3 145.15 282.55 145.1 282.8L144.25 289.3C147.15 290.2 158.85 294.3 164 303.5C166.6 308.15 167.1 313.35 165.45 318.95C161.7 331.95 155.5 340.4 150.5 347.25C147.25 351.7 144.45 355.55 143.15 359.55C143 359.95 142.55 360.15 142.2 360C141.85 359.85 141.65 359.5 141.75 359.1C143.1 354.9 146 350.95 149.3 346.4C154.2 339.7 160.3 331.3 164 318.6C165.5 313.35 165.05 308.55 162.7 304.3C157.25 294.55 143.4 290.65 143.25 290.65C142.9 290.55 142.65 290.2 142.7 289.85L143.5 283.8C139.3 284.65 123.55 286.75 107 275.45L102 283.35C101.9 283.5 101.75 283.6 101.6 283.65C101.4 283.7 79.4999 290.4 79.3999 308.9C79.3499 316.4 76.6499 323.75 74.0499 330.8C69.7999 342.3 65.3998 354.25 71.4999 367.95C71.6499 368.35 71.4998 368.8 71.0998 368.95C70.9498 368.95 70.8499 368.95 70.7999 368.95Z" fill="black"/>
<path d="M254.8 261.1C254.8 261.1 261.4 274.4 245.9 277.9C230.4 281.4 227.4 273.4 227.4 273.4C227.4 273.4 216.9 283.4 207.4 274.9C197.9 266.4 209.4 257.4 209.4 257.4L254.8 261.1Z" fill="white"/>
<path d="M238.7 279.55C231.3 279.55 228.25 276.25 227.2 274.6C224.55 276.7 215.35 283 206.95 275.5C204.2 273.05 202.85 270.25 202.95 267.3C203.15 261.5 208.75 257.05 209 256.85C209.15 256.75 209.3 256.7 209.5 256.7L254.9 260.4C255.15 260.4 255.4 260.6 255.5 260.8C255.6 261.05 258.45 266.85 256 272.05C254.45 275.35 251.1 277.6 246.1 278.7C243.65 279.2 241.2 279.5 238.7 279.55ZM227.45 272.65C227.5 272.65 227.55 272.65 227.6 272.65C227.85 272.7 228.05 272.9 228.15 273.1C228.25 273.4 231.2 280.45 245.8 277.15C250.3 276.15 253.3 274.15 254.65 271.3C256.45 267.5 254.9 263.05 254.35 261.75L209.7 258.15C208.7 259 204.6 262.8 204.45 267.3C204.35 269.8 205.55 272.2 207.95 274.35C216.8 282.3 226.5 273.25 226.95 272.85C227.05 272.7 227.25 272.65 227.45 272.65Z" fill="black"/>
<path d="M217.4 179.9C227.838 179.9 236.3 171.438 236.3 161C236.3 150.562 227.838 142.1 217.4 142.1C206.962 142.1 198.5 150.562 198.5 161C198.5 171.438 206.962 179.9 217.4 179.9Z" fill="#6C32AD"/>
<path d="M217.4 142.15C227.85 142.15 236.3 150.6 236.3 161C236.3 171.4 227.85 179.9 217.45 179.9C207 179.9 198.55 171.45 198.55 161.05C198.55 154.6 201.85 148.6 207.25 145.1C210.25 143.2 213.8 142.15 217.4 142.15ZM217.4 140.65C206.15 140.65 197.05 149.8 197.05 161.05C197.05 172.3 206.2 181.4 217.45 181.4C228.7 181.4 237.8 172.25 237.8 161C237.8 157.1 236.7 153.35 234.6 150.05C230.85 144.2 224.35 140.65 217.4 140.65Z" fill="black"/>
<path d="M170.9 224.75C170.9 224.75 156.7 214.75 161.05 202.45C165.4 190.15 168.6 190.85 170.45 184.2C172.3 177.55 183.1 170 193.85 171.95C193.85 171.95 205.8 160.95 217.85 162.75C229.9 164.55 234.55 169.75 238.8 178.55C243.05 187.35 246.8 191.1 250 197.2C253.2 203.3 258.85 220.75 235.3 236.45C211.75 252.15 170.9 224.75 170.9 224.75Z" fill="#6C32AD"/>
<path d="M215.1 162.55C216 162.55 216.95 162.6 217.85 162.75C229.85 164.55 234.55 169.75 238.8 178.55C243.05 187.35 246.8 191.1 250 197.2C253.2 203.3 258.85 220.75 235.3 236.45C230.05 239.95 223.95 241.3 217.65 241.3C195.6 241.3 170.85 224.7 170.85 224.7C170.85 224.7 156.65 214.7 161 202.4C165.35 190.1 168.55 190.8 170.4 184.15C172.05 178.25 180.8 171.6 190.3 171.6C191.45 171.6 192.65 171.7 193.8 171.9C193.85 172 204.05 162.55 215.1 162.55ZM215.05 161.05C204.95 161.05 195.7 168.35 193.35 170.35C192.35 170.2 191.3 170.15 190.3 170.15C180 170.15 170.8 177.35 168.95 183.8C168.2 186.5 167.25 187.8 165.9 189.6C164.2 191.95 162.05 194.9 159.55 201.9C157.6 207.4 158.8 213.35 163.05 219.05C165 221.65 167.35 223.95 169.95 225.9C174.85 229.05 179.95 231.85 185.25 234.3C193.55 238.15 205.9 242.75 217.55 242.75C224.75 242.75 230.95 241.05 236.05 237.65C246.55 230.65 252.6 222.5 254.05 213.4C254.95 207.6 253.95 201.65 251.2 196.45C249.85 194 248.4 191.6 246.75 189.3C244.2 185.65 241.95 181.85 240 177.85C235.6 168.75 230.6 163.15 217.95 161.2C217.05 161.15 216.05 161.05 215.05 161.05Z" fill="black"/>
<path d="M215.9 207.4C215.5 207.4 215.15 207.1 215.1 206.7C215.05 206.3 215.4 205.95 215.8 205.9C223.6 205.2 230.75 196.45 230.85 196.35C231.1 196.05 231.6 196 231.9 196.25C232.2 196.5 232.25 197 232 197.3C231.7 197.7 224.35 206.6 215.95 207.4H215.9Z" fill="black"/>
<path d="M216.05 202C202.9 202 197.15 188.25 197.1 188.05C196.9 187.7 197 187.25 197.35 187C197.7 186.75 198.15 186.9 198.4 187.25C198.45 187.3 198.45 187.4 198.5 187.45C198.8 188.15 205.4 204.05 221.3 199.7C221.7 199.55 222.1 199.8 222.25 200.2C222.4 200.6 222.15 201 221.75 201.15H221.7C219.9 201.7 218 202 216.05 202Z" fill="white"/>
<path d="M236 143.1C235.7 143.1 235.4 142.9 235.3 142.6C233.9 138.65 231.6 135.9 228.45 134.4C222.85 131.75 216.35 134.05 216.3 134.1C215.9 134.2 215.5 133.95 215.4 133.6C215.3 133.25 215.5 132.85 215.8 132.7C216.1 132.6 222.95 130.15 229.1 133.1C232.6 134.75 235.2 137.8 236.75 142.15C236.9 142.55 236.7 142.95 236.3 143.1C236.2 143.1 236.1 143.1 236 143.1Z" fill="black"/>
<path d="M229.9 155.85C229.6 155.85 229.35 155.7 229.25 155.45C227.15 151.55 224.45 149.15 221.2 148.35C215.9 147.1 210.85 150.5 210.8 150.55C210.45 150.75 210 150.65 209.75 150.3C209.55 149.95 209.6 149.55 209.95 149.3C210.2 149.15 215.6 145.45 221.55 146.9C225.25 147.8 228.3 150.4 230.6 154.7C230.8 155.05 230.65 155.5 230.3 155.7C230.15 155.8 230 155.85 229.9 155.85Z" fill="white"/>
<path d="M208.6 250.5V258C208.6 258 221.6 277.5 246.6 261.5C246.6 261.5 234.35 243.85 227.75 222.95C227.75 222.95 237 220.45 235.1 212.15C233.2 203.85 226.4 202.75 222.55 205.25C222.55 205.25 207.55 216.85 190.1 185.25C190.1 185.25 173.9 192.85 171.35 210.1C168.8 227.35 173.15 246.95 186.55 252C199.95 257 208.6 250.5 208.6 250.5Z" fill="#FFCDB2"/>
<path d="M190.1 185.25C200.15 203.5 209.4 207.35 215.45 207.35C218 207.4 220.45 206.7 222.55 205.25C223.75 204.5 225.2 204.1 226.6 204.1C230.05 204.1 233.75 206.35 235.1 212.15C237 220.45 227.75 222.95 227.75 222.95C234.3 243.85 246.55 261.5 246.55 261.5C239.3 266.15 233 267.8 227.8 267.8C215.1 267.8 208.55 258 208.55 258V250.5C208.55 250.5 204.05 253.9 196.55 253.9C193.15 253.85 189.75 253.25 186.55 252C173.15 247 168.8 227.35 171.35 210.1C173.9 192.85 190.15 185.25 190.1 185.25ZM190.15 183.75C189.95 183.75 189.7 183.8 189.5 183.9C186.3 185.55 183.35 187.65 180.7 190.1C174.7 195.65 171 202.5 169.85 209.85C168.5 219.05 169.1 228.35 171.5 236.05C174.3 244.85 179.3 250.85 186 253.35C189.35 254.65 192.95 255.3 196.55 255.35C200.2 255.35 203.75 254.6 207.05 253.05V257.95C207.05 258.25 207.15 258.55 207.3 258.8C207.6 259.2 214.45 269.25 227.8 269.25C234 269.25 240.55 267.05 247.35 262.7C248.05 262.25 248.25 261.35 247.8 260.65C247.8 260.65 247.8 260.6 247.75 260.6C247.65 260.45 236.05 243.7 229.55 223.8C230.8 223.3 231.95 222.6 233 221.75C236.2 219.2 237.4 215.7 236.5 211.75C234.9 204.9 230.35 202.5 226.55 202.5C224.85 202.5 223.15 203 221.7 203.9L221.6 204C219.75 205.2 217.6 205.8 215.4 205.75C209.8 205.75 201.1 202.05 191.4 184.45C191.15 184.05 190.65 183.75 190.15 183.75Z" fill="black"/>
<path d="M208.35 252C207.95 252 207.6 251.65 207.6 251.25C207.6 250.95 207.8 250.65 208.1 250.55C215.25 248.15 220.7 240.25 220.75 240.2C221 239.85 221.45 239.75 221.8 240C222.15 240.25 222.25 240.7 222 241.05C221.75 241.4 216.25 249.45 208.55 252C208.5 252 208.4 252 208.35 252Z" fill="black"/>
<path d="M227.55 219.1C227.45 219.1 227.3 219.05 227.2 219C226.85 218.8 226.7 218.35 226.9 218C228.35 215.25 228.65 213.15 227.85 211.7C226.65 209.65 223.45 209.5 223.45 209.5C223.05 209.5 222.7 209.15 222.75 208.7C222.75 208.3 223.1 207.95 223.5 208C223.65 208 227.55 208.2 229.15 210.95C230.25 212.9 229.95 215.5 228.25 218.7C228.05 218.95 227.8 219.1 227.55 219.1Z" fill="black"/>
<path d="M190.8 210.7C200.5 211.45 212.65 205.6 215.3 208.65C217.95 211.7 216.9 216.45 211.95 218.25C207 220.05 201.9 220.6 191.45 221.2C181 221.8 170.65 221.6 171.1 215.9C171.55 210.2 176.55 209.6 190.8 210.7Z" fill="#FFB49F"/>
<path d="M179.05 206.1C178.65 206.1 178.3 205.75 178.3 205.35C178.3 205.15 178.35 205 178.5 204.85C178.65 204.7 181.8 201.05 186 201.35C186.4 201.4 186.75 201.75 186.7 202.15C186.65 202.55 186.3 202.9 185.9 202.85C182.45 202.6 179.65 205.8 179.65 205.8C179.5 206 179.3 206.1 179.05 206.1Z" fill="black"/>
<path d="M189.8 228.15C189.75 228.15 189.7 228.15 189.65 228.15C189.25 228.05 189 227.65 189.05 227.25L192.25 211.85C192.35 211.45 192.75 211.2 193.15 211.25C193.55 211.3 193.8 211.75 193.75 212.15L190.55 227.55C190.5 227.9 190.2 228.15 189.8 228.15Z" fill="black"/>
<path d="M231.55 225.55C233.262 225.55 234.65 224.162 234.65 222.45C234.65 220.738 233.262 219.35 231.55 219.35C229.838 219.35 228.45 220.738 228.45 222.45C228.45 224.162 229.838 225.55 231.55 225.55Z" fill="#00A3FF"/>
<path d="M231.55 219.35C233.25 219.35 234.65 220.75 234.65 222.45C234.65 223.5 234.1 224.5 233.2 225.05C231.75 225.95 229.85 225.55 228.95 224.1C228.05 222.65 228.45 220.75 229.9 219.85C230.4 219.5 230.95 219.35 231.55 219.35ZM231.55 217.85C229 217.85 226.95 219.9 226.95 222.45C226.95 225 229 227.05 231.55 227.05C234.1 227.05 236.15 225 236.15 222.45C236.15 221.6 235.9 220.75 235.45 220C234.6 218.65 233.15 217.85 231.55 217.85Z" fill="black"/>
<path d="M206.8 215.65C207.766 215.65 208.55 214.866 208.55 213.9C208.55 212.933 207.766 212.15 206.8 212.15C205.833 212.15 205.05 212.933 205.05 213.9C205.05 214.866 205.833 215.65 206.8 215.65Z" fill="black"/>
<path d="M181.2 217.4C182.167 217.4 182.95 216.616 182.95 215.65C182.95 214.683 182.167 213.9 181.2 213.9C180.234 213.9 179.45 214.683 179.45 215.65C179.45 216.616 180.234 217.4 181.2 217.4Z" fill="black"/>
<path d="M199 240.65C198.4 240.65 197.8 240.55 197.25 240.4C196.85 240.3 196.6 239.9 196.7 239.5C196.8 239.1 197.2 238.85 197.6 238.95C202.45 240.25 205.7 233.9 205.7 233.8C205.85 233.4 206.3 233.25 206.7 233.4C207.1 233.55 207.25 234 207.1 234.4C207.1 234.45 207.05 234.45 207.05 234.5C207 234.8 204 240.65 199 240.65Z" fill="black"/>
<path d="M197.15 201.85C196.95 201.85 196.8 201.75 196.65 201.65C196.35 201.35 196.35 200.9 196.6 200.6C196.85 200.35 199.1 198.05 201.2 198.8C201.6 198.95 201.8 199.35 201.65 199.75C201.5 200.15 201.1 200.35 200.7 200.2C199.7 199.85 198.15 201.15 197.7 201.6C197.55 201.8 197.35 201.85 197.15 201.85Z" fill="black"/>
<path d="M101.95 283.35C101.9 283.3 107.1 275.25 107.1 275.25C126.55 288.95 143.6 283.55 143.6 283.55L142.85 290.7L143 290.4C143 290.35 125.25 304.95 101.95 283.35Z" fill="#0094E7"/>
<path d="M279.2 290.45C281.437 290.45 283.25 288.637 283.25 286.4C283.25 284.163 281.437 282.35 279.2 282.35C276.963 282.35 275.15 284.163 275.15 286.4C275.15 288.637 276.963 290.45 279.2 290.45Z" fill="#2CB3FF"/>
<path d="M164.1 232.15L167.45 235.85C168.75 237.25 168.65 239.45 167.2 240.75L115.45 287.7C114.05 289 111.85 288.9 110.55 287.45L107.2 283.75C105.9 282.35 106 280.15 107.45 278.85L159.2 231.9C160.65 230.6 162.85 230.7 164.1 232.15Z" fill="#D9CFFF"/>
<path d="M113.15 289.3H112.95C111.85 289.25 110.8 288.75 110.05 287.95L106.7 284.25C105.15 282.55 105.25 279.85 107 278.3L158.75 231.35C160.45 229.8 163.1 229.95 164.7 231.65L168.05 235.35C169.6 237.05 169.5 239.7 167.75 241.3L116 288.2C115.25 288.9 114.2 289.3 113.15 289.3ZM161.55 231.75C160.9 231.75 160.25 232 159.75 232.45L108 279.4C106.9 280.4 106.8 282.1 107.8 283.2L111.15 286.9C112.15 288 113.85 288.1 114.95 287.1L166.7 240.15C167.8 239.15 167.9 237.45 166.9 236.35L163.55 232.65C163.05 232.05 162.3 231.75 161.55 231.75Z" fill="#1D1E1B"/>
<path d="M199.25 219.8L196.2 219.1C196.1 219.1 196 219.05 195.9 219.05C195.9 216.3 195.35 213.6 194.25 211.05L196.5 209.5C197.55 208.75 197.8 207.3 197.05 206.25L194.25 202.25C193.5 201.2 192.05 200.95 191 201.7L188.55 203.45C187.3 202.4 185.9 201.5 184.4 200.8L185.05 198.05C185.35 196.8 184.55 195.55 183.3 195.25L178.55 194.15C177.3 193.85 176.05 194.65 175.75 195.9L175.05 198.9C173.05 198.95 171.05 199.35 169.1 200.05L167.35 197.55C166.6 196.5 165.15 196.25 164.1 197L160.1 199.8C159.05 200.55 158.8 202 159.55 203.05L161.1 205.25C159.7 206.75 158.55 208.4 157.65 210.25L154.75 209.6C153.5 209.3 152.25 210.1 151.95 211.35L150.85 216.1C150.55 217.35 151.35 218.6 152.6 218.9L155.6 219.6C155.65 221.75 156.05 223.85 156.8 225.9L154.35 227.65C153.3 228.4 153.05 229.85 153.8 230.9L156.6 234.9C157.35 235.95 158.8 236.2 159.85 235.45L162.05 233.9C163.5 235.25 165.2 236.4 167 237.3C167 237.35 166.95 237.4 166.95 237.5L166.25 240.55C165.95 241.8 166.75 243.05 168 243.35L172.8 244.45C174.05 244.75 175.3 243.95 175.6 242.7L176.3 239.65C176.3 239.55 176.35 239.45 176.35 239.3C178.65 239.25 180.9 238.8 183.05 238C183.1 238.05 183.15 238.15 183.2 238.2L185 240.75C185.75 241.8 187.2 242.05 188.25 241.3L192.25 238.5C193.3 237.75 193.55 236.3 192.8 235.25L191 232.7L190.9 232.6C192 231.35 192.95 229.95 193.75 228.45C193.85 228.5 194 228.55 194.15 228.6L197.2 229.3C198.45 229.6 199.7 228.8 200 227.55L201.1 222.8C201.3 221.3 200.5 220.1 199.25 219.8ZM172.6 233C164.85 231.2 160 223.45 161.8 215.7C163.6 207.95 171.35 203.1 179.1 204.9C186.85 206.7 191.7 214.45 189.9 222.2C188.1 229.95 180.35 234.8 172.6 233Z" fill="#00A3FF"/>
<path d="M173.3 245.05C173.05 245.05 172.85 245 172.6 244.95L167.8 243.85C166.15 243.45 165.1 241.8 165.5 240.15L166.1 237.5C164.6 236.75 163.2 235.8 161.95 234.7L160.25 235.9C158.85 236.85 156.95 236.55 155.95 235.15L153.15 231.15C152.7 230.5 152.5 229.65 152.65 228.85C152.8 228.05 153.25 227.3 153.9 226.85L155.9 225.45C155.35 223.7 155 221.9 154.9 220.05L152.5 219.5C150.85 219.1 149.8 217.45 150.2 215.8L151.3 211C151.7 209.35 153.35 208.3 155 208.7L157.3 209.25C158.1 207.75 159.05 206.35 160.2 205.05L159 203.35C158 201.95 158.35 200.05 159.75 199.05L163.75 196.25C165.15 195.3 167.05 195.6 168.05 197L169.5 199C171.15 198.5 172.8 198.15 174.55 198.05L175.1 195.6C175.5 193.95 177.15 192.9 178.8 193.3L183.55 194.4C185.2 194.8 186.25 196.4 185.85 198.05L185.35 200.2C186.5 200.8 187.65 201.5 188.7 202.3L190.7 200.9C192.1 199.95 194 200.25 195 201.65L197.8 205.65C198.8 207.05 198.45 208.95 197.05 209.95L195.3 211.2C196.2 213.45 196.7 215.9 196.75 218.3L199.5 218.95C201.15 219.35 202.2 221 201.8 222.65L200.7 227.4C200.3 229.05 198.65 230.1 197 229.7L194.1 229.05C193.45 230.2 192.7 231.3 191.85 232.3L193.4 234.5C194.4 235.9 194.05 237.8 192.65 238.8L188.65 241.6C187.25 242.6 185.35 242.25 184.35 240.85L182.75 238.6C180.9 239.25 178.95 239.65 177 239.75L176.35 242.55C176 244.05 174.75 245.05 173.3 245.05ZM162.15 232.8L162.6 233.2C164 234.5 165.6 235.6 167.35 236.45L167.95 236.75L167.75 237.35C167.75 237.4 167.7 237.45 167.7 237.45L167 240.45C166.8 241.3 167.35 242.15 168.2 242.35L172.95 243.45C173.8 243.65 174.65 243.1 174.85 242.25L175.55 239.2C175.55 239.15 175.55 239.05 175.6 238.95L175.65 238.3H176.3C178.5 238.25 180.7 237.8 182.75 237L183.35 236.75L183.65 237.3L183.75 237.45L185.55 240C186.05 240.7 187.05 240.9 187.75 240.4L191.75 237.6C192.45 237.1 192.65 236.1 192.15 235.4L190.35 232.85L190.3 232.75L189.9 232.25L190.3 231.75C191.4 230.55 192.3 229.2 193.05 227.8L193.35 227.2L194 227.45C194.1 227.5 194.15 227.5 194.25 227.55L197.3 228.25C198.15 228.45 199 227.9 199.2 227.05L200.3 222.25C200.5 221.4 199.95 220.55 199.1 220.35L196.05 219.65L195.85 219.6L195.2 219.55V219C195.2 216.35 194.7 213.75 193.65 211.3L193.4 210.75L196.1 208.85C196.8 208.35 197 207.35 196.5 206.65L193.7 202.65C193.2 201.95 192.2 201.75 191.5 202.25L188.55 204.3L188.1 203.95C186.9 202.95 185.55 202.1 184.1 201.4L183.55 201.15L184.3 197.8C184.4 197.4 184.3 196.95 184.1 196.6C183.9 196.25 183.55 196 183.1 195.9L178.3 194.8C177.45 194.6 176.6 195.15 176.4 196L175.6 199.55H175.05C173.1 199.6 171.2 200 169.35 200.65L168.8 200.85L166.75 197.9C166.25 197.2 165.25 197 164.55 197.5L160.55 200.3C160.2 200.55 160 200.9 159.9 201.3C159.85 201.7 159.9 202.15 160.15 202.45L162.05 205.15L161.65 205.6C160.3 207 159.2 208.65 158.35 210.4L158.1 210.95L154.65 210.15C153.8 209.95 152.95 210.5 152.75 211.35L151.65 216.1C151.45 216.95 152 217.8 152.85 218L156.4 218.8V219.4C156.45 221.45 156.8 223.55 157.5 225.5L157.7 226.05L154.8 228.1C154.1 228.6 153.9 229.6 154.4 230.3L157.2 234.3C157.7 235 158.7 235.15 159.4 234.7L162.15 232.8ZM175.85 234.1C174.7 234.1 173.55 233.95 172.4 233.7C164.25 231.8 159.2 223.65 161.1 215.5C163 207.35 171.15 202.3 179.3 204.2C187.45 206.1 192.5 214.25 190.6 222.4C189 229.25 182.9 234.1 175.85 234.1ZM172.75 232.25C180.1 233.95 187.45 229.4 189.15 222.05C190.85 214.7 186.3 207.35 178.95 205.65C171.6 203.95 164.25 208.5 162.55 215.85C160.8 223.15 165.3 230.45 172.6 232.2C172.65 232.2 172.7 232.25 172.75 232.25Z" fill="#1D1D1B"/>
<path d="M109.95 275.2C109.95 275.2 98.7498 266.35 105.75 252.95C112.75 239.55 123.45 229.3 135.15 229.35C146.85 229.4 153.25 235.95 155 242.3C156.75 248.65 152.5 253.75 144.15 254.35C144.15 254.35 145.05 265.85 130.25 266.1C130.25 266.1 124.95 283.7 114.3 271.15L109.95 275.2Z" fill="#FFCDB2"/>
<path d="M135.05 229.35H135.1C146.8 229.4 153.2 235.95 154.95 242.3C156.7 248.65 152.45 253.75 144.1 254.35C144.1 254.35 145 265.85 130.2 266.1C130.2 266.1 127.3 275.65 121.55 275.65C119.5 275.65 117.05 274.45 114.25 271.15L109.95 275.25C109.95 275.25 98.7498 266.4 105.75 253C112.75 239.55 123.35 229.35 135.05 229.35ZM135.05 227.85C129.1 227.85 123.25 230.25 117.65 235C112.7 239.2 108.1 245.2 104.4 252.25C100.5 259.75 101.95 265.9 103.85 269.75C105.1 272.3 106.85 274.55 109 276.35L110.05 277.15L111 276.25L114.15 273.25C116.65 275.8 119.1 277.1 121.55 277.1C127.15 277.1 130.3 270.2 131.3 267.5C136.25 267.25 140 265.7 142.5 262.95C144.3 260.9 145.4 258.35 145.6 255.65C149.9 255.05 153.25 253.3 155.15 250.55C156.9 248.1 157.3 245.05 156.4 241.85C155.25 238 152.9 234.6 149.65 232.2C145.8 229.35 140.8 227.8 135.1 227.8L135.05 227.85Z" fill="#1D1E1B"/>
<path d="M144.75 256.35C144.45 256.35 144.15 256.15 144.05 255.85C139.3 242.6 127.3 241.75 126.8 241.7C126.4 241.7 126.05 241.3 126.1 240.9C126.1 240.5 126.5 240.15 126.9 240.2C127.05 240.2 140.4 241.1 145.5 255.3C145.65 255.7 145.45 256.1 145.05 256.25C144.95 256.3 144.85 256.35 144.75 256.35Z" fill="#1D1D1B"/>
<path d="M131.1 267.45C130.75 267.45 130.5 267.25 130.4 266.9C128.15 259.45 118 253.05 117.9 253C117.55 252.8 117.4 252.35 117.6 252C117.8 251.65 118.25 251.5 118.6 251.7C118.6 251.7 118.65 251.7 118.65 251.75C119.1 252 129.35 258.5 131.8 266.5C131.9 266.9 131.7 267.3 131.3 267.45C131.25 267.45 131.2 267.45 131.1 267.45Z" fill="#1D1D1B"/>
<path d="M114.75 273.2C114.6 273.2 114.45 273.15 114.35 273.1C114.1 272.95 107.9 268.95 107.1 263.75C107.05 263.35 107.3 262.95 107.75 262.9C108.2 262.85 108.55 263.1 108.6 263.55C109.3 268.1 115.15 271.85 115.2 271.9C115.55 272.1 115.65 272.6 115.45 272.95C115.25 273.05 115.05 273.2 114.75 273.2Z" fill="#1D1D1B"/>
<path d="M152.8 246.35C152.15 246.35 151.6 245.95 151.4 245.35C149.5 240.25 146.55 236.75 142.65 234.95C136.35 232.05 129.45 234.6 129.4 234.6C128.65 234.9 127.75 234.5 127.45 233.75C127.15 233 127.55 232.1 128.3 231.8C128.6 231.65 136.35 228.8 143.85 232.2C148.55 234.35 152 238.4 154.2 244.3C154.5 245.1 154.05 245.95 153.3 246.2C153.15 246.3 153 246.35 152.8 246.35Z" fill="white"/>
<path d="M268.2 335.95C270.437 335.95 272.25 334.137 272.25 331.9C272.25 329.663 270.437 327.85 268.2 327.85C265.963 327.85 264.15 329.663 264.15 331.9C264.15 334.137 265.963 335.95 268.2 335.95Z" fill="#2CB3FF"/>
<path d="M183.2 294.45C185.437 294.45 187.25 292.637 187.25 290.4C187.25 288.163 185.437 286.35 183.2 286.35C180.963 286.35 179.15 288.163 179.15 290.4C179.15 292.637 180.963 294.45 183.2 294.45Z" fill="#2CB3FF"/>
<path d="M217.7 316.95C219.937 316.95 221.75 315.137 221.75 312.9C221.75 310.663 219.937 308.85 217.7 308.85C215.463 308.85 213.65 310.663 213.65 312.9C213.65 315.137 215.463 316.95 217.7 316.95Z" fill="#2CB3FF"/>
<path d="M175.2 403.45C177.437 403.45 179.25 401.637 179.25 399.4C179.25 397.163 177.437 395.35 175.2 395.35C172.963 395.35 171.15 397.163 171.15 399.4C171.15 401.637 172.963 403.45 175.2 403.45Z" fill="#2CB3FF"/>
<path d="M268.2 396.45C270.437 396.45 272.25 394.637 272.25 392.4C272.25 390.163 270.437 388.35 268.2 388.35C265.963 388.35 264.15 390.163 264.15 392.4C264.15 394.637 265.963 396.45 268.2 396.45Z" fill="#2CB3FF"/>
<path d="M183.2 349.45C185.437 349.45 187.25 347.637 187.25 345.4C187.25 343.163 185.437 341.35 183.2 341.35C180.963 341.35 179.15 343.163 179.15 345.4C179.15 347.637 180.963 349.45 183.2 349.45Z" fill="#2CB3FF"/>
<path d="M193.7 440.95C195.937 440.95 197.75 439.137 197.75 436.9C197.75 434.663 195.937 432.85 193.7 432.85C191.463 432.85 189.65 434.663 189.65 436.9C189.65 439.137 191.463 440.95 193.7 440.95Z" fill="#2CB3FF"/>
<path d="M307.7 389.45C309.937 389.45 311.75 387.637 311.75 385.4C311.75 383.163 309.937 381.35 307.7 381.35C305.463 381.35 303.65 383.163 303.65 385.4C303.65 387.637 305.463 389.45 307.7 389.45Z" fill="#2CB3FF"/>
<path d="M149.2 334.5C151.437 334.5 153.25 332.687 153.25 330.45C153.25 328.213 151.437 326.4 149.2 326.4C146.963 326.4 145.15 328.213 145.15 330.45C145.15 332.687 146.963 334.5 149.2 334.5Z" fill="#2CB3FF"/>
<path d="M111.35 316.6C113.587 316.6 115.4 314.787 115.4 312.55C115.4 310.313 113.587 308.5 111.35 308.5C109.113 308.5 107.3 310.313 107.3 312.55C107.3 314.787 109.113 316.6 111.35 316.6Z" fill="#2CB3FF"/>
<path d="M86.0998 349.95C88.3366 349.95 90.1498 348.137 90.1498 345.9C90.1498 343.663 88.3366 341.85 86.0998 341.85C83.863 341.85 82.0498 343.663 82.0498 345.9C82.0498 348.137 83.863 349.95 86.0998 349.95Z" fill="#2CB3FF"/>
<path d="M112.15 385.25C114.387 385.25 116.2 383.437 116.2 381.2C116.2 378.963 114.387 377.15 112.15 377.15C109.913 377.15 108.1 378.963 108.1 381.2C108.1 383.437 109.913 385.25 112.15 385.25Z" fill="#2CB3FF"/>
<path d="M241.2 437.45C243.437 437.45 245.25 435.637 245.25 433.4C245.25 431.163 243.437 429.35 241.2 429.35C238.963 429.35 237.15 431.163 237.15 433.4C237.15 435.637 238.963 437.45 241.2 437.45Z" fill="#2CB3FF"/>
<path d="M83.3501 238C83.2501 238 83.1501 238 83.1001 237.95C69.9501 233.25 58.3501 224.95 49.6501 214C42.6001 205.2 37.0501 194.45 33.1501 182.1C26.5501 161.1 27.1001 142.4 27.1001 142.2C27.1501 141.8 27.4501 141.5 27.9001 141.5C28.3001 141.5 28.6501 141.85 28.6001 142.25C28.6001 142.45 28.0501 160.9 34.6001 181.65C40.6001 200.75 53.9501 225.75 83.6501 236.5C84.0501 236.65 84.2501 237.05 84.1001 237.45C83.9501 237.8 83.6501 238 83.3501 238Z" fill="black"/>
<path d="M61.25 242.45H61.2C46.2 241.1 35.3 231.8 28.75 224.25C24.5 219.35 20.95 213.9 18.15 208.05C18.05 207.65 18.25 207.25 18.65 207.1C18.95 207 19.3 207.15 19.5 207.4C19.65 207.7 33.5 238.45 61.3 240.9C61.7 240.9 62.05 241.25 62 241.7C62 242.15 61.65 242.45 61.25 242.45Z" fill="black"/>
<path d="M151.85 386.35C151.8 386.35 151.75 386.35 151.7 386.35C151.3 386.25 151.05 385.85 151.15 385.45C151.2 385.2 156.95 361.05 166.35 342.15C166.5 341.75 166.95 341.6 167.35 341.75C167.75 341.9 167.9 342.35 167.75 342.75C167.75 342.75 167.75 342.8 167.7 342.8C158.35 361.5 152.65 385.5 152.6 385.75C152.5 386.15 152.2 386.35 151.85 386.35Z" fill="black"/>
<path d="M314.25 315.25C314.25 315.25 328.25 332.25 331.25 349.25Z" fill="#00A3FF"/>
<path d="M330.5 349.4C327.55 332.8 313.8 315.9 313.65 315.75L314.8 314.8C314.95 314.95 328.95 332.15 331.95 349.15L330.5 349.4Z" fill="#1D1D1B"/>
<path d="M326 438C325.9 438 325.8 438 325.7 438C324.9 437.85 324.35 437.05 324.5 436.25C336.25 375.5 315.4 339.65 315.2 339.3C314.75 338.6 315 337.65 315.7 337.25C316.4 336.85 317.35 337.05 317.75 337.75C317.95 338.15 323.3 347.15 327.15 363.95C330.7 379.35 333.65 404.55 327.4 436.85C327.35 437.5 326.7 438 326 438Z" fill="white"/>
<path d="M75.9998 371.5C75.3998 371.5 74.8498 371.1 74.5998 370.55C66.8998 351.1 76.7498 333.5 77.1998 332.75C77.5998 332.05 78.5498 331.8 79.2498 332.2C79.9498 332.6 80.1998 333.55 79.7998 334.25C79.6498 334.45 70.2498 351.4 77.3998 369.45C77.6998 370.2 77.2998 371.1 76.5498 371.4C76.3498 371.45 76.1998 371.5 75.9998 371.5Z" fill="white"/>
<path d="M63.5003 387.5C63.2503 387.5 62.9503 387.4 62.8003 387.2C52.9503 377.1 52.1003 365.6 53.1003 357.75C53.7503 352.6 55.3003 347.6 57.6503 343C57.9503 342.5 58.5503 342.35 59.0003 342.65C59.5003 342.95 59.6503 343.55 59.3503 344C57.1003 348.4 55.6503 353.15 55.0003 358.1C53.6503 368.85 56.7503 378.2 64.1503 385.85C64.5503 386.25 64.5003 386.9 64.1003 387.25C64.0003 387.4 63.7503 387.5 63.5003 387.5Z" fill="#1D1D1B"/>
</svg>
