<svg width="202" height="179" viewBox="0 0 202 179" fill="none" xmlns="http://www.w3.org/2000/svg">
<path d="M45.1229 178.725C44.9029 178.723 44.7244 178.541 44.7262 178.321C44.728 178.101 44.9095 177.923 45.1295 177.925L154.871 178.161C155.091 178.163 155.27 178.344 155.268 178.564C155.266 178.784 155.085 178.963 154.865 178.961L45.1229 178.725Z" fill="black"/>
<path d="M165.088 173.725L149.309 173.596C149.149 173.594 149.01 173.453 149.011 173.293C149.013 173.133 149.154 172.994 149.314 172.996L165.093 173.125C165.253 173.126 165.392 173.267 165.391 173.427C165.389 173.587 165.248 173.726 165.088 173.725Z" fill="black"/>
<path d="M135.822 83.7824C138.473 83.8041 140.639 81.6727 140.661 79.0218C140.683 76.3709 138.551 74.2044 135.9 74.1828C133.25 74.1611 131.083 76.2925 131.061 78.9434C131.04 81.5943 133.171 83.7608 135.822 83.7824Z" fill="white"/>
<path d="M135.819 84.0824C132.999 84.0594 130.738 81.7609 130.761 78.941C130.784 76.121 133.083 73.8598 135.903 73.8828C138.722 73.9058 140.984 76.2044 140.961 79.0243C140.938 81.8442 138.639 84.1055 135.819 84.0824ZM135.898 74.4828C133.418 74.4625 131.381 76.4659 131.361 78.9459C131.341 81.4258 133.344 83.4622 135.824 83.4825C138.304 83.5027 140.34 81.4993 140.361 79.0194C140.381 76.5395 138.378 74.503 135.898 74.4828Z" fill="black"/>
<path d="M132.433 77.4346C131.742 78.789 132.189 80.4327 133.462 81.2631C133.601 81.3442 133.782 81.3057 133.883 81.1665C133.964 81.0272 133.925 80.8469 133.786 80.7457C132.792 80.0976 132.462 78.8149 132.971 77.739C133.052 77.5996 133.013 77.4193 132.874 77.3382C132.715 77.2569 132.534 77.3154 132.433 77.4346Z" fill="black"/>
<path d="M137.599 76.7367C138.137 77.0811 138.552 77.6045 138.727 78.2259C138.825 78.5267 138.862 78.8471 138.84 79.1669C138.817 79.4867 138.755 79.7862 138.612 80.0851C138.531 80.2244 138.57 80.4047 138.709 80.4859C138.848 80.567 139.029 80.5285 139.11 80.3891C139.639 79.2334 139.45 77.8718 138.658 76.8853C138.44 76.6235 138.182 76.3814 137.884 76.219C137.744 76.1378 137.564 76.1964 137.483 76.3357C137.422 76.4752 137.48 76.6557 137.599 76.7367Z" fill="black"/>
<path d="M135.038 76.9158L134.017 79.4876C133.975 79.6473 134.054 79.8079 134.214 79.8692L136.948 80.5916C137.107 80.6329 137.268 80.5342 137.309 80.3745C137.33 80.2947 137.311 80.2145 137.291 80.1544L135.717 77.0214C135.638 76.8808 135.438 76.8391 135.298 76.918C135.157 76.9968 135.116 77.1765 135.194 77.3171L136.769 80.4501L137.112 80.0129L134.378 79.2905L134.575 79.6522L135.596 77.0804C135.638 76.9207 135.539 76.7599 135.399 76.7188C135.24 76.6575 135.079 76.7562 135.038 76.9158Z" fill="black"/>
<path d="M133.863 71.386C135.307 70.8378 136.927 70.911 138.341 71.5626C138.74 71.7459 139.098 71.9688 139.436 72.2516C139.555 72.3726 139.735 72.374 139.856 72.255C139.977 72.136 139.978 71.956 139.859 71.835C138.528 70.7641 136.812 70.2701 135.09 70.456C134.61 70.5121 134.149 70.6283 133.688 70.7846C133.527 70.8433 133.446 71.0026 133.485 71.1429C133.543 71.3434 133.702 71.4247 133.863 71.386Z" fill="black"/>
<path d="M111.677 101.386C111.677 101.386 127.587 100.196 141.224 108.027C154.86 115.859 175.501 128.068 170.27 139.166C165.039 150.263 155.656 153.147 148.216 153.086C143.436 153.047 136.29 148.788 136.29 148.788C136.29 148.788 140.527 159.083 136.055 177.587L61.4851 178.518C61.4851 178.518 57.303 122.442 79.0356 106.299" fill="#00A3FF"/>
<path d="M61.4831 178.798C61.3231 178.797 61.2041 178.676 61.1854 178.516C60.6074 168.471 60.8096 158.412 61.8114 148.4C62.7877 139.068 64.4742 130.941 66.8488 124.26C69.8173 115.884 73.8677 109.737 78.8582 106.018C78.9991 105.919 79.1787 105.96 79.2776 106.101C79.3766 106.222 79.3351 106.402 79.2143 106.501C74.3044 110.141 70.3349 116.189 67.4073 124.445C65.053 131.086 63.387 139.153 62.4111 148.445C60.8919 163.033 61.625 176.119 61.7681 178.181L135.818 177.266C140.125 159.24 136.049 148.986 136.01 148.886C135.951 148.726 136.013 148.566 136.173 148.487C136.254 148.448 136.374 148.449 136.453 148.51C136.513 148.55 143.579 152.728 148.239 152.766C153.938 152.813 164.313 151.097 170.012 139.024C172.251 134.242 169.854 128.882 162.646 122.583C156.628 117.334 148.368 112.446 141.082 108.266C127.684 100.577 111.875 101.647 111.715 101.666C111.555 101.685 111.396 101.543 111.397 101.383C111.398 101.224 111.52 101.064 111.68 101.066C111.84 101.047 127.829 99.9777 141.406 107.749C148.712 111.929 157.012 116.837 163.049 122.126C166.445 125.094 168.842 127.934 170.161 130.565C171.696 133.657 171.852 136.579 170.57 139.268C164.728 151.641 154.094 153.414 148.254 153.366C144.254 153.334 138.797 150.489 136.866 149.433C137.723 152.16 140.142 162.08 136.375 177.65C136.334 177.79 136.233 177.869 136.093 177.888L61.4831 178.798Z" fill="black"/>
<path d="M110.693 145.919C110.693 145.919 116.388 146.606 119.285 146.929C122.183 147.253 121.866 141.89 114.974 140.894" fill="#FFCDB2"/>
<path d="M119.523 147.251C119.443 147.251 119.343 147.25 119.263 147.229C116.366 146.886 110.671 146.219 110.671 146.219L110.736 145.62C110.736 145.62 116.431 146.306 119.328 146.63C120.107 146.716 120.61 146.34 120.716 145.641C120.908 144.163 119.247 141.809 114.952 141.194C114.792 141.173 114.674 141.012 114.695 140.852C114.716 140.692 114.877 140.573 115.037 140.595C119.732 141.273 121.549 144.008 121.315 145.726C121.228 146.645 120.422 147.319 119.523 147.251Z" fill="black"/>
<path d="M89.5418 139.886C89.5418 139.886 101.658 133.045 104.432 131.328C109.94 127.912 121.796 135.89 115.453 141.058C115.453 141.058 115.944 142.222 114.334 143.409C113.992 143.666 112.727 144.196 112.727 144.196C112.727 144.196 113.132 148.499 105.839 147.68C105.839 147.68 103.274 150.719 97.0686 153.768L90.7462 158.937L89.5418 139.886Z" fill="#FFCDB2"/>
<path d="M90.7235 159.237C90.6835 159.236 90.6435 159.236 90.6037 159.216C90.504 159.175 90.4248 159.074 90.4258 158.954L89.2414 139.904C89.2424 139.784 89.3032 139.684 89.4037 139.625C89.5242 139.566 101.56 132.764 104.274 131.086C107.872 128.856 114.013 131.226 116.505 134.726C118.146 137.04 117.887 139.378 115.792 141.181C115.868 141.621 115.88 142.661 114.512 143.67C114.029 143.946 113.547 144.202 113.025 144.418C112.998 145.278 112.631 146.115 112.007 146.71C110.817 147.86 108.793 148.304 105.956 148.001C105.411 148.616 102.789 151.295 97.2263 154.029L90.924 159.178C90.8639 159.198 90.8035 159.237 90.7235 159.237ZM89.8603 140.049L90.991 158.319L96.8704 153.527C96.8906 153.507 96.9105 153.507 96.9307 153.487C103.015 150.497 105.58 147.497 105.6 147.478C105.661 147.398 105.761 147.359 105.861 147.38C108.539 147.682 110.522 147.298 111.57 146.286C112.134 145.751 112.44 145.013 112.407 144.233C112.388 144.113 112.469 143.974 112.589 143.935C113.111 143.719 113.633 143.463 114.135 143.187C115.524 142.159 115.172 141.216 115.152 141.175C115.113 141.055 115.134 140.915 115.235 140.836C117.913 138.658 116.852 136.289 115.982 135.082C113.688 131.863 107.846 129.575 104.55 131.609C102.037 133.168 91.3071 139.221 89.8603 140.049Z" fill="black"/>
<path d="M138.016 79.5802C140.744 76.2224 147.131 77.7546 149.38 81.5731C151.629 85.3916 151.95 92.5945 148.481 98.6463L145.011 104.698L147.279 106.237L134.308 114.851C134.308 114.851 130.545 110.26 129.829 104.954C129.112 99.6281 128.404 95.7622 129.948 92.7547C131.493 89.7473 131.49 82.767 132.63 82.7763C133.77 82.7856 137.804 86.0187 137.184 88.4137C137.184 88.4137 141.397 86.8481 143.624 88.3863C143.624 88.3863 144.795 84.5958 142.908 83.0603C141.02 81.5248 136.481 81.4677 138.016 79.5802Z" fill="#FFCDB2"/>
<path d="M134.305 115.131C134.225 115.13 134.126 115.09 134.066 115.029C133.908 114.848 130.244 110.318 129.528 104.972C129.472 104.531 129.395 104.091 129.339 103.65C128.678 98.8846 128.206 95.4406 129.669 92.5725C130.401 91.1184 130.781 88.7414 131.118 86.6441C131.561 83.7876 131.812 82.4296 132.612 82.4362C133.472 82.4432 135.341 83.7985 136.449 85.2476C137.182 86.2136 137.554 87.1367 137.528 87.9365C138.65 87.5857 141.496 86.8689 143.428 87.8847C143.656 86.9266 144.097 84.3901 142.706 83.2587C142.03 82.7131 140.933 82.3442 139.976 82.0163C138.719 81.606 137.642 81.2372 137.428 80.5155C137.331 80.1547 137.434 79.7755 137.777 79.3783C138.929 77.9676 140.755 77.2825 142.913 77.4402C145.672 77.6427 148.359 79.2447 149.641 81.3953C151.871 85.1736 152.31 92.5374 148.739 98.7685L145.432 104.562L147.461 105.938C147.6 106.039 147.638 106.22 147.537 106.359C147.517 106.399 147.497 106.419 147.457 106.438L134.466 115.092C134.425 115.132 134.365 115.132 134.305 115.131ZM132.627 83.0563C132.286 83.1935 131.949 85.2509 131.717 86.769C131.379 88.9063 130.999 91.3433 130.207 92.8769C128.845 95.5658 129.297 98.9297 129.939 103.595C129.996 104.016 130.052 104.456 130.129 104.917C130.731 109.462 133.639 113.506 134.371 114.452L146.738 106.232L144.849 104.957C144.709 104.876 144.671 104.695 144.752 104.556L148.222 98.5042C151.671 92.4722 151.269 85.3687 149.119 81.731C147.935 79.7213 145.427 78.2607 142.868 78.0598C140.91 77.9038 139.264 78.5304 138.254 79.7822C138.052 80.0205 137.991 80.22 138.029 80.3804C138.146 80.8013 139.183 81.1498 140.2 81.4781C141.218 81.8065 142.375 82.1959 143.129 82.8221C145.156 84.4587 143.985 88.3093 143.943 88.469C143.923 88.5688 143.842 88.6281 143.762 88.6675C143.681 88.7068 143.582 88.686 143.502 88.6254C141.434 87.2084 137.381 88.6754 137.341 88.695C137.241 88.7342 137.121 88.7132 137.042 88.6326C136.962 88.5519 136.923 88.4516 136.944 88.3318C137.192 87.3938 136.58 86.3487 136.046 85.6443C134.878 84.1748 133.187 83.0609 132.627 83.0563Z" fill="black"/>
<path d="M90.6024 90.8932C90.6024 90.8932 90.3857 97.8317 85.4157 96.591C80.4457 95.3504 69.8479 92.5837 67.3074 99.9832C64.7668 107.383 65.5752 108.809 60.0742 108.904C54.5733 108.999 45.013 118.782 57.2162 128.242C69.4193 137.702 100.488 97.5542 100.488 97.5542L99.5627 93.3465L90.6024 90.8932Z" fill="#6C32AD"/>
<path d="M90.6021 90.8933L99.5622 93.3665L100.488 97.5742C100.488 97.5742 75.5437 129.812 61.5842 129.697C60.0039 129.725 58.468 129.212 57.2157 128.262C45.0128 118.782 54.5728 109.02 60.0738 108.924C65.5748 108.829 64.7664 107.403 67.3069 100.003C68.6387 96.114 72.2278 95.0233 76.0277 95.0543C79.4475 95.0823 83.0801 96.012 85.4152 96.6111C85.7744 96.714 86.1341 96.7569 86.5141 96.7601C90.4139 96.7919 90.6021 90.8933 90.6021 90.8933ZM90.607 90.2933C90.287 90.2907 90.0049 90.5484 90.0023 90.8683C90.0017 90.9483 89.779 96.1667 86.5191 96.1401C86.1991 96.1375 85.8795 96.0948 85.5601 96.0122L85.3805 95.9708C83.0053 95.3713 79.4324 94.4821 76.0326 94.4543C71.1127 94.4141 67.978 96.2086 66.7486 99.7987C66.2772 101.195 65.9077 102.352 65.5994 103.369C64.284 107.699 64.0996 108.237 60.0587 108.324C56.9182 108.379 52.594 111.323 51.159 115.592C50.2978 118.185 49.8757 123.342 56.8318 128.739C58.1834 129.77 59.839 130.323 61.5591 130.317C64.879 130.344 69.0131 128.638 73.881 125.238C77.7231 122.549 82.0337 118.824 86.6922 114.122C91.7342 109.003 96.4985 103.602 100.965 97.9581C101.066 97.819 101.107 97.6393 101.069 97.459L100.143 93.2513C100.105 93.031 99.9265 92.8495 99.7268 92.8079L90.7667 90.3346C90.7067 90.3341 90.6669 90.3138 90.607 90.2933Z" fill="black"/>
<path d="M55.9243 127.191C57.1776 115.781 75.5129 104.19 81.3667 102.518C87.2206 100.846 94.2634 98.0834 95.3435 95.6321C96.4235 93.1809 92.293 92.0071 92.293 92.0071L93.5356 91.6972L99.5621 93.3665L100.488 97.5742C100.488 97.5742 69.4186 137.742 57.2156 128.262C56.7586 127.898 56.3415 127.535 55.9243 127.191Z" fill="#59298F"/>
<path d="M138.326 88.183C138.326 88.183 134.13 90.1688 136.768 92.8504C136.768 92.8504 132.563 95.8562 135.201 98.5378C135.201 98.5378 136.706 100.45 138.238 98.9427L140.509 100.101" fill="#FFCDB2"/>
<path d="M140.486 100.401C140.446 100.401 140.386 100.38 140.346 100.36L138.255 99.3028C137.872 99.6597 137.35 99.8354 136.831 99.8112C135.811 99.7429 135.058 98.8567 134.939 98.7357C134.245 98.03 133.932 97.2274 133.999 96.3679C134.132 94.729 135.643 93.3413 136.288 92.8265C135.693 92.1417 135.459 91.4197 135.585 90.7007C135.879 89.0231 138.067 87.9809 138.148 87.9216C138.288 87.8427 138.468 87.9042 138.547 88.0648C138.625 88.2255 138.564 88.385 138.403 88.4637C138.383 88.4635 136.415 89.4275 136.164 90.8055C136.059 91.4046 136.314 92.0267 136.929 92.6518C136.989 92.7123 137.028 92.7926 137.007 92.8924C137.006 92.9724 136.946 93.0519 136.885 93.1114C136.865 93.1313 134.732 94.6739 134.578 96.4327C134.513 97.1122 134.787 97.7544 135.343 98.339L135.362 98.3592C135.362 98.3592 136.016 99.1845 136.815 99.2311C137.235 99.2345 137.657 99.0579 137.939 98.7402C138.04 98.641 138.18 98.6222 138.28 98.683L140.55 99.8416C140.69 99.9227 140.748 100.103 140.687 100.243C140.706 100.323 140.606 100.382 140.486 100.401Z" fill="black"/>
<path d="M145.849 95.2048C145.849 95.2048 141.314 92.1276 136.768 92.8505Z" fill="#FFCDB2"/>
<path d="M145.846 95.5047C145.786 95.5042 145.726 95.4837 145.686 95.4434C145.647 95.423 141.211 92.4467 136.805 93.1507C136.645 93.1694 136.485 93.0681 136.467 92.888C136.448 92.7078 136.55 92.5686 136.73 92.5501C141.356 91.8079 145.851 94.8247 146.03 94.9462C146.17 95.0473 146.208 95.2276 146.107 95.3668C146.046 95.4463 145.946 95.5055 145.846 95.5047Z" fill="black"/>
<path d="M100.167 102.572C100.167 102.572 83.8667 102.559 70.5723 114.05C59.4936 123.64 47.118 147.54 47.934 157.827C48.7499 168.114 55.0782 172.026 68.7352 169.997C82.3923 167.969 93.2964 165.058 91.5359 157.763L95.1933 155.653L89.4231 139.745L87.1361 140.587C87.1361 140.587 84.4582 135.425 76.7105 138.781C68.9628 142.138 63.0455 144.23 63.0455 144.23" fill="#00A3FF"/>
<path d="M62.1685 170.804C57.8286 170.768 54.5362 169.821 52.1713 167.962C49.4886 165.84 48.0156 162.528 47.6338 157.844C47.2537 152.961 49.8219 144.622 54.5165 135.52C59.211 126.418 65.1373 118.326 70.3744 113.809C77.2835 107.825 85.0067 105.008 90.2777 103.691C95.9896 102.258 100.13 102.251 100.17 102.252C100.33 102.253 100.469 102.374 100.467 102.554C100.466 102.714 100.325 102.853 100.165 102.852C100.005 102.85 83.8233 102.978 70.7706 114.272C65.5938 118.75 59.7079 126.802 55.0542 135.804C50.4005 144.807 47.8532 153.026 48.2343 157.789C48.5975 162.292 50.0117 165.464 52.5353 167.485C55.8141 170.092 61.1083 170.815 68.6777 169.697C77.8692 168.332 87.6457 166.352 90.5409 162.055C91.3911 160.802 91.6226 159.404 91.2355 157.821C91.1965 157.7 91.2576 157.561 91.3783 157.482L94.8147 155.49L89.2202 140.104L87.234 140.847C87.0935 140.906 86.934 140.845 86.8552 140.704C86.7568 140.503 84.1948 135.842 76.8084 139.042C69.1409 142.38 63.1835 144.491 63.1233 144.511C62.9628 144.569 62.8033 144.508 62.7246 144.347C62.6659 144.187 62.7272 144.027 62.8879 143.949C62.9079 143.949 62.908 143.929 62.928 143.929C62.9882 143.909 68.9257 141.798 76.573 138.48C83.5179 135.457 86.5874 139.202 87.2594 140.188L89.3056 139.444C89.3859 139.405 89.4659 139.406 89.5256 139.446C89.6052 139.487 89.6647 139.547 89.6842 139.607L95.4545 155.515C95.4933 155.655 95.4522 155.795 95.3315 155.874L91.8747 157.926C92.2421 159.469 91.9287 161.106 91.0379 162.419C88.0011 166.915 78.0843 168.934 68.7527 170.317C66.59 170.64 64.3684 170.822 62.1685 170.804Z" fill="black"/>
<path d="M142.754 141.041C140.222 137.6 134.236 135.831 129.156 128.509C124.076 121.188 133.548 114.845 133.548 114.845L132.289 112.255C132.289 112.255 139.832 111.936 145.475 104.262L148.614 106.828C148.614 106.828 158.037 106.485 160.557 113.786C163.078 121.086 172.023 125.44 171.082 135.292" fill="#00A3FF"/>
<path d="M142.752 141.341C142.652 141.34 142.572 141.3 142.513 141.219C141.524 139.871 139.973 138.778 138.163 137.503C135.419 135.561 131.979 133.133 128.895 128.687C127.55 126.756 127.087 124.732 127.484 122.636C128.278 118.502 132.183 115.454 133.169 114.742L132.028 112.392C131.989 112.312 131.99 112.192 132.03 112.112C132.091 112.033 132.171 111.974 132.272 111.954C132.352 111.955 139.755 111.535 145.216 104.08C145.257 104.02 145.337 103.981 145.417 103.961C145.497 103.942 145.577 103.983 145.637 104.023L148.697 106.508C149.797 106.497 158.415 106.688 160.819 113.668C161.756 116.395 163.598 118.691 165.558 121.107C168.706 125.032 171.973 129.079 171.382 135.295C171.361 135.454 171.22 135.573 171.06 135.572C170.9 135.571 170.781 135.41 170.783 135.25C171.351 129.274 168.163 125.328 165.095 121.503C163.194 119.147 161.234 116.711 160.257 113.883C157.854 106.863 148.712 107.129 148.612 107.128C148.532 107.127 148.472 107.107 148.412 107.066L145.511 104.702C140.659 111.103 134.449 112.312 132.747 112.518L133.829 114.707C133.888 114.848 133.847 115.007 133.726 115.086C133.686 115.126 128.919 118.347 128.083 122.741C127.728 124.658 128.172 126.541 129.398 128.331C132.422 132.696 135.803 135.084 138.507 137.006C140.356 138.321 141.947 139.434 142.996 140.863C143.095 141.004 143.073 141.184 142.932 141.282C142.872 141.322 142.812 141.341 142.752 141.341Z" fill="black"/>
<path d="M105.017 142.993C105.017 142.993 101.611 141.245 101.597 142.965C101.583 144.685 102.842 147.255 105.422 147.276" fill="#FFCDB2"/>
<path d="M105.399 147.576C102.679 147.554 101.261 144.882 101.277 142.962C101.26 142.602 101.422 142.263 101.724 142.086C102.689 141.514 104.88 142.592 105.139 142.734C105.298 142.795 105.357 142.976 105.295 143.135C105.234 143.295 105.054 143.353 104.894 143.292C104.894 143.292 104.874 143.292 104.874 143.272C103.998 142.824 102.522 142.312 102.04 142.608C101.979 142.648 101.879 142.727 101.877 142.987C101.863 144.647 103.084 146.977 105.404 146.996C105.564 146.997 105.703 147.138 105.701 147.298C105.7 147.458 105.559 147.577 105.399 147.576Z" fill="black"/>
<path d="M122.465 151.876C126 151.904 128.888 149.063 128.917 145.528C128.946 141.994 126.104 139.105 122.57 139.076C119.035 139.047 116.147 141.889 116.118 145.423C116.089 148.958 118.931 151.847 122.465 151.876Z" fill="white"/>
<path d="M122.462 152.176C118.763 152.145 115.787 149.121 115.817 145.421C115.848 141.721 118.872 138.746 122.572 138.776C126.272 138.806 129.247 141.831 129.217 145.531C129.187 149.23 126.162 152.206 122.462 152.176ZM122.567 139.376C119.207 139.349 116.445 142.066 116.417 145.426C116.39 148.786 119.107 151.548 122.467 151.576C125.827 151.603 128.589 148.886 128.617 145.526C128.644 142.166 125.927 139.403 122.567 139.376Z" fill="black"/>
<path d="M117.208 146.592C117.454 148.355 118.962 149.807 120.679 150.201C121.178 150.305 121.698 150.329 122.198 150.253C122.359 150.215 122.44 150.035 122.401 149.895C122.343 149.735 122.183 149.653 122.043 149.692C121.963 149.711 121.883 149.711 121.803 149.71C121.703 149.709 121.603 149.709 121.503 149.708C121.323 149.706 121.143 149.685 120.963 149.643C120.584 149.56 120.225 149.437 119.866 149.254C119.189 148.889 118.614 148.344 118.219 147.681C118.002 147.299 117.866 146.878 117.809 146.437C117.771 146.277 117.591 146.196 117.451 146.234C117.251 146.293 117.169 146.452 117.208 146.592Z" fill="black"/>
<path d="M125.087 141.817C126.561 142.649 127.367 144.295 127.133 145.973C127.049 146.473 126.885 146.972 126.622 147.409C126.541 147.549 126.599 147.729 126.738 147.81C126.878 147.891 127.058 147.833 127.139 147.714C128.154 145.962 127.931 143.78 126.584 142.269C126.247 141.886 125.829 141.563 125.392 141.299C125.053 141.116 124.749 141.634 125.087 141.817Z" fill="black"/>
<path d="M121.302 142.466L120.546 146.84C120.505 146.999 120.603 147.16 120.763 147.202C120.803 147.222 120.863 147.222 120.923 147.203L124.211 146.23C124.372 146.191 124.473 146.012 124.414 145.851C124.414 145.831 124.395 145.811 124.395 145.791L121.825 142.11C121.746 141.969 121.566 141.928 121.426 142.007C121.285 142.086 121.243 142.265 121.322 142.406L123.892 146.087L124.076 145.649L120.788 146.622L121.145 146.985L121.901 142.611C121.942 142.451 121.843 142.29 121.704 142.249C121.544 142.208 121.383 142.286 121.342 142.446L121.302 142.466Z" fill="black"/>
<path d="M112.929 144.017C112.683 142.335 111.895 140.789 110.705 139.599C108.681 137.602 105.747 136.858 103.001 137.636C102.62 137.733 102.775 138.334 103.156 138.217C104.78 137.751 106.539 137.865 108.094 138.538C110.385 139.556 111.988 141.69 112.348 144.173C112.406 144.333 112.566 144.414 112.706 144.376C112.887 144.317 112.968 144.158 112.929 144.017Z" fill="black"/>
<path d="M107.239 130.55C115.008 129.474 124.218 135.569 124.043 142.348C124.018 142.988 123.493 143.504 122.834 143.478C122.794 143.478 122.754 143.478 122.714 143.477C121.335 143.306 120.08 142.676 119.128 141.668C117.046 139.451 117.005 139.551 117.005 139.551C117.005 139.551 117.822 142.377 113.21 143.92" fill="#FFCDB2"/>
<path d="M113.228 144.2C113.068 144.199 112.929 144.057 112.93 143.897C112.931 143.777 113.012 143.658 113.132 143.619C117.404 142.194 116.764 139.729 116.745 139.608C116.726 139.548 116.726 139.468 116.767 139.409C116.808 139.309 116.888 139.25 116.988 139.23C117.169 139.192 117.269 139.193 119.37 141.45C120.263 142.397 121.478 143.007 122.777 143.158C123.016 143.18 123.277 143.122 123.458 142.963C123.639 142.805 123.741 142.586 123.763 142.346C123.824 139.806 122.505 137.195 120.063 134.995C116.588 131.887 111.581 130.266 107.297 130.851C107.136 130.87 106.977 130.748 106.959 130.588C106.94 130.428 107.061 130.269 107.221 130.25C111.667 129.627 116.853 131.329 120.467 134.539C123.048 136.86 124.445 139.631 124.383 142.351C124.38 142.751 124.197 143.149 123.875 143.407C123.552 143.684 123.151 143.801 122.732 143.757C121.293 143.586 119.958 142.915 118.967 141.847C118.194 141.02 117.698 140.516 117.4 140.234C117.332 141.273 116.677 143.088 113.348 144.181C113.288 144.2 113.248 144.2 113.228 144.2Z" fill="black"/>
<path d="M117.462 139.954C117.214 138.472 116.183 137.324 114.95 136.534C113.636 135.723 112.12 135.23 110.602 134.978C109.824 134.832 109.024 134.745 108.224 134.739C108.064 134.737 107.923 134.876 107.922 135.036C107.921 135.196 108.059 135.337 108.219 135.339C108.539 135.341 108.859 135.364 109.179 135.386C109.359 135.408 109.539 135.429 109.699 135.451L109.938 135.493C109.998 135.493 109.858 135.492 109.958 135.493L110.018 135.493L110.158 135.514C110.897 135.641 111.616 135.806 112.334 136.032C113.032 136.238 113.71 136.544 114.347 136.909C114.506 136.99 114.645 137.091 114.804 137.192L115.023 137.334L115.143 137.415L115.182 137.456C115.182 137.456 115.262 137.516 115.222 137.476C115.501 137.678 115.739 137.92 115.976 138.182C116.036 138.243 116.095 138.323 116.155 138.384C116.214 138.444 116.175 138.404 116.155 138.384L116.194 138.444C116.234 138.484 116.254 138.524 116.273 138.565C116.372 138.725 116.471 138.886 116.549 139.047C116.569 139.087 116.589 139.127 116.608 139.167C116.628 139.207 116.628 139.207 116.628 139.227C116.628 139.247 116.648 139.248 116.648 139.268C116.648 139.248 116.628 139.247 116.648 139.268C116.687 139.348 116.706 139.448 116.745 139.528C116.804 139.709 116.842 139.909 116.881 140.09C116.9 140.25 117.059 140.371 117.239 140.332C117.399 140.294 117.501 140.115 117.462 139.954Z" fill="black"/>
<path d="M96.5073 102.542C96.5073 102.542 93.8239 107.84 100.012 109.291C106.201 110.741 107.427 107.551 107.427 107.551C107.427 107.551 111.594 111.585 115.422 108.217C119.249 104.848 114.679 101.21 114.679 101.21L96.5073 102.542Z" fill="white"/>
<path d="M102.907 109.974C101.907 109.966 100.908 109.838 99.9496 109.59C97.9534 109.114 96.6406 108.223 96.0115 106.898C95.0485 104.81 96.1874 102.499 96.248 102.42C96.2889 102.32 96.3894 102.261 96.4893 102.262L114.641 100.93C114.721 100.931 114.781 100.951 114.84 100.992C114.94 101.072 117.165 102.871 117.226 105.191C117.256 106.391 116.707 107.487 115.599 108.458C112.215 111.45 108.536 108.9 107.503 108.032C107.077 108.688 105.866 109.999 102.907 109.974ZM96.7248 102.824C96.5005 103.342 95.8662 105.097 96.5736 106.642C97.1042 107.787 98.2978 108.577 100.094 109.011C105.923 110.379 107.106 107.569 107.167 107.449C107.229 107.29 107.409 107.211 107.549 107.272C107.589 107.292 107.608 107.313 107.648 107.333C107.807 107.494 111.657 111.126 115.243 107.995C116.21 107.143 116.698 106.207 116.666 105.187C116.621 103.386 114.993 101.853 114.596 101.51L96.7248 102.824Z" fill="black"/>
<path d="M88.5812 73.8161C92.7564 73.8503 96.1686 70.4933 96.2028 66.3182C96.2369 62.143 92.8799 58.7308 88.7048 58.6966C84.5296 58.6625 81.1174 62.0195 81.0833 66.1946C81.0491 70.3698 84.4061 73.782 88.5812 73.8161Z" fill="#6C32AD"/>
<path d="M88.7248 58.7168C92.8846 58.7508 96.2569 62.1584 96.2229 66.3183C96.1907 70.2582 93.124 73.5132 89.1815 73.801C88.9814 73.8194 88.7814 73.8177 88.5814 73.8161C84.4017 73.762 81.0694 70.3546 81.1236 66.1749C81.1756 62.2552 84.2223 59 88.1446 58.732C88.3248 58.7135 88.5248 58.7151 88.7248 58.7168ZM88.7297 58.1168C88.5097 58.115 88.3097 58.1134 88.0895 58.1316C83.6067 58.4549 80.2148 62.3474 80.538 66.8502C80.8435 71.0728 84.3368 74.3615 88.5765 74.4161C88.7965 74.4179 88.9965 74.4195 89.2166 74.4013C93.6993 74.0979 97.0912 70.2055 96.788 65.7029C96.5026 61.4604 92.9895 58.1516 88.7297 58.1168Z" fill="black"/>
<path d="M118.768 75.6628C118.768 75.6628 120.962 69.0605 116.625 66.145C112.289 63.2295 111.441 64.2026 109.255 62.5247C107.068 60.8467 101.807 60.9838 98.8208 64.1595C98.8208 64.1595 92.3463 63.4666 88.918 66.9187C85.4896 70.3708 85.2269 73.1487 85.9555 76.9948C86.6841 80.8409 86.367 82.9384 86.7848 85.6619C87.2025 88.3854 89.5458 95.3448 100.851 94.7771C112.156 94.2094 118.768 75.6628 118.768 75.6628Z" fill="#6C32AD"/>
<path d="M105.503 61.474C107.023 61.4865 108.38 61.8775 109.254 62.5447C111.441 64.2226 112.289 63.2495 116.625 66.1651C120.961 69.0806 118.767 75.6829 118.767 75.6829C118.767 75.6829 112.156 94.2295 100.851 94.7971C100.351 94.813 99.8504 94.829 99.3905 94.8252C89.3508 94.7432 87.1835 88.2853 86.7847 85.6819C86.367 82.9584 86.684 80.8809 85.9555 77.0149C85.2271 73.1488 85.4896 70.3908 88.9179 66.9387C91.4186 64.4191 95.5412 64.1127 97.5812 64.1294C98.3411 64.1356 98.8008 64.1794 98.8008 64.1794C100.617 62.2541 103.243 61.4556 105.503 61.474ZM105.508 60.8741C102.868 60.8525 100.3 61.8515 98.5859 63.5576C98.366 63.5358 98.0261 63.533 97.5861 63.5294C95.3061 63.5108 91.103 63.8765 88.4814 66.5151C84.8716 70.1458 84.6071 73.1437 85.3547 77.11C85.6805 78.8527 85.8661 80.6142 85.9116 82.3947C85.9424 83.515 86.0333 84.6357 86.1841 85.757C86.5258 87.9999 88.5059 95.3363 99.3656 95.425C99.8455 95.4289 100.346 95.413 100.866 95.3973C103.567 95.2593 106.236 94.1411 108.794 92.0419C110.787 90.3982 112.725 88.1539 114.548 85.3687C116.473 82.3843 118.079 79.2174 119.326 75.8874C119.326 75.8874 119.326 75.8874 119.326 75.8674C119.696 74.6104 119.907 73.3121 119.918 72.0121C119.921 69.1721 118.899 66.9837 116.949 65.6677C114.483 64.0075 113.086 63.5761 111.969 63.2269C111.111 62.9599 110.493 62.7548 109.618 62.0877C108.644 61.3197 107.148 60.8875 105.508 60.8741Z" fill="black"/>
<path d="M95.8565 81.8159C94.7565 81.8069 93.6575 81.6779 92.5797 81.4091C92.42 81.3678 92.3215 81.187 92.3828 81.0275C92.4241 80.8678 92.5848 80.7891 92.7246 80.8103C92.7646 80.8106 97.1556 81.9265 99.8291 80.2883C99.9697 80.2094 100.149 80.2509 100.248 80.3917C100.327 80.5324 100.286 80.712 100.145 80.8109C98.8582 81.6204 97.2564 81.8273 95.8565 81.8159Z" fill="black"/>
<path d="M96.7091 80.2228C96.5491 80.2215 96.4101 80.1003 96.4116 79.9204C96.4125 79.8004 96.4935 79.681 96.6138 79.642C102.754 77.2521 101.108 70.5584 101.03 70.2778C100.992 70.1175 101.093 69.9583 101.253 69.9196C101.414 69.8809 101.573 69.9822 101.612 70.1425C101.631 70.2227 103.47 77.6379 96.8291 80.2238C96.7891 80.2234 96.7491 80.2231 96.7091 80.2228Z" fill="white"/>
<path d="M78.2132 64.9912C78.0732 64.99 77.9738 64.9092 77.9348 64.7889C77.3892 63.0244 77.5023 61.4252 78.2334 60.0712C79.5331 57.6617 82.3 56.8243 82.4204 56.7853C82.5807 56.7466 82.74 56.8279 82.7987 56.9884C82.8574 57.1488 82.7561 57.308 82.5956 57.3667C82.5756 57.3665 79.9288 58.185 78.7709 60.3756C78.1209 61.5903 78.0292 63.0296 78.5161 64.6336C78.5548 64.794 78.4735 64.9533 78.313 65.012C78.2732 64.9917 78.2532 64.9915 78.2132 64.9912Z" fill="black"/>
<path d="M83.2121 67.6321C83.0721 67.6309 82.933 67.5298 82.9143 67.3696C82.6301 65.4273 82.9829 63.8701 83.9525 62.698C85.5279 60.8108 88.1488 60.7122 88.2488 60.713C88.4088 60.7143 88.5478 60.8355 88.5665 60.9956C88.5852 61.1558 88.4441 61.2946 88.2839 61.3133C88.2639 61.3131 85.823 61.4132 84.4094 63.0817C83.5409 64.1147 83.2495 65.5123 83.4951 67.2744C83.5138 67.4345 83.4125 67.5937 83.2323 67.6122L83.2121 67.6321Z" fill="white"/>
<path d="M110.244 93.1938L114.477 101.389C114.477 101.389 109.841 110.651 97.5686 102.331C97.5686 102.331 102.933 96.9142 100.061 88.6305C100.061 88.6305 96.4892 90.0213 95.1145 86.91C93.7399 83.7986 95.6762 81.8144 97.4973 81.6893C97.4973 81.6893 105.076 81.8512 103.173 67.5352C103.173 67.5352 110.185 66.1324 115.125 71.0529C120.065 75.9734 123.325 83.3203 120.205 88.135C117.086 92.9497 110.244 93.1938 110.244 93.1938Z" fill="#FFCDB2"/>
<path d="M105.655 67.3554C108.135 67.3757 112.05 67.9877 115.125 71.0729C120.044 76.0132 123.325 83.3403 120.205 88.155C117.086 92.9696 110.244 93.1937 110.244 93.1937L114.477 101.389C114.477 101.389 112.24 105.85 106.781 105.806C104.361 105.786 101.328 104.881 97.5687 102.33C97.5687 102.33 102.933 96.9141 100.061 88.6304C99.4789 88.8457 98.8581 88.9406 98.2381 88.9355C97.1382 88.9265 95.8413 88.5359 95.1146 86.9099C93.74 83.7986 95.6762 81.8144 97.4973 81.6892C97.6973 81.6909 105.058 81.651 103.153 67.535C103.994 67.4218 104.815 67.3485 105.655 67.3554ZM105.659 66.7754C104.78 66.7482 103.919 66.8212 103.058 66.9742C102.757 67.0317 102.535 67.3299 102.572 67.6502C103.515 74.6382 102.088 77.9266 100.756 79.4558C99.282 81.1238 97.5819 81.1299 97.5219 81.1294L97.4619 81.1289C96.2811 81.2193 95.2156 81.8906 94.6075 82.8857C93.8977 84.0799 93.8853 85.5998 94.5725 87.1655C95.2599 88.7112 96.5131 89.5414 98.2331 89.5555C98.7131 89.5594 99.1935 89.5033 99.6745 89.3873C101.993 96.9265 97.1923 101.887 97.152 101.927C96.91 102.165 96.9269 102.545 97.1651 102.767C97.185 102.787 97.2248 102.808 97.2446 102.828C100.706 105.176 103.916 106.382 106.796 106.406C110.215 106.474 113.37 104.64 115.035 101.653C115.116 101.474 115.118 101.274 115.039 101.113L111.219 93.7217C113.262 93.4784 118.17 92.4585 120.743 88.4794C122.282 86.0919 122.468 82.9733 121.276 79.4634C120.241 76.4149 118.207 73.2781 115.568 70.6565C112.374 67.4903 108.419 66.798 105.659 66.7754Z" fill="black"/>
<path d="M109.92 93.7111C108.66 93.6808 107.422 93.4507 106.225 93.0609C106.065 92.9996 105.987 92.839 106.048 92.6795C106.109 92.5199 106.27 92.4413 106.43 92.5026C106.45 92.5027 109.002 93.3836 111.045 93.0403C111.206 93.0016 111.365 93.1029 111.404 93.2632C111.442 93.4235 111.341 93.5827 111.181 93.6214L111.161 93.6213C110.74 93.6978 110.32 93.7344 109.92 93.7111Z" fill="black"/>
<path d="M99.051 87.4022C99.011 87.4019 98.971 87.4015 98.9311 87.3812C97.6162 86.7504 96.9025 85.9846 96.7897 85.1036C96.6401 83.8224 97.8481 82.8522 97.9084 82.8127C98.0294 82.6937 98.2292 82.7153 98.3282 82.8361C98.4273 82.9569 98.4256 83.1569 98.3048 83.2559C98.2848 83.2558 98.2846 83.2758 98.2646 83.2756C98.2445 83.2954 97.258 84.0874 97.3703 85.0284C97.4449 85.689 98.06 86.294 99.1757 86.8232C99.3352 86.8845 99.3937 87.065 99.3124 87.2243C99.2714 87.344 99.151 87.403 99.051 87.4022Z" fill="black"/>
<path d="M109.025 75.9033C106.084 78.4393 100.796 79.4562 100.662 81.0751C100.529 82.6941 102.019 83.9663 104.044 83.3628C106.069 82.7593 107.838 81.7138 111.336 79.4223C114.835 77.1308 118.116 74.5975 116.61 72.8651C115.104 71.1328 113.356 72.1585 109.025 75.9033Z" fill="#FFB49F"/>
<path d="M108.535 72.2791C108.455 72.2785 108.375 72.2378 108.316 72.1773C108.217 72.0565 108.218 71.8565 108.339 71.7575C109.628 70.648 111.505 71.0633 111.585 71.084C111.744 71.1253 111.823 71.3059 111.782 71.4656C111.741 71.6053 111.6 71.7041 111.44 71.6628C111.42 71.6626 109.763 71.3091 108.716 72.2006C108.675 72.2602 108.615 72.2798 108.535 72.2791Z" fill="black"/>
<path d="M113.321 81.3385C113.241 81.3379 113.181 81.3174 113.121 81.2569L108.435 77.0785C108.316 76.9575 108.298 76.7774 108.419 76.6583C108.54 76.5393 108.72 76.5208 108.839 76.6418L113.525 80.8202C113.644 80.9212 113.662 81.1213 113.541 81.2403C113.481 81.2999 113.401 81.3392 113.321 81.3385Z" fill="black"/>
<path d="M98.7046 90.6194C99.3894 90.625 99.949 90.0744 99.9546 89.3896C99.9602 88.7048 99.4096 88.1451 98.7248 88.1395C98.04 88.1339 97.4803 88.6845 97.4747 89.3694C97.4691 90.0542 98.0198 90.6139 98.7046 90.6194Z" fill="#00A3FF"/>
<path d="M98.7448 88.1397C99.4248 88.1452 99.9802 88.7098 99.9746 89.3898C99.9694 90.0297 99.465 90.5656 98.8247 90.6004L98.7247 90.5996C98.0447 90.594 97.4893 90.0295 97.4949 89.3495C97.5001 88.7095 98.0045 88.1736 98.6448 88.1389L98.7448 88.1397ZM98.7497 87.5397C98.7097 87.5394 98.6497 87.5389 98.6097 87.5386C97.5891 87.6102 96.8419 88.4841 96.9136 89.5048C96.9857 90.4654 97.7598 91.1917 98.7198 91.1996C98.7598 91.1999 98.8198 91.2004 98.8598 91.2007C99.8804 91.1291 100.628 90.2551 100.556 89.2345C100.484 88.2939 99.6896 87.5474 98.7497 87.5397Z" fill="black"/>
<path d="M104.64 81.4276C105.026 81.4307 105.342 81.1199 105.345 80.7333C105.349 80.3467 105.038 80.0308 104.651 80.0276C104.265 80.0245 103.949 80.3353 103.945 80.7219C103.942 81.1085 104.253 81.4244 104.64 81.4276Z" fill="black"/>
<path d="M113.285 75.898C113.672 75.9012 113.988 75.5904 113.991 75.2038C113.994 74.8172 113.683 74.5012 113.297 74.4981C112.91 74.4949 112.594 74.8058 112.591 75.1923C112.588 75.5789 112.899 75.8949 113.285 75.898Z" fill="black"/>
<path d="M111.746 88.0058C110.947 87.9793 110.168 87.7729 109.451 87.4271C109.292 87.3658 109.233 87.1853 109.294 87.0258C109.356 86.8663 109.536 86.8077 109.696 86.869C109.696 86.869 109.716 86.8692 109.715 86.8892C109.735 86.9094 112.305 88.1704 113.558 86.6006C113.659 86.4614 113.839 86.4229 113.979 86.524C114.118 86.6252 114.156 86.8055 114.055 86.9447C114.055 86.9647 114.035 86.9645 114.035 86.9845C113.489 87.6801 112.626 88.053 111.746 88.0058Z" fill="black"/>
<path d="M103.092 75.0148C103.032 75.0143 102.972 74.9938 102.933 74.9535C102.793 74.8523 102.755 74.672 102.856 74.5328C103.362 73.7969 104.621 73.9872 104.76 74.0284C104.92 74.0497 105.039 74.2106 105.017 74.3705C104.996 74.5303 104.835 74.649 104.675 74.6277C104.416 74.5856 103.616 74.539 103.373 74.8971C103.292 74.9764 103.192 75.0156 103.092 75.0148Z" fill="black"/>
<path d="M148.432 107.086C148.452 107.066 145.451 104.662 145.451 104.662C139.829 112.336 132.667 112.458 132.667 112.458L133.866 115.067L133.767 114.967C133.767 114.967 142.34 118.237 148.432 107.086Z" fill="#0094E7"/>
<path d="M86.9527 140.985C86.9527 140.985 84.4907 148.565 91.2186 157.42L94.8348 155.45L89.1592 140.203L86.9527 140.985Z" fill="#0094E7"/>
<path d="M86.6716 114.202C87.5663 114.209 88.2975 113.49 88.3048 112.595C88.3121 111.701 87.5927 110.969 86.6981 110.962C85.8034 110.955 85.0722 111.674 85.0649 112.569C85.0576 113.463 85.7769 114.195 86.6716 114.202Z" fill="#2CB3FF"/>
<path d="M65.7282 131.631C66.6229 131.639 67.3541 130.919 67.3614 130.025C67.3687 129.13 66.6494 128.399 65.7547 128.392C64.86 128.384 64.1288 129.104 64.1215 129.998C64.1142 130.893 64.8336 131.624 65.7282 131.631Z" fill="#2CB3FF"/>
<path d="M90.9226 132.437C91.8173 132.445 92.5485 131.725 92.5558 130.83C92.5631 129.936 91.8437 129.205 90.9491 129.197C90.0544 129.19 89.3232 129.909 89.3159 130.804C89.3086 131.699 90.0279 132.43 90.9226 132.437Z" fill="#2CB3FF"/>
<path d="M125.057 116.116C125.952 116.123 126.683 115.404 126.69 114.509C126.697 113.614 125.978 112.883 125.083 112.876C124.189 112.868 123.457 113.588 123.45 114.482C123.443 115.377 124.162 116.108 125.057 116.116Z" fill="#2CB3FF"/>
<path d="M111.184 125.002C112.079 125.01 112.81 124.29 112.817 123.396C112.825 122.501 112.105 121.77 111.211 121.763C110.316 121.755 109.585 122.475 109.578 123.369C109.57 124.264 110.29 124.995 111.184 125.002Z" fill="#2CB3FF"/>
<path d="M61.3537 152.996C62.2484 153.004 62.9796 152.284 62.9869 151.39C62.9942 150.495 62.2749 149.764 61.3802 149.756C60.4855 149.749 59.7543 150.468 59.747 151.363C59.7397 152.258 60.4591 152.989 61.3537 152.996Z" fill="#2CB3FF"/>
<path d="M68.6633 164.056C69.558 164.064 70.2892 163.344 70.2965 162.45C70.3038 161.555 69.5844 160.824 68.6898 160.817C67.7951 160.809 67.0639 161.529 67.0566 162.423C67.0493 163.318 67.7686 164.049 68.6633 164.056Z" fill="#2CB3FF"/>
<path d="M80.3713 150.952C81.266 150.959 81.9972 150.24 82.0045 149.345C82.0118 148.45 81.2924 147.719 80.3978 147.712C79.5031 147.704 78.7719 148.424 78.7646 149.318C78.7573 150.213 79.4766 150.944 80.3713 150.952Z" fill="#2CB3FF"/>
<path d="M137.757 128.42C138.652 128.427 139.383 127.708 139.39 126.813C139.397 125.918 138.678 125.187 137.783 125.18C136.889 125.173 136.158 125.892 136.15 126.787C136.143 127.681 136.862 128.412 137.757 128.42Z" fill="#2CB3FF"/>
<path d="M152.424 120.339C153.318 120.347 154.049 119.627 154.057 118.733C154.064 117.838 153.345 117.107 152.45 117.099C151.555 117.092 150.824 117.811 150.817 118.706C150.81 119.601 151.529 120.332 152.424 120.339Z" fill="#2CB3FF"/>
<path d="M163.32 133.029C164.215 133.036 164.946 132.317 164.953 131.422C164.961 130.527 164.241 129.796 163.347 129.789C162.452 129.781 161.721 130.501 161.713 131.396C161.706 132.29 162.425 133.021 163.32 133.029Z" fill="#2CB3FF"/>
<path d="M153.8 147.751C154.694 147.759 155.425 147.039 155.433 146.145C155.44 145.25 154.721 144.519 153.826 144.512C152.931 144.504 152.2 145.224 152.193 146.118C152.186 147.013 152.905 147.744 153.8 147.751Z" fill="#2CB3FF"/>
<path d="M103.002 171.771C103.152 170.889 102.559 170.052 101.677 169.901C100.795 169.751 99.9583 170.344 99.8077 171.226C99.6572 172.108 100.25 172.945 101.132 173.095C102.014 173.246 102.851 172.653 103.002 171.771Z" fill="#2CB3FF"/>
<path d="M170.017 123.703C171.067 124.852 171.977 126.139 172.686 127.525C173.415 128.891 173.963 130.356 174.33 131.879C174.698 133.422 174.865 135.003 174.832 136.583C174.778 138.203 174.525 139.801 174.053 141.357C173.58 142.913 172.928 144.408 172.056 145.801C171.955 145.98 171.834 146.139 171.732 146.298C171.651 146.437 171.69 146.618 171.829 146.719C171.968 146.8 172.148 146.761 172.25 146.622C172.25 146.622 172.25 146.602 172.27 146.602C173.201 145.21 173.934 143.676 174.467 142.08C175 140.504 175.313 138.847 175.407 137.188C175.5 135.548 175.374 133.907 175.047 132.305C174.72 130.722 174.192 129.197 173.484 127.732C172.776 126.286 171.887 124.938 170.857 123.71C170.718 123.549 170.599 123.408 170.46 123.267C170.182 123.004 169.759 123.421 170.017 123.703Z" fill="black"/>
<path d="M20.0344 81.7765C21.7136 84.3303 23.6542 86.7062 25.857 88.8243C28.0398 90.9422 30.4445 92.8219 33.0115 94.4229C35.5983 96.0441 38.3273 97.4064 41.1787 98.4697C44.0301 99.5331 46.9638 100.317 49.9803 100.762C52.9766 101.226 56.0157 101.351 59.0373 101.156C59.4175 101.139 59.7978 101.102 60.1781 101.065C60.3381 101.066 60.4793 100.928 60.4806 100.768C60.4819 100.608 60.343 100.466 60.183 100.465C57.1805 100.761 54.1608 100.716 51.1838 100.332C48.2069 99.9472 45.2724 99.2632 42.4403 98.28C39.6082 97.2969 36.8584 96.0344 34.291 94.4933C31.7035 92.9522 29.2981 91.1524 27.0945 89.1344C24.8909 87.1163 22.9093 84.86 21.2094 82.3861C20.9919 82.0843 20.7945 81.7627 20.597 81.461C20.3594 81.1591 19.837 81.4548 20.0344 81.7765Z" fill="black"/>
<path d="M32.5301 106.839C34.1462 107.333 35.783 107.726 37.4407 108.02C39.1183 108.313 40.8168 108.507 42.5161 108.601C44.1954 108.695 45.8955 108.689 47.5764 108.582C49.2773 108.476 50.9791 108.27 52.6615 107.984C54.324 107.677 55.9672 107.291 57.5713 106.804L58.1729 106.609C58.3334 106.55 58.4147 106.391 58.3758 106.25C58.3371 106.09 58.1578 106.009 58.0174 106.048C54.8289 107.082 51.5236 107.715 48.1814 107.967C46.5004 108.094 44.8201 108.12 43.1406 108.046C39.8016 107.919 36.4859 107.372 33.2732 106.465C33.0737 106.404 32.8742 106.342 32.6747 106.281C32.3157 106.158 32.1511 106.716 32.5301 106.839Z" fill="black"/>
<path d="M50.8088 151.13C50.1566 152.625 49.8033 154.242 49.7901 155.862C49.757 157.462 50.044 159.064 50.6118 160.549C51.1797 162.034 52.0288 163.381 53.1194 164.529C54.1704 165.638 55.4232 166.528 56.8179 167.18C58.2124 167.851 59.7293 168.244 61.2684 168.356C61.4483 168.378 61.6482 168.379 61.8282 168.381C62.0482 168.383 62.2297 168.204 62.2315 167.984C62.2333 167.764 62.0548 167.583 61.8348 167.581C61.4748 167.578 61.115 167.555 60.7553 167.512L60.6155 167.491L60.5355 167.49L60.5155 167.49L60.4755 167.49L60.4155 167.489L60.2556 167.468C60.076 167.426 59.8961 167.405 59.7165 167.363C58.9976 167.218 58.3195 166.992 57.6418 166.706L57.5819 166.686L57.4624 166.625L57.2034 166.503C57.0441 166.422 56.8847 166.34 56.7254 166.259C56.4069 166.076 56.0884 165.894 55.77 165.691C55.1731 165.306 54.6166 164.882 54.1207 164.378C53.8628 164.116 53.6049 163.853 53.3472 163.571C53.2284 163.43 53.1094 163.309 53.0105 163.169L52.9313 163.068C52.9315 163.048 52.9117 163.028 52.8917 163.028C52.9312 163.088 52.8917 163.028 52.8917 163.028C52.8323 162.947 52.773 162.867 52.7136 162.786C52.2787 162.163 51.904 161.519 51.5897 160.817C51.5503 160.737 51.5112 160.636 51.4718 160.556C51.4521 160.516 51.4718 160.556 51.4718 160.556C51.472 160.536 51.4521 160.516 51.4325 160.476C51.4128 160.435 51.3933 160.375 51.3736 160.335C51.2951 160.154 51.2366 159.974 51.178 159.793C51.061 159.433 50.9641 159.052 50.867 158.691C50.77 158.33 50.7131 157.95 50.6562 157.569C50.6367 157.509 50.6557 157.629 50.6564 157.549L50.6568 157.489L50.638 157.349L50.6204 157.049C50.6019 156.869 50.6035 156.669 50.585 156.489C50.5681 156.108 50.5714 155.708 50.5945 155.329C50.596 155.149 50.6176 154.949 50.6391 154.769C50.6399 154.669 50.6605 154.589 50.6614 154.489C50.6615 154.469 50.6618 154.429 50.682 154.409C50.682 154.409 50.6815 154.469 50.682 154.409C50.6825 154.349 50.7028 154.309 50.7033 154.249C50.8297 153.47 51.0159 152.712 51.2818 151.994C51.3024 151.914 51.3431 151.835 51.3837 151.755C51.404 151.715 51.4244 151.675 51.4449 151.615L51.4655 151.536C51.4655 151.536 51.486 151.476 51.4657 151.516C51.5673 151.316 51.5093 151.076 51.3301 150.974C51.1509 150.873 50.9104 150.931 50.8088 151.13C50.809 151.11 50.809 151.11 50.8088 151.13Z" fill="white"/>
<path d="M132.388 156.397C132.388 156.397 134.936 152.978 137.513 153.439C137.513 153.439 135.006 156.718 136.231 158.508" fill="#D9CFFF"/>
<path d="M136.229 158.788C136.129 158.788 136.029 158.747 135.99 158.666C134.943 157.118 136.303 154.689 136.971 153.694C134.79 153.756 132.667 156.559 132.647 156.579C132.546 156.718 132.366 156.737 132.227 156.636C132.087 156.534 132.069 156.354 132.17 156.215C132.271 156.076 134.859 152.657 137.575 153.139C137.675 153.16 137.755 153.221 137.814 153.321C137.853 153.421 137.832 153.521 137.771 153.621C137.751 153.661 135.406 156.742 136.493 158.33C136.592 158.471 136.55 158.651 136.409 158.75C136.329 158.769 136.289 158.789 136.229 158.788Z" fill="black"/>
<path d="M133.971 175.69L135.357 174.982C136.1 174.588 137.017 174.895 137.411 175.639L139.026 178.792C139.42 179.535 139.112 180.453 138.369 180.847L136.983 181.555C136.24 181.949 135.322 181.642 134.928 180.898L133.314 177.745C132.92 177.002 133.208 176.064 133.971 175.69Z" fill="#D9CFFF"/>
<path d="M136.259 182.049C135.579 182.044 134.962 181.659 134.647 181.056L133.033 177.903C132.58 176.999 132.929 175.902 133.833 175.449L135.219 174.741C136.122 174.288 137.22 174.637 137.672 175.541L139.287 178.694C139.739 179.598 139.39 180.695 138.486 181.148L137.101 181.856C136.84 181.974 136.559 182.052 136.259 182.049ZM136.036 175.127C135.836 175.126 135.655 175.164 135.474 175.263L134.089 175.971C133.486 176.287 133.24 177.025 133.555 177.627L135.169 180.78C135.484 181.383 136.222 181.629 136.825 181.314L138.211 180.605C138.813 180.29 139.059 179.552 138.744 178.95L137.13 175.796C136.913 175.395 136.496 175.131 136.036 175.127Z" fill="black"/>
<path d="M117.864 176.359L119.443 176.592C120.262 176.718 120.835 177.483 120.709 178.302L120.16 181.858C120.033 182.677 119.268 183.251 118.449 183.124L116.871 182.891C116.052 182.764 115.478 182 115.605 181.181L116.154 177.625C116.281 176.786 117.045 176.232 117.864 176.359Z" fill="#D9CFFF"/>
<path d="M118.647 183.446C118.567 183.445 118.467 183.444 118.387 183.423L116.809 183.19C115.83 183.042 115.158 182.117 115.306 181.138C115.306 181.138 115.306 181.138 115.306 181.118L115.855 177.563C116.003 176.584 116.928 175.911 117.907 176.059C117.907 176.059 117.907 176.059 117.927 176.059L119.505 176.292C120.484 176.44 121.157 177.366 121.009 178.345C121.009 178.345 121.009 178.345 121.008 178.365L120.459 181.92C120.292 182.799 119.527 183.453 118.647 183.446ZM118.472 182.824C119.131 182.929 119.735 182.474 119.84 181.815L120.389 178.26C120.495 177.6 120.04 176.997 119.4 176.891C119.4 176.891 119.4 176.891 119.38 176.891L117.802 176.638C117.143 176.533 116.539 176.988 116.434 177.647L115.885 181.203C115.78 181.862 116.235 182.466 116.874 182.571C116.874 182.571 116.874 182.571 116.894 182.571L118.472 182.824Z" fill="black"/>
<path d="M140.196 162.861C137.613 158.28 131.919 155.093 125.279 155.039C116.18 154.964 108.731 160.844 108.671 168.184C108.648 170.983 109.707 173.592 111.53 175.747L109.451 178.07C108.886 178.686 108.938 179.646 109.553 180.191L110.744 181.281C111.36 181.846 112.32 181.794 112.865 181.178L115.045 178.756C117.811 180.519 121.302 181.567 125.082 181.598C126.422 181.609 127.763 181.48 129.065 181.231L129.371 182.993C129.504 183.814 130.28 184.361 131.101 184.227L132.663 183.96C133.484 183.827 134.031 183.051 133.897 182.23L133.477 179.807C137.754 177.801 140.823 174.286 141.516 170.152L143.376 170.167L143.436 162.887L140.196 162.861V162.861Z" fill="#D9CFFF"/>
<path d="M130.818 184.565C129.938 184.558 129.203 183.932 129.05 183.05L128.802 181.588C127.561 181.798 126.32 181.908 125.06 181.898C121.539 181.909 118.087 180.941 115.082 179.136L113.064 181.36C112.398 182.094 111.257 182.165 110.522 181.499L109.351 180.429C108.617 179.763 108.546 178.623 109.212 177.888L111.149 175.764C109.308 173.509 108.369 170.901 108.391 168.201C108.452 160.721 116.042 154.683 125.301 154.759C131.741 154.812 137.636 157.88 140.378 162.582L143.438 162.607C143.598 162.609 143.737 162.75 143.735 162.91L143.676 170.19C143.675 170.35 143.533 170.488 143.373 170.487L141.774 170.474C141.001 174.468 138.133 177.904 133.836 179.989L134.218 182.193C134.37 183.174 133.722 184.109 132.741 184.261L132.721 184.261L131.158 184.528C131.038 184.547 130.938 184.546 130.818 184.565ZM129.048 180.95C129.188 180.952 129.327 181.053 129.346 181.193L129.651 182.955C129.766 183.616 130.382 184.061 131.023 183.947C131.023 183.947 131.023 183.947 131.043 183.947L132.605 183.68C133.266 183.565 133.711 182.949 133.597 182.308C133.597 182.308 133.597 182.308 133.597 182.288L133.197 179.864C133.178 179.724 133.239 179.605 133.359 179.546C137.676 177.521 140.544 174.084 141.217 170.109C141.238 169.97 141.359 169.851 141.519 169.852L143.079 169.865L143.133 163.185L140.193 163.161C140.093 163.16 139.994 163.099 139.935 162.999C137.332 158.377 131.577 155.37 125.277 155.319C116.337 155.246 109.03 161.006 108.971 168.166C108.95 170.806 109.909 173.354 111.771 175.549C111.87 175.67 111.869 175.83 111.768 175.949L109.669 178.272C109.225 178.768 109.259 179.529 109.735 179.973L110.906 181.042C111.403 181.486 112.163 181.452 112.607 180.976L114.786 178.574C114.887 178.475 115.048 178.436 115.167 178.517C118.012 180.32 121.425 181.288 125.044 181.318C126.364 181.328 127.685 181.219 128.987 180.97C129.028 180.93 129.048 180.93 129.048 180.95Z" fill="black"/>
<path d="M116.782 157.089C116.782 157.089 115.979 157.483 115.689 158.72C115.689 158.72 121.528 156.348 127.1 157.374C127.1 157.374 126.672 155.95 129.054 155.73C129.054 155.71 123.146 154.181 116.782 157.089Z" fill="#6C32AD"/>
<path d="M125.296 155.319C126.557 155.309 127.815 155.439 129.053 155.73C126.651 155.95 127.1 157.374 127.1 157.374C126.181 157.206 125.242 157.118 124.322 157.111C119.742 157.074 115.708 158.721 115.708 158.721C115.998 157.503 116.802 157.09 116.802 157.09C119.472 155.891 122.377 155.275 125.296 155.319ZM125.321 154.719C122.301 154.694 119.296 155.31 116.546 156.567L116.526 156.567C116.425 156.626 115.461 157.139 115.129 158.576C115.047 158.895 115.244 159.217 115.564 159.299C115.603 159.32 115.663 159.32 115.703 159.321C115.783 159.321 115.864 159.302 115.944 159.283C115.984 159.263 119.937 157.675 124.337 157.711C125.237 157.718 126.136 157.806 127.015 157.953C127.055 157.953 127.095 157.954 127.135 157.954C127.455 157.957 127.717 157.719 127.739 157.399C127.74 157.339 127.741 157.259 127.701 157.199C127.682 157.058 127.703 156.939 127.784 156.819C127.886 156.66 128.208 156.403 129.128 156.31C129.449 156.273 129.691 155.995 129.674 155.655C129.656 155.414 129.478 155.193 129.238 155.131C127.94 154.84 126.642 154.69 125.321 154.719Z" fill="black"/>
<path d="M143.158 169.945C143.92 169.952 144.55 168.479 144.565 166.657C144.58 164.834 143.974 163.352 143.212 163.346C142.45 163.339 141.82 164.812 141.805 166.634C141.79 168.457 142.396 169.939 143.158 169.945Z" fill="#6C32AD"/>
<path d="M143.212 163.345C143.972 163.352 144.58 164.837 144.565 166.657C144.55 168.477 143.918 169.951 143.158 169.945C142.398 169.939 141.79 168.454 141.805 166.634C141.82 164.814 142.452 163.339 143.212 163.345ZM143.217 162.745C141.917 162.735 141.221 164.689 141.205 166.629C141.189 168.569 141.853 170.535 143.153 170.545C144.453 170.556 145.149 168.601 145.165 166.662C145.181 164.722 144.517 162.756 143.217 162.745Z" fill="black"/>
<path d="M131.457 160.229C131.457 160.229 128.915 158.069 126.762 157.191C126.762 157.191 125.454 160.6 126.709 163.611" fill="#D9CFFF"/>
<path d="M126.707 163.911C126.587 163.91 126.487 163.829 126.428 163.728C125.133 160.638 126.421 157.228 126.482 157.069C126.503 156.989 126.564 156.929 126.644 156.91C126.724 156.871 126.804 156.871 126.884 156.912C129.037 157.79 131.539 159.91 131.659 159.991C131.798 160.092 131.816 160.272 131.715 160.412C131.614 160.551 131.434 160.569 131.295 160.468L131.275 160.448C131.255 160.428 128.971 158.509 126.958 157.593C126.691 158.47 126.009 161.145 127.01 163.493C127.069 163.654 127.007 163.813 126.867 163.892C126.807 163.912 126.766 163.931 126.707 163.911Z" fill="black"/>
<path d="M134.397 167.534C135.104 167.539 135.682 166.971 135.688 166.264C135.693 165.557 135.125 164.979 134.418 164.974C133.711 164.968 133.134 165.536 133.128 166.243C133.122 166.95 133.69 167.528 134.397 167.534Z" fill="#6C32AD"/>
<path d="M134.418 164.974C135.138 164.98 135.694 165.564 135.688 166.264C135.682 166.964 135.098 167.539 134.398 167.534C133.678 167.528 133.122 166.943 133.128 166.243C133.134 165.523 133.699 164.968 134.418 164.974ZM134.423 164.374C133.383 164.365 132.537 165.198 132.528 166.238C132.52 167.278 133.353 168.125 134.393 168.134C135.433 168.142 136.279 167.309 136.288 166.269C136.296 165.229 135.463 164.382 134.423 164.374Z" fill="black"/>
<path d="M110.681 162.1C110.944 161.722 111.008 161.262 110.891 160.841C110.774 160.42 110.518 160.038 110.18 159.776C109.544 159.25 108.767 158.924 107.947 158.837C107.168 158.751 106.367 158.844 105.645 159.158C104.902 159.452 104.178 159.967 103.792 160.683C103.569 161.062 103.505 161.501 103.582 161.942C103.678 162.343 103.956 162.665 104.335 162.828C104.693 162.991 105.113 163.014 105.474 162.877C105.855 162.72 106.178 162.443 106.361 162.064C106.728 161.247 106.515 160.306 105.84 159.72C105.165 159.095 104.187 158.887 103.306 158.979C102.385 159.072 101.522 159.445 100.817 160.059C100.172 160.634 99.7059 161.41 99.4791 162.248C99.4173 162.468 99.3955 162.688 99.3735 162.927C99.3722 163.087 99.5111 163.229 99.6711 163.23C99.8311 163.231 99.9722 163.092 99.9735 162.932C100.146 161.454 101.156 160.202 102.58 159.733C103.302 159.479 104.102 159.486 104.82 159.752C105.418 159.997 105.953 160.561 105.948 161.221C105.945 161.521 105.843 161.8 105.661 162.019C105.56 162.138 105.44 162.217 105.299 162.276C105.179 162.315 105.059 162.334 104.939 162.333C104.679 162.331 104.439 162.229 104.281 162.027C104.123 161.786 104.085 161.486 104.188 161.227C104.393 160.588 104.977 160.133 105.539 159.838C106.121 159.542 106.743 159.387 107.403 159.393C108.043 159.378 108.681 159.543 109.259 159.848C109.817 160.153 110.452 160.698 110.346 161.397C110.325 161.537 110.264 161.676 110.183 161.796C110.102 161.935 110.161 162.115 110.28 162.196C110.399 162.277 110.58 162.219 110.681 162.1Z" fill="black"/>
<path d="M110.69 168.42C111.112 170.584 112.075 172.591 113.502 174.263C115.86 177.002 119.267 178.61 122.866 178.68C123.086 178.682 123.268 178.503 123.269 178.283C123.271 178.063 123.093 177.882 122.873 177.88C121.793 177.871 120.714 177.682 119.677 177.374C119.417 177.292 119.158 177.209 118.899 177.107C118.779 177.066 118.66 177.005 118.52 176.964L118.38 176.903L118.181 176.821C117.683 176.597 117.185 176.333 116.728 176.03C116.489 175.888 116.27 175.726 116.051 175.564C115.833 175.402 115.674 175.281 115.435 175.079C115.038 174.736 114.661 174.373 114.324 173.99C112.857 172.358 111.854 170.35 111.451 168.206C111.393 167.986 111.174 167.864 110.954 167.922C110.753 167.98 110.631 168.199 110.69 168.42Z" fill="white"/>
<path d="M111.552 35.8625C111.627 26.6628 121.628 19.2642 133.908 19.3646C146.187 19.4649 156.066 27.0058 155.991 36.2255C155.915 45.4452 145.915 52.8238 133.635 52.7235C132.135 52.7112 130.636 52.579 129.158 52.3469L124.058 57.1854L122.932 50.5759C116.096 47.68 111.501 42.1623 111.552 35.8625Z" fill="#D9CFFF"/>
<path d="M133.908 19.3647C146.188 19.465 156.066 27.0059 155.991 36.2256C155.916 45.4453 145.915 52.8239 133.636 52.7235C132.136 52.7113 130.637 52.579 129.158 52.347L124.059 57.1855L122.933 50.576C116.096 47.6801 111.481 42.1622 111.533 35.8624C111.628 26.6629 121.628 19.2643 133.908 19.3647ZM133.913 18.7647C127.853 18.7152 122.119 20.4484 117.793 23.6331C113.406 26.8574 110.991 31.1978 110.953 35.8577C110.902 42.0975 115.275 47.8734 122.409 50.9918L123.478 57.2807C123.516 57.501 123.675 57.6823 123.874 57.744C123.934 57.7645 123.994 57.7649 124.054 57.7654C124.214 57.7667 124.355 57.7079 124.476 57.5889L129.334 52.9484C130.752 53.16 132.171 53.2716 133.611 53.2834C139.671 53.3329 145.405 51.5997 149.731 48.4149C154.118 45.1906 156.533 40.8502 156.571 36.1904C156.609 31.5305 154.245 27.1711 149.932 23.8557C145.658 20.6407 139.973 18.8342 133.913 18.7647Z" fill="black"/>
<path d="M145.4 35.099L123.601 34.9209C123.441 34.9196 123.302 34.7785 123.303 34.6185C123.305 34.4585 123.446 34.3196 123.606 34.3209L145.405 34.499C145.565 34.5003 145.704 34.6415 145.702 34.8015C145.701 34.9615 145.58 35.1005 145.4 35.099Z" fill="black"/>
<path d="M137.354 40.6935L124.674 40.5899C124.514 40.5886 124.376 40.4475 124.377 40.2875C124.378 40.1275 124.519 39.9886 124.679 39.9899L137.379 40.0937C137.539 40.095 137.678 40.2361 137.676 40.3961C137.675 40.5561 137.534 40.695 137.354 40.6935Z" fill="black"/>
<path d="M118.507 43.8796C118.269 43.6177 118.031 43.3557 117.814 43.0939C117.754 43.0334 117.715 42.9731 117.655 42.8926L117.576 42.792C117.556 42.7518 117.576 42.792 117.576 42.792L117.537 42.7317C117.438 42.5908 117.339 42.45 117.24 42.3092C116.865 41.7461 116.529 41.1434 116.235 40.521C116.195 40.4406 116.176 40.3805 116.136 40.3001L116.097 40.1798C116.097 40.1798 116.078 40.1197 116.078 40.1597C116.077 40.1997 116.058 40.1195 116.058 40.1195C115.999 39.959 115.92 39.7984 115.882 39.638C115.764 39.3171 115.667 39.0163 115.59 38.6756C115.512 38.355 115.435 38.0343 115.378 37.6939C115.358 37.6137 115.359 37.5337 115.34 37.4535C115.34 37.4135 115.32 37.3734 115.321 37.3334C115.321 37.2934 115.321 37.2934 115.321 37.2734C115.322 37.2134 115.321 37.3334 115.321 37.2734C115.302 37.1132 115.284 36.9531 115.265 36.7729C115.211 36.1124 115.216 35.4325 115.301 34.7731C115.302 34.6931 115.323 34.6133 115.323 34.5333C115.324 34.4933 115.324 34.4533 115.344 34.4135C115.344 34.4935 115.345 34.3735 115.345 34.3535C115.366 34.1936 115.408 34.034 115.429 33.8941C115.491 33.5746 115.574 33.2753 115.656 32.976C115.739 32.6766 115.841 32.3575 115.964 32.0585C115.984 31.9786 116.025 31.919 116.045 31.8391L116.086 31.7394C116.086 31.7194 116.147 31.6199 116.107 31.6796C116.168 31.5201 116.249 31.3808 116.311 31.2213C116.595 30.6436 116.92 30.0862 117.304 29.5493C117.405 29.4101 117.486 29.2908 117.587 29.1516C117.608 29.1118 117.628 29.092 117.648 29.0521C117.669 29.0123 117.709 28.9726 117.689 29.0124L117.85 28.8138C118.072 28.5556 118.294 28.2974 118.516 28.0592C118.98 27.583 119.464 27.1469 119.987 26.7511L120.068 26.6918L120.168 26.6126L120.39 26.4544C120.591 26.3361 120.653 26.0966 120.534 25.9156C120.415 25.7346 120.176 25.6527 119.995 25.7712C118.829 26.5817 117.8 27.5733 116.931 28.7062C116.122 29.7797 115.473 30.9744 115.042 32.2709C114.611 33.5475 114.4 34.9058 114.449 36.2662C114.498 37.6667 114.787 39.0291 115.316 40.3334C115.865 41.678 116.635 42.9243 117.606 44.0123C117.725 44.1532 117.844 44.2742 117.963 44.4152C118.121 44.5765 118.361 44.5785 118.523 44.4198C118.644 44.2808 118.646 44.0208 118.507 43.8796Z" fill="white"/>
<path d="M141.329 26.6055C141.169 26.6042 141.03 26.483 141.032 26.303C141.033 26.1431 141.154 26.004 141.334 26.0055C150.619 25.4613 158.141 20.3626 162.835 16.2008C165.877 13.5056 168.582 10.4676 170.889 7.14633C170.97 7.00698 171.151 6.94846 171.29 7.0296C171.429 7.11074 171.488 7.29122 171.407 7.43057L171.387 7.4504C171.366 7.49024 168.389 12.0261 163.231 16.6241C158.457 20.8652 150.794 26.0428 141.349 26.6056L141.329 26.6055Z" fill="black"/>
<path d="M152.389 33.9561C151.849 33.9517 151.29 33.9271 150.71 33.8624C150.55 33.8411 150.431 33.7001 150.433 33.5401C150.454 33.3803 150.595 33.2614 150.755 33.2627C161.346 34.3693 166.983 25.035 167.023 24.9554C167.105 24.816 167.285 24.7375 167.425 24.8186C167.564 24.8998 167.622 25.0803 167.561 25.2198C167.561 25.2398 167.541 25.2396 167.541 25.2596C166.386 27.0702 164.953 28.6586 163.282 30.005C160.987 31.8863 157.289 33.9961 152.389 33.9561Z" fill="black"/>
</svg>
