<svg width="504" height="467" viewBox="0 0 504 467" fill="none" xmlns="http://www.w3.org/2000/svg">
<path d="M421.74 465.324L147.375 464.904C147.11 464.902 146.855 465.005 146.666 465.192C146.477 465.378 146.369 465.631 146.367 465.896C146.365 466.162 146.469 466.417 146.655 466.606C146.841 466.795 147.094 466.902 147.36 466.904L421.719 467.324C421.985 467.326 422.24 467.223 422.429 467.037C422.618 466.851 422.725 466.597 422.727 466.332C422.729 466.067 422.626 465.811 422.44 465.623C422.253 465.434 422 465.326 421.735 465.324L421.74 465.324Z" fill="black"/>
<path d="M459.594 453.757L420.16 453.457C419.961 453.455 419.77 453.533 419.628 453.673C419.486 453.812 419.406 454.002 419.404 454.201C419.403 454.4 419.48 454.591 419.62 454.733C419.76 454.875 419.95 454.955 420.149 454.957L459.583 455.257C459.781 455.259 459.973 455.181 460.115 455.042C460.256 454.902 460.337 454.712 460.338 454.513C460.34 454.314 460.262 454.123 460.123 453.981C459.983 453.839 459.793 453.759 459.594 453.757Z" fill="black"/>
<path d="M374.882 302.698C373.29 302.708 371.698 302.609 370.119 302.401C370.021 302.386 369.927 302.351 369.842 302.299C369.757 302.247 369.683 302.179 369.624 302.098C369.566 302.018 369.523 301.926 369.5 301.83C369.477 301.733 369.473 301.632 369.488 301.534C369.504 301.436 369.539 301.341 369.591 301.256C369.643 301.171 369.711 301.097 369.791 301.039C369.872 300.98 369.963 300.938 370.06 300.915C370.157 300.892 370.257 300.888 370.356 300.903C370.446 300.904 379.55 302.293 391.923 298.777C403.338 295.529 419.956 287.336 434.308 266.719C434.421 266.556 434.595 266.444 434.791 266.408C434.986 266.373 435.188 266.416 435.352 266.53C435.516 266.643 435.627 266.817 435.663 267.013C435.698 267.208 435.655 267.41 435.542 267.574C420.911 288.593 403.927 296.939 392.256 300.245C386.609 301.875 380.76 302.701 374.882 302.698Z" fill="black"/>
<path d="M404.575 314.254C396.15 314.19 390.652 312.038 390.422 311.941C390.326 311.909 390.237 311.857 390.161 311.789C390.085 311.721 390.023 311.638 389.981 311.545C389.938 311.453 389.914 311.352 389.912 311.25C389.909 311.148 389.927 311.047 389.965 310.952C390.003 310.857 390.059 310.771 390.132 310.699C390.204 310.627 390.29 310.571 390.385 310.533C390.48 310.496 390.581 310.478 390.683 310.481C390.785 310.484 390.885 310.507 390.978 310.551C391.202 310.637 413.577 319.223 436.408 301.561C436.566 301.447 436.762 301.398 436.955 301.426C437.148 301.454 437.323 301.556 437.442 301.71C437.561 301.865 437.615 302.059 437.593 302.253C437.571 302.447 437.474 302.625 437.324 302.748C425.036 312.255 412.955 314.253 404.985 314.257L404.575 314.254Z" fill="black"/>
<path d="M329.668 230.246C339.788 230.323 348.055 222.182 348.132 212.061C348.209 201.941 340.067 193.674 329.947 193.597C319.827 193.52 311.56 201.662 311.483 211.782C311.406 221.902 319.548 230.169 329.668 230.246Z" fill="#6C32AD"/>
<path d="M329.947 193.592C333.572 193.62 337.108 194.722 340.107 196.759C343.106 198.796 345.434 201.677 346.796 205.037C348.157 208.398 348.492 212.086 347.757 215.636C347.022 219.187 345.251 222.439 342.668 224.983C340.084 227.527 336.805 229.247 333.243 229.927C329.682 230.606 325.999 230.215 322.661 228.801C319.322 227.387 316.478 225.015 314.487 221.985C312.497 218.955 311.449 215.402 311.478 211.777C311.496 209.37 311.989 206.991 312.927 204.774C313.865 202.557 315.23 200.547 316.946 198.859C318.661 197.17 320.692 195.836 322.922 194.932C325.153 194.029 327.54 193.573 329.947 193.592ZM329.958 192.092C326.036 192.061 322.193 193.194 318.915 195.348C315.636 197.502 313.07 200.579 311.541 204.191C310.012 207.803 309.589 211.788 310.324 215.641C311.06 219.494 312.922 223.042 315.674 225.836C318.426 228.631 321.946 230.547 325.787 231.341C329.628 232.135 333.619 231.772 337.254 230.298C340.889 228.825 344.005 226.306 346.208 223.061C348.412 219.816 349.603 215.99 349.632 212.068C349.665 206.812 347.613 201.757 343.925 198.013C340.237 194.268 335.214 192.139 329.958 192.092Z" fill="black"/>
<path d="M324.302 278.332C324.302 278.332 323.613 295.187 335.85 293.055C348.086 290.923 374.244 286.127 379.104 304.495C383.964 322.862 381.714 326.175 395.035 327.387C408.356 328.598 429.728 353.957 398.504 374.72C367.28 395.482 299.191 292.776 299.191 292.776L302.157 282.748L324.302 278.332Z" fill="#6C32AD"/>
<path d="M324.301 278.332C324.301 278.332 323.688 293.167 333.723 293.244C334.436 293.246 335.148 293.183 335.85 293.055C340.947 292.169 348.467 290.816 355.867 290.872C366.197 290.951 376.265 293.783 379.099 304.495C383.959 322.857 381.709 326.175 395.03 327.387C408.351 328.598 429.728 353.957 398.504 374.72C395.662 376.603 392.311 377.57 388.903 377.492C355.189 377.235 299.191 292.776 299.191 292.776L302.157 282.748L324.301 278.332ZM324.313 276.832C324.21 276.831 324.108 276.84 324.008 276.859L301.868 281.281C301.601 281.334 301.354 281.459 301.152 281.643C300.951 281.826 300.803 282.061 300.725 282.322L297.764 292.35C297.701 292.56 297.685 292.782 297.717 292.999C297.749 293.216 297.828 293.423 297.949 293.606C307.935 308.327 318.726 322.487 330.272 336.019C354.736 364.426 374.447 378.857 388.892 378.967C392.599 379.045 396.242 377.991 399.335 375.946C417.151 364.081 417.071 351.521 415.441 345.068C412.747 334.437 402.776 326.556 395.156 325.863C385.413 324.974 385.098 323.606 382.679 312.937C382.104 310.408 381.451 307.538 380.537 304.081C377.981 294.406 369.678 289.448 355.868 289.342C348.574 289.287 341.043 290.6 336.067 291.467L335.596 291.548C334.984 291.66 334.362 291.715 333.74 291.714C332.869 291.737 332.004 291.576 331.2 291.242C330.396 290.907 329.672 290.407 329.074 289.773C325.533 286.061 325.801 278.438 325.806 278.363C325.815 278.162 325.782 277.961 325.711 277.773C325.64 277.585 325.532 277.412 325.393 277.267C325.254 277.121 325.088 277.005 324.903 276.925C324.718 276.845 324.519 276.803 324.318 276.802L324.313 276.832Z" fill="black"/>
<path d="M401.818 372.345C400.835 344.497 358.472 313.223 344.625 308.117C330.779 303.012 314.174 295.115 312.005 288.988C309.837 282.861 320.018 280.754 320.018 280.754L317.065 279.776L302.167 282.748L299.191 292.776C299.191 292.776 367.285 395.487 398.505 374.72C399.686 373.934 400.782 373.137 401.818 372.345Z" fill="#59298F"/>
<path d="M258.247 239.212C258.247 239.212 251.962 223.549 262.021 215.85C272.079 208.152 274.277 210.389 279.311 205.982C284.345 201.575 297.119 201.117 304.844 208.401C304.844 208.401 320.414 205.74 329.24 213.587C338.065 221.435 339.129 228.103 337.943 237.539C336.756 246.976 337.833 251.979 337.227 258.64C336.621 265.3 331.995 282.505 304.541 282.836C277.088 283.167 258.247 239.212 258.247 239.212Z" fill="#6C32AD"/>
<path d="M290.036 202.788C295.111 202.827 300.703 204.51 304.844 208.401C306.996 208.077 309.171 207.926 311.347 207.951C316.657 207.991 324.1 208.993 329.25 213.587C338.075 221.435 339.139 228.103 337.953 237.539C336.766 246.976 337.843 251.979 337.237 258.64C336.631 265.3 332.005 282.505 304.552 282.836L304.052 282.832C276.852 282.625 258.278 239.212 258.278 239.212C258.278 239.212 251.992 223.549 262.051 215.851C272.11 208.152 274.308 210.389 279.341 205.982C281.677 203.94 285.676 202.745 290.066 202.779L290.036 202.788ZM290.077 201.279C285.333 201.242 280.952 202.579 278.355 204.854C276.341 206.639 274.837 207.203 272.831 207.982C270.188 208.992 266.898 210.257 261.15 214.659C256.623 218.124 254.461 223.608 254.904 230.512C255.119 233.676 255.789 236.793 256.893 239.767L256.893 239.802C260.398 247.576 264.709 254.961 269.755 261.836C274.512 268.272 279.483 273.41 284.529 277.139C290.944 281.863 297.505 284.283 304.035 284.332L304.57 284.336C316.847 284.19 326.098 280.75 332.089 274.116C335.893 269.845 338.226 264.467 338.746 258.771C338.955 256.05 339.012 253.32 338.918 250.592C338.76 246.296 338.94 241.994 339.456 237.726C340.675 227.99 339.586 220.726 330.258 212.47C324.745 207.583 316.933 206.493 311.349 206.451C309.342 206.433 307.337 206.55 305.346 206.8C301.372 203.32 295.842 201.308 290.068 201.264L290.077 201.279Z" fill="black"/>
<path d="M121.257 248.654L121.185 258.099C121.185 258.099 104.453 266.876 112.041 291.35C119.63 315.823 135.909 366.509 219.822 359.928C219.822 359.928 196.024 421.954 203.469 465.306L377.316 464.406C377.316 464.406 409.584 456.876 408.084 435.204C406.584 413.532 403.257 415.757 403.91 399.662C404.562 383.566 388.381 324.001 313.581 300.661C313.581 300.661 288.969 323.244 272.478 300.902C272.478 300.902 214.627 312.682 195.756 311.428C176.885 310.174 176.354 306.28 177.587 290.184C178.82 274.088 173.38 259.606 155.656 252.806L154.601 245.578C154.601 245.578 146.776 252.198 121.257 248.654Z" fill="#FFAD00"/>
<path d="M154.601 245.578L155.656 252.806C173.38 259.606 178.819 274.088 177.587 290.184C176.354 306.28 176.879 310.179 195.755 311.428C196.575 311.485 197.47 311.511 198.43 311.519C219.549 311.68 272.478 300.902 272.478 300.902C277.887 308.229 284.163 310.747 290.163 310.792C302.463 310.886 313.581 300.681 313.581 300.681C388.405 324.021 404.587 383.571 403.909 399.677C403.231 415.782 406.578 413.577 408.083 435.249C409.588 456.922 377.315 464.451 377.315 464.451L203.468 465.351C196.023 421.974 219.821 359.973 219.821 359.973C214.318 360.406 209.101 360.591 204.156 360.554C133.818 360.018 119.131 314.285 112.041 291.395C104.452 266.901 121.184 258.144 121.184 258.144L121.257 248.654C125.649 249.286 130.077 249.632 134.514 249.69C149.584 249.805 154.591 245.578 154.591 245.578L154.601 245.578ZM154.602 244.078C154.25 244.075 153.907 244.196 153.635 244.42C153.589 244.46 148.67 248.298 134.525 248.19C130.149 248.13 125.781 247.79 121.448 247.17C121.385 247.165 121.321 247.164 121.258 247.169C120.86 247.166 120.477 247.321 120.194 247.6C119.91 247.879 119.749 248.26 119.746 248.657L119.681 257.262C116.759 259.206 114.301 261.768 112.478 264.767C109.365 269.824 106.513 278.617 110.602 291.809C113.926 302.55 119.499 320.528 133.271 335.348C140.89 343.489 150.18 349.885 160.504 354.096C172.881 359.23 187.561 361.897 204.135 362.024C208.46 362.057 212.981 361.916 217.604 361.626C213.593 372.912 210.183 384.403 207.386 396.049C202.774 415.28 198.088 442.98 201.981 465.62C202.04 465.967 202.22 466.281 202.488 466.509C202.755 466.737 203.095 466.863 203.447 466.866L377.288 465.966C377.401 465.966 377.514 465.953 377.624 465.928C383.351 464.461 388.855 462.227 393.985 459.288C404.823 452.975 410.202 444.631 409.549 435.161C408.833 424.855 407.696 419.836 406.781 415.809C405.766 411.301 405.025 408.08 405.379 399.753C405.684 392.525 402.496 373.23 388.266 352.071C380.614 340.748 371.137 330.773 360.221 322.552C347.036 312.556 331.48 304.722 313.997 299.264C313.855 299.221 313.709 299.199 313.562 299.195C313.19 299.199 312.833 299.341 312.559 299.593C312.453 299.687 301.719 309.395 290.169 309.308C283.725 309.258 278.193 306.141 273.679 300.047C273.541 299.859 273.361 299.707 273.154 299.601C272.946 299.495 272.717 299.439 272.484 299.437C272.38 299.436 272.276 299.447 272.174 299.47C271.648 299.576 219.16 310.212 198.436 310.054C197.496 310.046 196.626 310.015 195.847 309.964C186.931 309.371 182.655 308.218 180.603 305.848C178.278 303.165 178.476 298.196 179.081 290.336C180.519 271.521 172.895 258.203 157.009 251.766L156.082 245.394C156.043 245.13 155.933 244.881 155.765 244.673C155.597 244.465 155.377 244.306 155.126 244.212C154.967 244.149 154.798 244.116 154.627 244.113L154.602 244.078Z" fill="black"/>
<path d="M207.557 360.495C211.478 360.444 215.559 360.266 219.822 359.928C219.822 359.928 224.932 345.526 244.514 326.24C244.514 326.24 217.889 339.978 207.557 360.495Z" fill="#E89D00"/>
<path d="M346.363 444.224C339.728 440.284 334.166 441.906 335.89 434.144C337.614 426.382 349.38 413.142 350.583 400.935C351.786 388.729 346.363 371.467 326.517 352.431C326.517 352.431 346.875 377.026 342.287 396.427C337.699 415.828 323.128 432.382 334.166 441.906C334.166 441.906 323.946 457.549 327.277 464.71L350.993 464.59C351.226 462.327 352.481 447.831 346.363 444.224Z" fill="#E89D00"/>
<path d="M219.816 360.678C219.715 360.677 219.615 360.656 219.522 360.616C219.43 360.576 219.347 360.518 219.278 360.446C219.209 360.374 219.155 360.288 219.119 360.195C219.084 360.101 219.067 360.002 219.071 359.902C219.074 359.802 219.097 359.704 219.139 359.613C226.456 343.073 245.474 323.682 245.665 323.489C245.734 323.415 245.816 323.356 245.908 323.314C245.999 323.273 246.098 323.251 246.199 323.248C246.299 323.246 246.399 323.264 246.493 323.301C246.586 323.338 246.671 323.394 246.743 323.464C246.814 323.535 246.871 323.619 246.909 323.712C246.948 323.805 246.967 323.905 246.966 324.005C246.965 324.106 246.944 324.205 246.904 324.297C246.864 324.39 246.805 324.473 246.732 324.542C246.546 324.736 227.714 343.933 220.51 360.218C220.452 360.355 220.356 360.471 220.233 360.553C220.109 360.635 219.964 360.678 219.816 360.678Z" fill="black"/>
<path d="M341.051 442.574C340.915 442.572 340.783 442.535 340.667 442.466C331.917 437.104 334.5 432.804 339.646 424.228C341.033 421.908 342.613 419.28 344.272 416.163C352.074 401.502 351.024 394.994 346.047 380.135C341.157 365.598 326.207 353.113 326.058 352.982C325.904 352.856 325.807 352.673 325.788 352.475C325.769 352.277 325.829 352.08 325.956 351.926C326.082 351.773 326.265 351.676 326.463 351.657C326.661 351.638 326.858 351.698 327.012 351.824C327.643 352.329 342.449 364.702 347.465 379.646C352.482 394.59 353.642 401.744 345.602 416.858C343.923 420.01 342.338 422.653 340.935 424.988C335.708 433.678 333.951 436.63 341.436 441.187C341.575 441.273 341.682 441.402 341.741 441.555C341.799 441.707 341.806 441.875 341.761 442.032C341.716 442.189 341.62 442.327 341.489 442.425C341.358 442.523 341.199 442.575 341.036 442.574L341.051 442.574Z" fill="black"/>
<path d="M154.601 245.578C154.601 245.578 146.776 252.198 121.257 248.654L121.185 258.099C121.185 258.099 145.874 268.192 155.656 252.806L154.601 245.578Z" fill="#E89D00"/>
<path d="M137.982 337.924C149.053 348.304 164.87 356.694 187.979 359.505C187.532 320.446 137.982 337.924 137.982 337.924Z" fill="#E89D00"/>
<path d="M167.08 297.629C169.328 297.646 171.164 295.838 171.181 293.59C171.198 291.343 169.39 289.507 167.142 289.49C164.894 289.473 163.058 291.281 163.041 293.528C163.024 295.776 164.832 297.612 167.08 297.629Z" fill="#FFC140"/>
<path d="M203.767 338.91C206.014 338.927 207.85 337.119 207.868 334.871C207.885 332.623 206.076 330.787 203.829 330.77C201.581 330.753 199.745 332.561 199.728 334.809C199.711 337.057 201.519 338.893 203.767 338.91Z" fill="#FFC140"/>
<path d="M265.662 352.882C267.909 352.899 269.745 351.091 269.763 348.843C269.78 346.595 267.971 344.759 265.724 344.742C263.476 344.725 261.64 346.533 261.623 348.781C261.606 351.029 263.414 352.865 265.662 352.882Z" fill="#FFC140"/>
<path d="M228.316 398.099C230.564 398.116 232.4 396.308 232.417 394.06C232.434 391.812 230.626 389.976 228.378 389.959C226.131 389.942 224.295 391.75 224.278 393.998C224.26 396.246 226.069 398.082 228.316 398.099Z" fill="#FFC140"/>
<path d="M316.481 376.77C318.729 376.787 320.565 374.979 320.582 372.731C320.599 370.483 318.791 368.647 316.544 368.63C314.296 368.613 312.46 370.421 312.443 372.669C312.426 374.917 314.234 376.753 316.481 376.77Z" fill="#FFC140"/>
<path d="M278.36 392.48C280.608 392.497 282.444 390.689 282.461 388.441C282.478 386.193 280.67 384.357 278.422 384.34C276.175 384.323 274.339 386.131 274.322 388.379C274.304 390.627 276.113 392.463 278.36 392.48Z" fill="#FFC140"/>
<path d="M322.146 420.814C324.394 420.831 326.23 419.023 326.247 416.775C326.264 414.528 324.456 412.692 322.208 412.675C319.96 412.657 318.124 414.466 318.107 416.713C318.09 418.961 319.898 420.797 322.146 420.814Z" fill="#FFC140"/>
<path d="M214.848 459.498C217.096 459.515 218.932 457.707 218.949 455.459C218.966 453.211 217.158 451.375 214.91 451.358C212.662 451.341 210.826 453.149 210.809 455.397C210.792 457.645 212.6 459.481 214.848 459.498Z" fill="#FFC140"/>
<path d="M258.541 434.33C260.789 434.347 262.625 432.539 262.642 430.291C262.659 428.044 260.851 426.207 258.603 426.19C256.355 426.173 254.519 427.981 254.502 430.229C254.485 432.477 256.293 434.313 258.541 434.33Z" fill="#FFC140"/>
<path d="M304.357 458.68C306.605 458.697 308.441 456.889 308.458 454.641C308.475 452.393 306.667 450.557 304.419 450.54C302.171 450.523 300.335 452.331 300.318 454.579C300.301 456.827 302.109 458.663 304.357 458.68Z" fill="#FFC140"/>
<path d="M330.869 325.878C333.117 325.895 334.953 324.087 334.97 321.839C334.987 319.591 333.179 317.755 330.931 317.738C328.683 317.721 326.847 319.529 326.83 321.777C326.813 324.025 328.621 325.861 330.869 325.878Z" fill="#FFC140"/>
<path d="M355.037 369.563C357.285 369.58 359.121 367.772 359.138 365.524C359.155 363.277 357.347 361.441 355.099 361.424C352.851 361.407 351.015 363.215 350.998 365.462C350.981 367.71 352.789 369.546 355.037 369.563Z" fill="#FFC140"/>
<path d="M397.083 429.385C399.331 429.403 401.167 427.594 401.184 425.347C401.201 423.099 399.393 421.263 397.145 421.246C394.897 421.229 393.061 423.037 393.044 425.285C393.027 427.532 394.835 429.368 397.083 429.385Z" fill="#FFC140"/>
<path d="M362.175 417.119C364.423 417.136 366.259 415.328 366.276 413.08C366.293 410.833 364.485 408.996 362.237 408.979C359.99 408.962 358.154 410.77 358.136 413.018C358.119 415.266 359.928 417.102 362.175 417.119Z" fill="#FFC140"/>
<path d="M148.635 321.215C150.883 321.232 152.719 319.423 152.736 317.176C152.753 314.928 150.945 313.092 148.697 313.075C146.449 313.058 144.613 314.866 144.596 317.114C144.579 319.361 146.387 321.197 148.635 321.215Z" fill="#FFC140"/>
<path d="M126.336 282.184C128.584 282.201 130.42 280.392 130.437 278.145C130.454 275.897 128.646 274.061 126.398 274.044C124.151 274.027 122.315 275.835 122.298 278.083C122.28 280.33 124.089 282.166 126.336 282.184Z" fill="#FFC140"/>
<path d="M272.478 300.902C272.478 300.902 261.894 305.267 267.958 311.423C274.021 317.58 283.442 313.601 288.219 310.663C288.219 310.663 286.786 318.232 296.795 317.198C306.803 316.164 314.594 313.444 313.577 301.216L272.478 300.902Z" fill="white"/>
<path d="M313.577 301.216C314.594 313.444 306.798 316.164 296.795 317.198C296.165 317.264 295.532 317.296 294.899 317.294C286.974 317.233 288.219 310.663 288.219 310.663C285.27 312.485 280.523 314.719 275.908 314.684C274.432 314.712 272.966 314.439 271.6 313.881C270.233 313.324 268.994 312.495 267.958 311.443C261.894 305.287 272.478 300.922 272.478 300.922L313.577 301.236L313.577 301.216ZM313.588 299.736L272.489 299.422C272.29 299.421 272.092 299.46 271.909 299.538C271.261 299.803 265.563 302.265 264.69 306.538C264.274 308.59 265.014 310.591 266.885 312.495C268.058 313.689 269.462 314.632 271.011 315.267C272.561 315.901 274.223 316.213 275.897 316.184C280.057 316.216 284.129 314.572 286.8 313.202C287 314.289 287.47 315.309 288.167 316.167C289.589 317.898 291.852 318.791 294.887 318.814C295.576 318.817 296.264 318.782 296.948 318.709C301.452 318.244 306.584 317.388 310.225 314.615C314.002 311.744 315.585 307.326 315.073 301.112C315.042 300.738 314.872 300.389 314.596 300.134C314.32 299.879 313.959 299.737 313.583 299.736L313.588 299.736Z" fill="black"/>
<path d="M332.537 464.73C332.537 464.73 328.573 446.844 346.402 439.205C364.23 431.565 383.127 430.044 394.72 439.573C406.313 449.101 407.334 460.774 403.94 468.524C400.546 476.273 392.208 477.875 383.365 471.697C383.365 471.697 374.942 483.853 360.037 472.074C360.037 472.074 340.501 485.256 340.096 464.147L332.537 464.73Z" fill="#FFCDB2"/>
<path d="M374.125 432.936C382.05 432.996 389.225 435.051 394.74 439.563C406.328 449.091 407.354 460.765 403.96 468.514C401.965 473.079 398.247 475.511 393.722 475.476C390.567 475.452 387.021 474.23 383.385 471.687C383.385 471.687 379.528 477.258 372.408 477.204C369.013 477.178 364.873 475.871 360.057 472.065C360.057 472.065 353.97 476.173 348.526 476.132C344.211 476.099 340.301 473.469 340.117 464.137L332.547 464.72C332.547 464.72 328.583 446.834 346.412 439.195C355.748 435.201 365.386 432.869 374.125 432.936ZM374.137 431.436C365.517 431.37 355.73 433.576 345.832 437.815C336.04 442.011 332.55 449.214 331.34 454.49C330.546 457.955 330.462 461.546 331.095 465.044C331.168 465.375 331.351 465.672 331.615 465.885C331.878 466.099 332.206 466.217 332.546 466.22L332.676 466.221L338.679 465.767C339.34 475.477 344.319 477.615 348.499 477.647C353.099 477.682 357.964 475.094 359.958 473.904C364.209 477.071 368.387 478.688 372.382 478.719C374.508 478.713 376.61 478.264 378.553 477.399C380.496 476.535 382.237 475.275 383.665 473.7C387.059 475.83 390.5 476.967 393.695 476.991C398.88 477.031 403.117 474.163 405.321 469.129C407.311 464.461 407.703 459.266 406.433 454.352C404.978 448.486 401.245 442.973 395.704 438.42C390.164 433.868 382.877 431.502 374.137 431.436Z" fill="black"/>
<path d="M360.031 472.829C359.941 472.828 359.851 472.813 359.766 472.782C359.583 472.711 359.434 472.571 359.353 472.392C359.271 472.213 359.262 472.009 359.328 471.824C363.684 460.642 358.471 449.192 358.417 449.082C358.375 448.992 358.351 448.896 358.347 448.797C358.343 448.699 358.358 448.6 358.391 448.508C358.425 448.415 358.477 448.33 358.543 448.257C358.61 448.185 358.69 448.126 358.779 448.084C358.869 448.043 358.965 448.019 359.064 448.015C359.162 448.01 359.26 448.025 359.353 448.059C359.446 448.093 359.531 448.144 359.603 448.211C359.676 448.277 359.735 448.358 359.777 448.447C360.003 448.949 365.319 460.579 360.724 472.37C360.668 472.507 360.572 472.624 360.448 472.706C360.325 472.788 360.179 472.831 360.031 472.829Z" fill="black"/>
<path d="M383.36 473.007C383.292 473.017 383.223 473.016 383.155 473.006C382.968 472.946 382.811 472.816 382.719 472.642C382.627 472.468 382.606 472.265 382.662 472.077C387.602 455.014 379.291 447.91 379.207 447.84C379.128 447.778 379.062 447.701 379.014 447.613C378.965 447.525 378.934 447.429 378.924 447.329C378.913 447.229 378.923 447.128 378.952 447.032C378.981 446.936 379.029 446.847 379.093 446.77C379.157 446.693 379.236 446.629 379.325 446.583C379.414 446.537 379.512 446.509 379.612 446.502C379.712 446.494 379.812 446.506 379.908 446.538C380.003 446.57 380.09 446.621 380.166 446.687C380.538 446.995 389.317 454.492 384.104 472.493C384.053 472.648 383.953 472.782 383.819 472.875C383.684 472.968 383.523 473.014 383.36 473.007Z" fill="black"/>
<path d="M394.405 408.054C394.087 408.051 393.781 407.927 393.551 407.707C393.32 407.487 393.182 407.188 393.164 406.87C391.676 379.073 380.881 360.035 372.105 348.963C362.596 336.99 353.377 331.54 353.287 331.484C353.145 331.401 353.021 331.291 352.922 331.16C352.823 331.03 352.75 330.88 352.708 330.722C352.666 330.563 352.656 330.397 352.679 330.234C352.701 330.072 352.755 329.915 352.838 329.773C352.921 329.631 353.031 329.507 353.161 329.408C353.292 329.308 353.441 329.236 353.6 329.194C353.759 329.152 353.925 329.142 354.087 329.164C354.25 329.187 354.407 329.241 354.549 329.324C354.937 329.557 364.26 335.073 374.062 347.408C383.08 358.767 394.157 378.277 395.68 406.734C395.69 406.898 395.667 407.062 395.613 407.218C395.558 407.373 395.474 407.516 395.364 407.638C395.255 407.76 395.122 407.86 394.973 407.93C394.825 408.001 394.664 408.042 394.5 408.05L394.405 408.054Z" fill="white"/>
<path d="M400.933 470.056C400.839 470.055 400.744 470.04 400.654 470.014C400.4 469.939 400.186 469.766 400.059 469.533C399.933 469.301 399.904 469.028 399.978 468.774C402.159 461.445 401.767 455.127 398.816 449.999C394.118 441.823 384.396 439.389 384.277 439.358C384.019 439.296 383.796 439.134 383.657 438.907C383.519 438.68 383.476 438.408 383.538 438.15C383.601 437.892 383.763 437.669 383.99 437.531C384.216 437.392 384.488 437.349 384.747 437.412C385.176 437.515 395.397 440.063 400.544 448.987C403.781 454.612 404.239 461.456 401.889 469.338C401.828 469.545 401.702 469.726 401.53 469.856C401.358 469.985 401.149 470.055 400.933 470.056Z" fill="white"/>
<path d="M93.788 209.013C93.788 209.013 82.9616 234.747 122.326 248.797C122.326 248.797 143.975 255.492 154.601 245.578L154.622 242.803C154.622 242.803 170.244 233.477 167.549 222.901C167.549 222.901 156.469 218.926 143.602 231.604C143.602 231.604 137.086 212.113 116.536 211.957C116.536 211.957 108.245 206.894 104.876 211.313C104.876 211.318 101.029 206.294 93.788 209.013Z" fill="#FFCDB2"/>
<path d="M98.024 208.206C99.3222 208.204 100.606 208.481 101.788 209.018C102.97 209.555 104.023 210.339 104.875 211.318C105.916 209.961 107.414 209.497 108.999 209.509C112.559 209.537 116.536 211.962 116.536 211.962C137.085 212.118 143.602 231.609 143.602 231.609C151.602 223.734 158.908 222.29 163.293 222.323C164.734 222.301 166.169 222.499 167.549 222.911C170.244 233.482 154.622 242.813 154.622 242.813L154.601 245.588C149.993 249.888 143.314 251.062 137.224 251.016C132.183 250.929 127.175 250.186 122.325 248.807C82.9613 234.757 93.7876 209.023 93.7876 209.023C95.1376 208.494 96.574 208.22 98.0239 208.216L98.024 208.206ZM98.0354 206.716C96.401 206.72 94.7815 207.027 93.2583 207.619C93.068 207.692 92.8943 207.802 92.748 207.944C92.6016 208.085 92.4856 208.255 92.407 208.443C92.2492 208.812 88.6674 217.575 93.204 227.88C97.4115 237.412 107.039 244.945 121.82 250.223L121.88 250.224C126.87 251.647 132.024 252.411 137.213 252.496C145.213 252.556 151.413 250.604 155.628 246.666C155.776 246.526 155.895 246.358 155.976 246.171C156.058 245.984 156.1 245.783 156.101 245.579L156.116 243.624C159.322 241.544 171.619 232.787 169.002 222.527C168.941 222.289 168.823 222.069 168.658 221.888C168.493 221.706 168.286 221.568 168.055 221.485C166.516 221.013 164.914 220.785 163.305 220.808C158.7 220.773 151.764 222.221 144.157 229.018C142.789 226.072 141.025 223.326 138.914 220.858C136.22 217.642 132.861 215.049 129.069 213.256C125.277 211.463 121.142 210.512 116.947 210.47C115.817 209.836 112.321 208.035 109.011 208.009C107.542 207.954 106.096 208.381 104.891 209.223C102.972 207.605 100.545 206.714 98.0354 206.706L98.0354 206.716Z" fill="black"/>
<path d="M140.749 241.222L140.709 241.222C140.611 241.216 140.515 241.191 140.427 241.148C140.339 241.105 140.26 241.045 140.195 240.972C140.13 240.898 140.081 240.813 140.049 240.72C140.017 240.627 140.004 240.529 140.01 240.431C140.011 240.331 140.071 238.377 138.09 236.417C135.922 234.295 130.984 231.932 119.768 232.712C119.63 232.719 119.492 232.689 119.369 232.625C119.247 232.561 119.144 232.465 119.071 232.347C118.997 232.221 111.349 219.487 104.322 211.804C104.22 211.654 104.176 211.471 104.198 211.291C104.22 211.111 104.307 210.945 104.442 210.824C104.578 210.703 104.752 210.635 104.934 210.633C105.115 210.63 105.292 210.694 105.43 210.812C111.876 217.861 118.762 228.979 120.12 231.205C129.379 230.62 135.794 232.039 139.188 235.415C141.645 237.854 141.51 240.433 141.504 240.523C141.491 240.714 141.406 240.893 141.266 241.023C141.125 241.153 140.94 241.224 140.749 241.222Z" fill="black"/>
<path d="M130.292 228.927C130.142 228.925 129.996 228.879 129.873 228.793C129.75 228.708 129.655 228.587 129.601 228.447C129.567 228.367 126.259 220.161 116.071 211.993C115.989 211.933 115.92 211.858 115.869 211.77C115.817 211.683 115.784 211.586 115.771 211.486C115.757 211.386 115.765 211.284 115.792 211.186C115.819 211.088 115.866 210.997 115.93 210.918C115.993 210.84 116.072 210.774 116.161 210.727C116.251 210.679 116.349 210.65 116.45 210.641C116.551 210.632 116.652 210.644 116.749 210.676C116.845 210.708 116.934 210.758 117.01 210.825C127.531 219.261 130.883 227.552 130.995 227.902C131.035 227.995 131.056 228.095 131.056 228.197C131.056 228.298 131.036 228.398 130.996 228.491C130.957 228.584 130.899 228.668 130.826 228.738C130.753 228.809 130.667 228.863 130.573 228.899C130.482 228.925 130.387 228.935 130.292 228.927Z" fill="black"/>
<path d="M121.503 245.216L121.328 245.214C105.505 242.264 97.2272 226.84 96.8822 226.188C96.7587 225.953 96.7336 225.678 96.8124 225.425C96.8912 225.171 97.0675 224.959 97.3025 224.836C97.5375 224.712 97.812 224.687 98.0655 224.766C98.319 224.845 98.5308 225.021 98.6544 225.256C98.7332 225.407 106.839 240.479 121.693 243.247C121.958 243.272 122.202 243.402 122.372 243.607C122.541 243.812 122.622 244.076 122.597 244.341C122.572 244.606 122.442 244.851 122.237 245.02C122.032 245.19 121.768 245.271 121.503 245.246L121.503 245.216Z" fill="white"/>
<path d="M281.519 280.426L272.478 300.902C272.478 300.902 285.087 322.659 313.581 300.661C313.581 300.661 299.789 288.34 305.501 267.833C305.501 267.833 314.364 270.676 317.198 262.922C320.033 255.168 315.072 250.685 310.627 250.652C310.627 250.652 292.29 252.182 294.776 217.21C294.776 217.21 277.578 214.859 266.371 227.544C255.165 240.229 248.365 258.512 256.61 269.681C264.855 280.849 281.519 280.426 281.519 280.426Z" fill="#FFCDB2"/>
<path d="M291.737 217.037C292.753 217.035 293.768 217.093 294.776 217.21C292.503 249.143 307.597 250.644 310.237 250.664C310.492 250.666 310.627 250.667 310.627 250.667C315.072 250.7 320.038 255.183 317.198 262.937C315.544 267.46 311.842 268.396 309.037 268.375C307.84 268.361 306.65 268.184 305.501 267.848C299.789 288.355 313.581 300.676 313.581 300.676C303.919 308.132 296.09 310.543 289.95 310.496C277.991 310.405 272.478 300.897 272.478 300.897L281.519 280.421L281.129 280.418C278.559 280.398 264.108 279.833 256.61 269.676C248.365 258.507 255.17 240.229 266.372 227.539C274.689 218.127 286.298 216.99 291.737 217.032L291.737 217.037ZM291.749 215.532C285.529 215.484 273.808 216.855 265.249 226.55C259.262 233.33 254.822 241.221 252.749 248.781C250.373 257.458 251.291 264.995 255.404 270.566C262.189 279.758 274.181 281.52 279.248 281.848L271.108 300.287C271.012 300.504 270.969 300.74 270.981 300.976C270.994 301.213 271.063 301.443 271.182 301.648C271.424 302.064 277.264 311.894 289.939 311.991C297.439 312.048 305.695 308.611 314.517 301.838C314.691 301.703 314.833 301.532 314.934 301.336C315.034 301.14 315.091 300.925 315.098 300.705C315.106 300.485 315.066 300.266 314.979 300.063C314.893 299.861 314.764 299.68 314.6 299.533C312.157 297.114 310.161 294.282 308.703 291.168C305.484 284.453 304.774 277.208 306.597 269.616C307.403 269.757 308.218 269.831 309.036 269.84C313.691 269.875 317.093 267.601 318.62 263.438C320.06 259.494 319.798 255.792 317.874 253.017C317.06 251.848 315.981 250.889 314.725 250.217C313.469 249.546 312.072 249.181 310.648 249.152L310.513 249.151L310.258 249.149C309.188 249.141 305.431 248.832 302.078 245.206C297.352 240.09 295.35 230.445 296.291 217.301C296.318 216.921 296.2 216.544 295.96 216.248C295.72 215.952 295.376 215.758 294.998 215.707C293.924 215.583 292.844 215.522 291.764 215.522L291.749 215.532Z" fill="black"/>
<path d="M280.95 281.721C280.45 281.718 279.95 281.689 279.45 281.64C279.352 281.63 279.256 281.6 279.169 281.553C279.082 281.506 279.005 281.442 278.943 281.365C278.881 281.288 278.834 281.2 278.806 281.105C278.778 281.01 278.769 280.911 278.779 280.812C278.789 280.714 278.819 280.619 278.866 280.532C278.913 280.445 278.977 280.368 279.054 280.305C279.131 280.243 279.219 280.196 279.314 280.168C279.409 280.14 279.508 280.131 279.607 280.141C284.603 280.679 290.622 278.185 290.682 278.155C290.866 278.079 291.072 278.078 291.256 278.153C291.441 278.229 291.587 278.374 291.664 278.558C291.741 278.742 291.742 278.948 291.666 279.132C291.591 279.316 291.445 279.463 291.262 279.54C291.026 279.618 285.899 281.759 280.95 281.721Z" fill="black"/>
<path d="M307.745 264.71C307.58 264.708 307.42 264.651 307.291 264.55C307.161 264.448 307.069 264.306 307.028 264.146C306.987 263.987 307 263.818 307.064 263.666C307.129 263.515 307.242 263.388 307.385 263.307C310.011 261.857 311.383 260.308 311.47 258.693C311.593 256.399 309.086 254.61 309.062 254.59C308.976 254.536 308.901 254.464 308.844 254.38C308.786 254.296 308.746 254.202 308.726 254.102C308.707 254.002 308.707 253.899 308.728 253.8C308.75 253.7 308.791 253.606 308.849 253.523C308.908 253.44 308.983 253.369 309.07 253.316C309.157 253.263 309.253 253.228 309.354 253.213C309.455 253.199 309.557 253.205 309.656 253.231C309.754 253.257 309.846 253.303 309.926 253.366C310.055 253.457 313.139 255.661 312.97 258.775C312.848 260.939 311.218 262.901 308.115 264.618C308.001 264.679 307.874 264.711 307.745 264.71Z" fill="black"/>
<path d="M281.895 238.327C289.407 244.05 302.389 245.704 302.915 249.593C303.44 253.482 300.085 256.791 295.094 255.643C290.102 254.495 285.679 252.257 276.832 247.189C267.986 242.122 259.693 236.508 263.062 232.084C266.431 227.659 270.854 229.913 281.895 238.327Z" fill="#FFB49F"/>
<path d="M277.385 240.263C277.202 240.263 277.026 240.196 276.889 240.074C276.753 239.952 276.666 239.784 276.645 239.602C276.382 237.38 275.495 235.679 274.003 234.547C271.021 232.269 266.515 232.945 266.455 232.95C266.357 232.965 266.256 232.961 266.159 232.937C266.062 232.914 265.971 232.871 265.89 232.812C265.81 232.753 265.741 232.679 265.69 232.594C265.638 232.509 265.603 232.414 265.588 232.315C265.572 232.217 265.577 232.116 265.6 232.019C265.624 231.922 265.666 231.831 265.725 231.75C265.784 231.67 265.858 231.602 265.943 231.55C266.029 231.498 266.123 231.463 266.222 231.448C266.427 231.414 271.393 230.667 274.903 233.324C276.737 234.713 277.827 236.761 278.137 239.409C278.148 239.507 278.139 239.606 278.112 239.701C278.085 239.795 278.039 239.884 277.978 239.961C277.916 240.038 277.84 240.102 277.754 240.15C277.668 240.198 277.573 240.228 277.475 240.239L277.385 240.263Z" fill="black"/>
<path d="M297.73 252.138C297.576 252.135 297.427 252.085 297.303 251.995C297.179 251.904 297.085 251.778 297.034 251.633C294.066 243.5 286.627 245.264 286.311 245.361C286.216 245.386 286.117 245.391 286.019 245.377C285.922 245.364 285.828 245.331 285.743 245.281C285.658 245.231 285.584 245.164 285.525 245.086C285.466 245.007 285.423 244.917 285.398 244.822C285.373 244.726 285.368 244.627 285.382 244.53C285.396 244.432 285.428 244.338 285.479 244.253C285.529 244.168 285.595 244.094 285.674 244.035C285.752 243.976 285.842 243.933 285.937 243.908C286.028 243.884 294.985 241.692 298.443 251.129C298.511 251.316 298.502 251.522 298.418 251.702C298.334 251.883 298.182 252.022 297.995 252.09C297.911 252.124 297.821 252.14 297.73 252.138Z" fill="black"/>
<path d="M280.541 229.672C279.019 229.668 277.51 229.398 276.082 228.873C275.99 228.836 275.907 228.781 275.837 228.712C275.767 228.642 275.711 228.56 275.673 228.469C275.635 228.378 275.615 228.281 275.614 228.182C275.613 228.084 275.632 227.986 275.669 227.895C275.706 227.803 275.761 227.72 275.83 227.65C275.9 227.58 275.982 227.524 276.073 227.486C276.164 227.447 276.261 227.427 276.36 227.427C276.458 227.426 276.556 227.445 276.647 227.482C278.478 228.122 280.435 228.308 282.353 228.026C282.452 228.01 282.553 228.014 282.65 228.038C282.747 228.062 282.838 228.104 282.919 228.163C282.999 228.222 283.067 228.296 283.119 228.381C283.171 228.466 283.206 228.561 283.221 228.66C283.236 228.758 283.232 228.859 283.209 228.956C283.185 229.053 283.143 229.144 283.084 229.225C283.025 229.305 282.951 229.374 282.865 229.426C282.78 229.477 282.686 229.512 282.587 229.527C281.91 229.63 281.226 229.678 280.541 229.672Z" fill="black"/>
<path d="M283.058 266.737C280.699 266.714 278.429 265.833 276.672 264.258C276.603 264.189 276.547 264.106 276.51 264.014C276.473 263.923 276.454 263.825 276.455 263.727C276.455 263.628 276.476 263.531 276.515 263.44C276.553 263.349 276.61 263.267 276.68 263.198C276.823 263.06 277.014 262.984 277.212 262.985C277.41 262.987 277.6 263.066 277.74 263.206C277.929 263.398 282.381 267.742 289 263.207C289.082 263.152 289.174 263.113 289.27 263.093C289.367 263.073 289.466 263.072 289.563 263.09C289.66 263.108 289.752 263.146 289.835 263.2C289.917 263.254 289.989 263.324 290.044 263.405C290.1 263.487 290.138 263.578 290.159 263.675C290.179 263.771 290.18 263.871 290.161 263.968C290.143 264.065 290.105 264.157 290.051 264.24C289.997 264.322 289.928 264.393 289.846 264.449C287.298 266.179 284.998 266.752 283.058 266.737Z" fill="black"/>
<path d="M312.391 250.77C309.601 250.749 306.65 250.291 304.115 248.952C303.949 248.854 303.827 248.696 303.775 248.51C303.722 248.325 303.743 248.126 303.833 247.956C303.923 247.785 304.075 247.656 304.258 247.595C304.441 247.534 304.641 247.545 304.815 247.627C311.513 251.178 321.974 247.843 322.074 247.809C322.169 247.771 322.271 247.754 322.373 247.757C322.475 247.76 322.576 247.785 322.668 247.828C322.761 247.872 322.844 247.934 322.911 248.011C322.979 248.087 323.03 248.177 323.062 248.274C323.093 248.371 323.105 248.474 323.095 248.576C323.086 248.678 323.056 248.777 323.007 248.866C322.958 248.956 322.891 249.035 322.81 249.098C322.73 249.161 322.637 249.206 322.538 249.232C319.249 250.235 315.83 250.753 312.391 250.77Z" fill="black"/>
<path d="M312.325 246.959C312.249 246.959 312.173 246.947 312.101 246.923C295.59 241.662 298.959 223.382 298.991 223.197C299.029 222.999 299.144 222.823 299.311 222.71C299.479 222.596 299.684 222.553 299.883 222.591C300.082 222.629 300.257 222.745 300.371 222.912C300.484 223.079 300.527 223.285 300.489 223.484C300.353 224.183 297.358 240.64 312.581 245.496C312.751 245.552 312.896 245.665 312.989 245.818C313.082 245.97 313.118 246.15 313.09 246.327C313.063 246.503 312.973 246.664 312.837 246.78C312.701 246.896 312.529 246.959 312.35 246.96L312.325 246.959Z" fill="white"/>
<path d="M354.843 207.312C354.789 207.317 354.733 207.316 354.678 207.311C354.485 207.264 354.318 207.143 354.213 206.974C354.109 206.804 354.075 206.601 354.12 206.407C355.066 202.449 354.647 198.995 352.879 196.137C349.717 191.023 343.219 189.463 343.154 189.448C343.052 189.432 342.954 189.396 342.867 189.341C342.78 189.285 342.705 189.213 342.647 189.127C342.589 189.042 342.549 188.946 342.53 188.844C342.511 188.743 342.513 188.638 342.536 188.538C342.56 188.437 342.603 188.342 342.665 188.259C342.726 188.176 342.804 188.107 342.894 188.056C342.983 188.004 343.083 187.972 343.185 187.961C343.288 187.949 343.392 187.959 343.49 187.99C343.78 188.057 350.648 189.69 354.15 195.337C356.125 198.552 356.621 202.391 355.563 206.753C355.522 206.912 355.429 207.054 355.299 207.155C355.168 207.256 355.008 207.312 354.843 207.312Z" fill="black"/>
<path d="M272.249 252.154C272.061 252.147 271.883 252.069 271.751 251.935C271.612 251.794 271.534 251.603 271.536 251.404C271.537 251.205 271.617 251.015 271.759 250.876L282.492 240.032C282.633 239.898 282.821 239.824 283.016 239.826C283.21 239.828 283.397 239.905 283.535 240.042C283.674 240.179 283.754 240.364 283.758 240.559C283.763 240.753 283.691 240.942 283.559 241.085L272.821 251.934C272.747 252.009 272.658 252.068 272.559 252.106C272.46 252.144 272.355 252.16 272.249 252.154Z" fill="black"/>
<path d="M308.846 272.434C310.503 272.446 311.856 271.113 311.869 269.457C311.882 267.8 310.549 266.446 308.892 266.434C307.235 266.421 305.882 267.754 305.869 269.411C305.857 271.068 307.189 272.421 308.846 272.434Z" fill="#FFAD00"/>
<path d="M308.892 266.434C309.485 266.438 310.064 266.619 310.555 266.952C311.045 267.285 311.426 267.757 311.649 268.307C311.872 268.857 311.927 269.46 311.807 270.041C311.687 270.622 311.397 271.155 310.974 271.571C310.551 271.987 310.015 272.269 309.432 272.38C308.849 272.492 308.246 272.428 307.7 272.197C307.153 271.965 306.688 271.577 306.362 271.081C306.036 270.586 305.864 270.004 305.869 269.411C305.875 268.615 306.197 267.855 306.764 267.296C307.331 266.738 308.096 266.428 308.892 266.434ZM308.903 264.934C308.013 264.927 307.141 265.184 306.397 265.673C305.654 266.162 305.072 266.86 304.725 267.68C304.378 268.5 304.282 269.404 304.449 270.278C304.616 271.152 305.038 271.957 305.663 272.591C306.287 273.225 307.086 273.66 307.957 273.84C308.829 274.021 309.734 273.939 310.559 273.604C311.384 273.27 312.091 272.698 312.591 271.962C313.091 271.226 313.362 270.358 313.369 269.468C313.378 268.275 312.913 267.126 312.075 266.276C311.238 265.426 310.097 264.943 308.903 264.934Z" fill="black"/>
<path d="M343.119 214.438L343.064 214.438C342.965 214.43 342.869 214.403 342.781 214.358C342.693 214.313 342.615 214.251 342.551 214.176C342.487 214.1 342.439 214.013 342.408 213.919C342.378 213.825 342.367 213.726 342.375 213.627C342.728 209.33 341.773 205.958 339.536 203.605C335.88 199.763 329.989 199.898 329.929 199.897C329.831 199.9 329.733 199.884 329.64 199.849C329.548 199.815 329.464 199.762 329.392 199.695C329.32 199.627 329.262 199.546 329.221 199.457C329.181 199.367 329.158 199.27 329.155 199.171C329.152 199.073 329.168 198.975 329.203 198.882C329.237 198.79 329.29 198.706 329.357 198.634C329.425 198.562 329.506 198.504 329.595 198.463C329.685 198.423 329.782 198.4 329.881 198.397C330.151 198.399 336.512 198.242 340.624 202.569C343.169 205.243 344.26 209.002 343.869 213.749C343.855 213.937 343.77 214.114 343.63 214.242C343.491 214.37 343.308 214.44 343.119 214.438Z" fill="white"/>
<path d="M336.972 168.595C326.712 168.505 316.556 166.52 307.016 162.742C285.081 154.134 272.197 138.811 272.044 138.654C271.917 138.501 271.856 138.303 271.875 138.105C271.894 137.907 271.991 137.724 272.144 137.598C272.298 137.471 272.495 137.41 272.693 137.429C272.892 137.448 273.074 137.545 273.201 137.698C273.325 137.849 286.025 152.911 307.627 161.371C327.523 169.158 359.296 172.765 397.648 145.737C397.729 145.675 397.821 145.63 397.919 145.604C398.017 145.579 398.119 145.573 398.219 145.589C398.32 145.604 398.416 145.639 398.502 145.693C398.588 145.746 398.662 145.816 398.721 145.899C398.779 145.982 398.82 146.076 398.841 146.175C398.862 146.275 398.862 146.377 398.842 146.476C398.823 146.576 398.783 146.67 398.726 146.754C398.668 146.838 398.595 146.909 398.509 146.963C381.341 159.068 364.007 166.171 346.992 168.071C343.665 168.445 340.32 168.62 336.972 168.595Z" fill="black"/>
<path d="M356.253 153.516C347.978 153.509 339.807 151.662 332.334 148.109C320.377 142.378 314.489 134.263 314.246 133.921C314.185 133.841 314.14 133.75 314.114 133.653C314.089 133.555 314.083 133.454 314.097 133.354C314.112 133.254 314.146 133.159 314.198 133.073C314.251 132.987 314.32 132.912 314.401 132.853C314.483 132.794 314.576 132.753 314.674 132.73C314.772 132.708 314.874 132.706 314.973 132.724C315.072 132.742 315.166 132.779 315.251 132.835C315.335 132.89 315.407 132.961 315.463 133.045C315.522 133.125 321.441 141.236 333.054 146.789C343.76 151.916 361.656 155.858 386.11 145.554C386.293 145.476 386.5 145.475 386.685 145.55C386.869 145.625 387.017 145.77 387.094 145.954C387.172 146.137 387.173 146.344 387.098 146.529C387.023 146.713 386.878 146.861 386.694 146.938C375.087 151.84 364.913 153.582 356.253 153.516Z" fill="black"/>
<path d="M385.353 137.923L437.789 107.776L421.133 107.094L384.386 119.035L385.353 137.923Z" fill="#6C32AD"/>
<path d="M421.134 107.094L437.789 107.776L385.373 137.923L384.407 119.035L421.154 107.094L421.134 107.094ZM421.165 105.595C421.004 105.593 420.843 105.617 420.689 105.666L383.942 117.606C383.635 117.712 383.37 117.914 383.187 118.184C383.005 118.453 382.915 118.774 382.931 119.099L383.872 138.001C383.885 138.258 383.964 138.506 384.1 138.724C384.237 138.941 384.427 139.12 384.653 139.242C384.878 139.365 385.131 139.427 385.388 139.424C385.644 139.421 385.896 139.352 386.118 139.223L438.554 109.077C438.837 108.915 439.059 108.666 439.187 108.366C439.315 108.067 439.342 107.734 439.265 107.417C439.187 107.101 439.008 106.819 438.756 106.613C438.503 106.407 438.191 106.289 437.865 106.277L421.21 105.595L421.165 105.595Z" fill="black"/>
<path d="M371.129 109.488L445.593 103.951L413.656 140.918L392.119 124.644L426.671 109.357L384.386 119.035L371.129 109.488Z" fill="#D9CFFF"/>
<path d="M445.593 103.971L413.656 140.943L392.119 124.669L426.671 109.382L384.386 119.06L371.129 109.513L445.593 103.971ZM445.605 102.471L445.48 102.47L371.02 107.993C370.713 108.015 370.42 108.132 370.181 108.326C369.943 108.521 369.77 108.785 369.686 109.081C369.602 109.378 369.612 109.693 369.714 109.984C369.816 110.275 370.004 110.527 370.255 110.707L383.507 120.248C383.758 120.431 384.06 120.531 384.37 120.535C384.486 120.535 384.602 120.522 384.715 120.497L411.788 114.303L391.51 123.274C391.271 123.38 391.063 123.546 390.908 123.756C390.753 123.966 390.656 124.213 390.626 124.472C390.595 124.732 390.633 124.994 390.736 125.235C390.838 125.475 391.002 125.684 391.21 125.842L412.747 142.111C413.05 142.342 413.431 142.448 413.81 142.408C414.189 142.368 414.539 142.186 414.788 141.897L446.726 104.929C446.922 104.713 447.051 104.445 447.097 104.158C447.143 103.87 447.104 103.575 446.985 103.309C446.866 103.043 446.672 102.817 446.427 102.659C446.182 102.501 445.896 102.419 445.605 102.421L445.605 102.471Z" fill="black"/>
<path d="M411.473 136.042C411.226 136.038 410.986 135.961 410.783 135.822C410.58 135.683 410.422 135.487 410.329 135.258C410.236 135.03 410.213 134.779 410.262 134.538C410.311 134.296 410.43 134.074 410.604 133.9L427.95 116.837C428.187 116.61 428.503 116.486 428.831 116.491C429.159 116.496 429.471 116.629 429.702 116.863C429.932 117.096 430.062 117.41 430.062 117.738C430.063 118.066 429.935 118.381 429.706 118.615L412.36 135.698C412.121 135.925 411.802 136.049 411.473 136.042Z" fill="white"/>
<path d="M100.966 68.7491C100.767 68.7476 100.577 68.6671 100.438 68.5254C100.298 68.3837 100.22 68.1923 100.222 67.9934C100.419 42.1291 77.8509 31.9519 77.6216 31.8552C77.4392 31.7749 77.2962 31.6254 77.224 31.4397C77.1518 31.2539 77.1564 31.0471 77.2367 30.8647C77.3169 30.6823 77.4664 30.5393 77.6522 30.4671C77.8379 30.3949 78.0447 30.3994 78.2271 30.4797C82.6402 32.6331 86.6435 35.5402 90.057 39.0701C93.8418 42.8668 96.8247 47.3856 98.8286 52.358C100.832 57.3303 101.816 62.6547 101.722 68.0148C101.718 68.212 101.636 68.3996 101.495 68.537C101.353 68.6744 101.163 68.7506 100.966 68.7491Z" fill="black"/>
<path d="M95.3494 74.2614C95.2299 74.2608 95.1123 74.2314 95.0066 74.1758C94.9008 74.1201 94.81 74.0399 94.7418 73.9418C82.3762 56.2471 63.8134 48.6754 50.4127 45.4332C41.7738 43.3156 32.8897 42.3667 23.9984 42.6119C23.8999 42.6181 23.8011 42.6047 23.7077 42.5727C23.6143 42.5407 23.5282 42.4906 23.4541 42.4252C23.3801 42.3599 23.3197 42.2806 23.2763 42.1919C23.2329 42.1032 23.2074 42.0069 23.2013 41.9083C23.1951 41.8098 23.2085 41.711 23.2405 41.6176C23.2725 41.5242 23.3226 41.4381 23.388 41.364C23.4533 41.29 23.5326 41.2296 23.6213 41.1862C23.71 41.1428 23.8063 41.1173 23.9049 41.1112C32.9518 40.8515 41.9926 41.81 50.7839 43.961C64.4392 47.2602 83.3709 54.9896 95.9885 73.0663C96.0675 73.179 96.1139 73.3112 96.1227 73.4486C96.1315 73.5859 96.1024 73.723 96.0385 73.8449C95.9745 73.9668 95.8783 74.0687 95.7603 74.1396C95.6423 74.2104 95.5071 74.2474 95.3695 74.2466L95.3494 74.2614Z" fill="black"/>
<path d="M230.672 101.948C230.589 101.948 230.506 101.934 230.428 101.906C230.24 101.839 230.088 101.7 230.003 101.521C229.918 101.341 229.908 101.135 229.975 100.948C233.235 91.7374 233.103 84.1411 229.507 78.3786C224.004 69.4914 212.086 67.9405 211.966 67.9246C211.769 67.9005 211.589 67.799 211.466 67.6425C211.344 67.4859 211.288 67.287 211.312 67.0896C211.323 66.9913 211.353 66.8962 211.401 66.8098C211.449 66.7234 211.514 66.6475 211.592 66.5866C211.67 66.5256 211.759 66.4809 211.854 66.4551C211.95 66.4292 212.049 66.4227 212.147 66.436C212.647 66.4948 224.885 68.0781 230.778 77.5782C234.606 83.7476 234.81 91.7794 231.386 101.449C231.335 101.596 231.238 101.724 231.11 101.814C230.982 101.903 230.829 101.95 230.672 101.948Z" fill="black"/>
<path d="M194.115 181.557L171.852 179.887C167.96 179.601 164.076 180.546 160.751 182.588L141.726 194.263C139.229 195.795 136.406 196.715 133.485 196.95C130.565 197.184 127.631 196.726 124.922 195.613C122.212 194.499 119.804 192.761 117.892 190.541C115.981 188.321 114.621 185.681 113.922 182.836L108.588 161.155C107.661 157.363 105.563 153.96 102.591 151.429L85.6063 136.944C83.3751 135.043 81.6248 132.642 80.4978 129.936C79.3709 127.23 78.8992 124.296 79.1213 121.373C79.3434 118.45 80.253 115.621 81.7759 113.117C83.2988 110.612 85.392 108.503 87.8848 106.96L106.86 95.2047C110.175 93.157 112.762 90.1192 114.256 86.5208L122.784 65.8952C123.903 63.1876 125.646 60.7825 127.87 58.8758C130.095 56.9692 132.738 55.6148 135.585 54.9231C138.432 54.2313 141.402 54.2216 144.253 54.8949C147.105 55.5682 149.757 56.9053 151.994 58.7975L169.059 73.2129C172.039 75.7331 175.736 77.2517 179.626 77.5536L201.879 79.2931C204.8 79.52 207.626 80.4337 210.127 81.9599C212.628 83.486 214.734 85.5815 216.271 88.0755C217.809 90.5695 218.736 93.3915 218.976 96.3116C219.217 99.2316 218.764 102.167 217.654 104.879L209.212 125.54C207.737 129.154 207.436 133.14 208.35 136.934L213.575 158.64C214.262 161.488 214.267 164.459 213.588 167.31C212.91 170.161 211.567 172.811 209.67 175.045C207.774 177.279 205.376 179.033 202.673 180.165C199.969 181.296 197.037 181.773 194.115 181.557Z" fill="#6C32AD"/>
<path d="M140.182 54.3924C144.522 54.4207 148.712 55.9809 152.014 58.7977L169.059 73.2129C172.039 75.7331 175.736 77.2517 179.627 77.5536L201.879 79.2931C204.8 79.52 207.627 80.4337 210.128 81.9599C212.629 83.486 214.734 85.5815 216.272 88.0755C217.809 90.5695 218.736 93.3915 218.976 96.3116C219.217 99.2316 218.764 102.167 217.655 104.879L209.212 125.54C207.738 129.154 207.436 133.14 208.35 136.934L213.575 158.64C214.235 161.382 214.263 164.239 213.656 166.993C213.049 169.748 211.824 172.329 210.073 174.541C208.322 176.752 206.091 178.537 203.549 179.759C201.007 180.981 198.22 181.61 195.4 181.597C194.98 181.594 194.56 181.59 194.13 181.547L171.867 179.877C171.457 179.874 171.047 179.831 170.642 179.828C167.158 179.802 163.736 180.754 160.766 182.578L141.742 194.253C139.246 195.791 136.421 196.716 133.5 196.953C130.578 197.19 127.642 196.733 124.93 195.619C122.219 194.504 119.81 192.765 117.899 190.541C115.989 188.318 114.631 185.674 113.938 182.826L108.603 161.145C107.676 157.353 105.578 153.95 102.607 151.419L85.6216 136.934C83.3905 135.033 81.6401 132.632 80.5131 129.926C79.3862 127.22 78.9145 124.286 79.1366 121.363C79.3588 118.44 80.2683 115.611 81.7912 113.107C83.3142 110.602 85.4073 108.493 87.9001 106.951L106.875 95.1948C110.183 93.1472 112.765 90.1134 114.257 86.5208L122.784 65.8952C124.199 62.4603 126.611 59.5283 129.708 57.4778C132.806 55.4274 136.447 54.3526 140.162 54.3922L140.182 54.3924ZM140.173 52.8923C136.163 52.8516 132.233 54.0139 128.89 56.2291C125.546 58.4443 122.944 61.6108 121.418 65.3198L112.891 85.9354C111.525 89.255 109.144 92.0579 106.09 93.9438L87.1095 105.71C84.4183 107.377 82.1588 109.656 80.5149 112.362C78.8709 115.068 77.8891 118.123 77.6491 121.28C77.4092 124.437 77.918 127.606 79.1341 130.529C80.3503 133.452 82.2394 136.047 84.6477 138.102L101.633 152.587C104.368 154.911 106.298 158.041 107.145 161.529L112.48 183.21C113.229 186.287 114.696 189.144 116.761 191.546C118.825 193.948 121.428 195.828 124.358 197.031C127.287 198.235 130.46 198.729 133.617 198.472C136.774 198.215 139.825 197.216 142.522 195.554L161.516 183.879C164.254 182.206 167.408 181.34 170.615 181.378C170.99 181.381 171.37 181.384 171.745 181.422L194.023 183.056C194.478 183.09 194.938 183.108 195.393 183.112C198.443 183.129 201.457 182.452 204.207 181.132C206.956 179.812 209.37 177.884 211.264 175.493C213.158 173.103 214.484 170.312 215.14 167.334C215.797 164.355 215.767 161.266 215.053 158.301L209.828 136.6C208.976 133.106 209.254 129.432 210.623 126.106L219.065 105.44C220.259 102.51 220.745 99.3397 220.483 96.1868C220.221 93.0339 219.218 89.9874 217.557 87.295C215.895 84.6026 213.622 82.3403 210.921 80.692C208.221 79.0437 205.17 78.056 202.015 77.8091L179.763 76.0746C176.184 75.8021 172.784 74.4039 170.048 72.0804L152.978 57.65C149.414 54.6003 144.884 52.9144 140.193 52.8924L140.173 52.8923Z" fill="black"/>
<path d="M124.194 81.6463C124.009 81.6422 123.828 81.5978 123.662 81.5163C123.496 81.4348 123.35 81.3181 123.234 81.1744C123.118 81.0307 123.035 80.8635 122.99 80.6843C122.945 80.5051 122.94 80.3184 122.975 80.137C123.09 79.5529 125.875 65.7837 135.862 62.2347C142.42 59.9095 150.36 62.6001 159.507 70.235C159.641 70.3372 159.754 70.4656 159.837 70.6125C159.92 70.7593 159.973 70.9216 159.992 71.0894C160.011 71.2573 159.996 71.4273 159.948 71.5891C159.899 71.7509 159.818 71.9012 159.71 72.031C159.602 72.1607 159.469 72.2671 159.318 72.3439C159.168 72.4206 159.003 72.4661 158.835 72.4774C158.666 72.4888 158.497 72.466 158.338 72.4102C158.178 72.3544 158.032 72.2669 157.907 72.1529C149.5 65.1236 142.364 62.5792 136.694 64.5911C128.04 67.6652 125.452 80.5059 125.432 80.6107C125.38 80.9014 125.228 81.1645 125.001 81.3539C124.775 81.5433 124.489 81.6469 124.194 81.6463Z" fill="white"/>
<path d="M132.025 193.034C130.223 193.036 128.444 192.638 126.814 191.869C118.509 187.911 117.289 175.411 117.238 174.881C117.223 174.717 117.241 174.551 117.29 174.394C117.339 174.236 117.419 174.09 117.525 173.963C117.63 173.837 117.76 173.732 117.906 173.656C118.052 173.579 118.212 173.532 118.376 173.517C118.54 173.502 118.706 173.52 118.863 173.569C119.021 173.618 119.167 173.698 119.294 173.804C119.42 173.909 119.525 174.039 119.602 174.185C119.678 174.331 119.725 174.491 119.74 174.655C119.739 174.77 120.886 186.274 127.906 189.618C132.186 191.65 137.901 190.304 144.937 185.597C145.213 185.413 145.551 185.345 145.877 185.409C146.203 185.474 146.49 185.665 146.675 185.941C146.86 186.217 146.927 186.555 146.863 186.88C146.799 187.206 146.607 187.493 146.332 187.678C140.959 191.277 136.155 193.066 132.025 193.034Z" fill="white"/>
<path d="M137.913 124.477C137.51 124.609 137.137 124.816 136.813 125.089C136.416 125.418 136.05 125.784 135.72 126.18C135.357 126.608 134.998 127.08 134.644 127.587C134.29 128.095 133.946 128.622 133.632 129.155C133.46 129.423 133.298 129.652 133.126 129.896C132.985 130.104 132.816 130.291 132.622 130.452C132.536 130.81 132.476 131.174 132.444 131.541C132.4 131.985 132.372 132.46 132.353 132.975C132.334 133.49 132.345 134.01 132.341 134.535C132.337 135.06 132.368 135.535 132.395 136C132.393 136.235 132.431 136.466 132.465 136.681C132.498 136.896 132.526 137.136 132.554 137.382C132.583 137.627 132.611 137.882 132.633 138.192C132.656 138.502 132.679 138.803 132.696 139.163C132.709 139.354 132.671 139.545 132.587 139.717C132.519 139.861 132.425 139.991 132.309 140.1C132.214 140.195 132.104 140.272 131.982 140.327C131.897 140.367 131.81 140.401 131.721 140.43C131.378 140.545 131.007 140.542 130.666 140.422C130.478 140.322 130.315 140.179 130.192 140.004C130.069 139.829 129.989 139.628 129.959 139.417C129.915 139.267 129.871 139.111 129.837 138.946C129.796 138.758 129.772 138.567 129.767 138.375C129.7 137.315 129.652 136.35 129.629 135.489C129.605 134.629 129.601 133.829 129.617 133.079C129.633 132.329 129.663 131.629 129.708 130.955C129.753 130.28 129.798 129.61 129.854 128.926C129.909 128.241 129.959 127.537 130.02 126.807C130.08 126.077 130.137 125.268 130.193 124.383C130.209 124.265 130.25 124.15 130.311 124.048C130.373 123.945 130.455 123.856 130.553 123.786C130.786 123.585 131.06 123.437 131.356 123.352C131.698 123.232 132.069 123.223 132.416 123.325C132.566 123.372 132.701 123.456 132.809 123.57C132.917 123.684 132.993 123.823 133.032 123.975C133.037 124.036 133.036 124.098 133.03 124.16C133.037 124.258 133.036 124.357 133.028 124.455L132.829 126.293C133.166 125.816 133.52 125.334 133.89 124.846C134.258 124.365 134.654 123.906 135.075 123.47C135.482 123.058 135.921 122.68 136.389 122.34C136.824 122.031 137.305 121.791 137.815 121.631C138.659 121.324 139.591 121.361 140.409 121.736C141.136 122.108 141.67 122.859 142.012 123.988C142.222 124.741 142.332 125.519 142.339 126.301C142.362 127.198 142.345 128.169 142.287 129.216C142.229 130.265 142.165 131.37 142.082 132.529C141.998 133.688 141.959 134.858 141.945 136.028C141.943 136.304 141.919 136.58 141.874 136.853C141.844 137.061 141.772 137.261 141.664 137.441C141.563 137.603 141.427 137.741 141.266 137.843C141.064 137.965 140.847 138.057 140.619 138.118C140.329 138.244 140.001 138.254 139.704 138.146C139.588 138.072 139.488 137.976 139.41 137.863C139.332 137.75 139.277 137.622 139.249 137.488C139.148 137.123 139.086 136.749 139.062 136.371C139.021 135.872 139.007 135.371 139.019 134.871C139.023 134.316 139.027 133.716 139.097 133.076C139.167 132.437 139.197 131.782 139.267 131.108C139.321 130.568 139.376 130.023 139.425 129.489C139.474 128.954 139.508 128.429 139.522 127.934C139.535 127.44 139.529 126.969 139.507 126.534C139.485 126.137 139.417 125.744 139.306 125.363C139.225 125.061 139.063 124.786 138.837 124.569C138.708 124.468 138.552 124.406 138.388 124.389C138.225 124.373 138.06 124.404 137.913 124.477Z" fill="white"/>
<path d="M146.356 129.392C146.216 128.984 146.219 128.542 146.365 128.137C146.508 127.753 146.779 127.43 147.132 127.222C147.179 126.958 147.262 126.593 147.386 126.129C147.528 125.603 147.699 125.085 147.898 124.578C148.131 123.979 148.397 123.393 148.696 122.824C149.018 122.215 149.396 121.637 149.824 121.098C150.265 120.549 150.773 120.057 151.335 119.634C151.904 119.189 152.551 118.855 153.243 118.649C153.776 118.474 154.334 118.388 154.895 118.391C155.342 118.39 155.784 118.484 156.193 118.666C156.559 118.836 156.88 119.089 157.132 119.403C157.394 119.73 157.588 120.106 157.704 120.508C157.81 120.853 157.867 121.213 157.871 121.574C157.903 122.188 157.782 122.801 157.517 123.356C157.239 123.929 156.881 124.46 156.455 124.933C156.002 125.438 155.496 125.892 154.945 126.287C154.385 126.689 153.805 127.062 153.206 127.404C152.619 127.739 152.041 128.035 151.479 128.291C150.917 128.546 150.426 128.783 150.01 128.929C149.979 129.19 149.977 129.453 150.004 129.714C150.018 130.01 150.068 130.302 150.152 130.586C150.224 130.867 150.367 131.125 150.568 131.335C150.768 131.545 151.02 131.7 151.298 131.784C152.006 131.972 152.755 131.937 153.444 131.686C153.92 131.545 154.378 131.349 154.808 131.101C155.213 130.862 155.598 130.59 155.959 130.29C156.301 130.007 156.625 129.704 156.931 129.382C157.224 129.074 157.486 128.776 157.723 128.488C157.997 128.151 158.292 127.831 158.605 127.53C158.835 127.289 159.12 127.108 159.434 127.001C159.695 126.918 159.88 126.935 159.994 127.045C160.105 127.149 160.185 127.281 160.226 127.427C160.256 127.512 160.275 127.593 160.294 127.673C160.314 127.753 160.323 127.823 160.328 127.878C160.354 128.183 160.332 128.49 160.261 128.788C160.185 129.104 160.054 129.404 159.874 129.675C159.118 130.783 158.169 131.746 157.072 132.518C155.994 133.246 154.809 133.802 153.56 134.167C153.309 134.238 153.009 134.311 152.658 134.385C152.29 134.458 151.917 134.502 151.542 134.516C151.139 134.528 150.735 134.499 150.338 134.432C149.479 134.283 148.707 133.819 148.172 133.131C147.839 132.688 147.593 132.185 147.449 131.65C147.29 131.093 147.192 130.521 147.157 129.943C147 129.959 146.843 129.925 146.707 129.844C146.535 129.745 146.409 129.583 146.356 129.392ZM154.882 122.091C154.89 122.042 154.89 121.991 154.883 121.941C154.883 121.901 154.854 121.851 154.839 121.801C154.81 121.676 154.749 121.56 154.662 121.465C154.575 121.369 154.465 121.298 154.343 121.257C154.078 121.173 153.794 121.171 153.528 121.251C153.054 121.4 152.624 121.665 152.277 122.022C151.888 122.405 151.549 122.836 151.267 123.304C150.755 124.172 150.394 125.121 150.201 126.111C150.882 125.848 151.544 125.539 152.183 125.186C152.711 124.896 153.206 124.551 153.661 124.157C154.02 123.852 154.33 123.494 154.579 123.094C154.771 122.794 154.876 122.447 154.882 122.091Z" fill="white"/>
<path d="M162.088 115.976C162.119 115.612 162.255 115.266 162.481 114.979C162.692 114.76 162.957 114.601 163.25 114.52C163.512 114.432 163.79 114.402 164.065 114.431C164.285 114.456 164.495 114.533 164.679 114.656C164.854 114.779 165.001 114.939 165.11 115.124C165.232 115.328 165.326 115.547 165.39 115.776C165.414 115.851 165.434 115.922 165.453 115.992C165.478 116.061 165.494 116.134 165.502 116.207C165.501 116.302 165.545 116.482 165.578 116.738C165.611 116.993 165.648 117.303 165.691 117.659C165.733 118.014 165.775 118.379 165.817 118.775C165.859 119.17 165.906 119.535 165.949 119.891C165.991 120.246 166.029 120.551 166.057 120.816C166.085 121.082 166.103 121.267 166.107 121.367C166.112 121.467 166.14 121.637 166.169 121.867C166.197 122.097 166.23 122.313 166.278 122.578C166.326 122.844 166.379 123.129 166.447 123.429C166.514 123.73 166.592 124.026 166.68 124.316C166.768 124.607 166.856 124.868 166.954 125.118C167.037 125.342 167.144 125.556 167.274 125.756C167.366 125.91 167.488 126.045 167.631 126.154C167.685 126.196 167.749 126.225 167.817 126.238C167.885 126.25 167.954 126.246 168.02 126.227C168.116 126.197 168.232 126.078 168.368 125.874C168.505 125.67 168.647 125.426 168.789 125.157C168.931 124.888 169.063 124.604 169.19 124.305C169.317 124.006 169.424 123.767 169.501 123.573C169.924 122.553 170.296 121.513 170.615 120.456C170.927 119.423 171.195 118.39 171.423 117.367C171.506 116.978 171.546 116.581 171.542 116.183C171.532 115.825 171.553 115.467 171.605 115.114C171.649 114.794 171.774 114.49 171.967 114.231C172.231 113.93 172.582 113.717 172.972 113.624C173.26 113.542 173.565 113.544 173.852 113.631C174.179 113.732 174.46 113.944 174.647 114.232C174.734 114.632 174.806 115.043 174.863 115.468C174.919 115.894 174.991 116.329 175.068 116.77C175.144 117.211 175.221 117.646 175.303 118.077C175.381 118.496 175.483 118.911 175.608 119.319C175.779 119.899 176.014 120.458 176.311 120.985C176.572 121.451 176.95 121.841 177.407 122.118C177.68 121.429 177.911 120.725 178.098 120.008C178.309 119.24 178.5 118.446 178.676 117.627C178.853 116.809 179.014 115.99 179.145 115.166C179.276 114.342 179.407 113.563 179.513 112.824C179.521 112.771 179.521 112.717 179.514 112.664C179.514 112.614 179.49 112.563 179.475 112.513L179.436 112.373C179.336 112.018 179.327 111.643 179.41 111.283C179.485 110.89 179.609 110.508 179.778 110.146C179.926 109.814 180.117 109.502 180.345 109.22C180.495 109.014 180.699 108.852 180.934 108.754C181.307 108.619 181.719 108.636 182.079 108.803C182.242 108.89 182.386 109.01 182.5 109.155C182.614 109.301 182.697 109.469 182.742 109.648C182.787 109.811 182.811 109.98 182.813 110.149C182.822 110.36 182.802 110.572 182.754 110.778L180.26 121.695L180.099 122.583C180.031 122.958 179.958 123.322 179.885 123.672C179.825 124.003 179.726 124.326 179.593 124.635C179.48 124.909 179.317 125.161 179.112 125.376C178.909 125.59 178.652 125.745 178.369 125.825C177.98 125.95 177.561 125.947 177.174 125.816C176.782 125.681 176.416 125.478 176.093 125.218C175.758 124.946 175.455 124.637 175.19 124.296C174.952 123.991 174.734 123.67 174.538 123.336L173.2 121.001C173.1 121.129 173.023 121.274 172.972 121.429C172.85 121.703 172.697 122.057 172.519 122.486C172.341 122.914 172.142 123.388 171.933 123.906C171.724 124.425 171.516 124.903 171.312 125.402C171.108 125.9 170.915 126.314 170.742 126.702C170.621 126.991 170.478 127.271 170.316 127.539C170.209 127.708 170.093 127.882 169.967 128.036C169.849 128.2 169.723 128.358 169.588 128.509C169.47 128.64 169.344 128.764 169.21 128.881C169.115 128.967 169.004 129.034 168.884 129.078C168.281 129.286 167.628 129.297 167.018 129.109C166.461 128.918 165.959 128.593 165.556 128.163C165.113 127.696 164.747 127.161 164.473 126.579C164.174 125.969 163.926 125.335 163.732 124.684C163.561 124.107 163.416 123.521 163.296 122.915C163.175 122.309 163.07 121.714 162.979 121.118C162.889 120.522 162.803 119.947 162.732 119.386C162.662 118.825 162.591 118.305 162.514 117.824C162.515 117.739 162.476 117.639 162.452 117.529C162.427 117.419 162.393 117.303 162.359 117.188L162.232 116.782L162.101 116.316C162.07 116.205 162.066 116.089 162.088 115.976Z" fill="white"/>
<path d="M160.085 338.862L84.4834 353.227C79.7387 354.126 75.5017 356.767 72.6043 360.631C69.7069 364.494 68.3585 369.301 68.8239 374.108L72.0993 407.539C72.5647 412.298 74.7757 416.716 78.3058 419.941C81.836 423.166 86.4353 424.97 91.2168 425.005L97.2716 425.051L110.286 446.811L124.451 425.258L159.675 425.527C164.565 425.564 169.288 423.749 172.895 420.447C176.501 417.144 178.724 412.599 179.116 407.724L182.984 359.392C183.217 356.426 182.763 353.447 181.657 350.685C180.551 347.923 178.824 345.453 176.609 343.468C174.394 341.482 171.751 340.033 168.885 339.234C166.019 338.436 163.008 338.308 160.085 338.862Z" fill="#D9CFFF"/>
<path d="M163.903 338.511C166.559 338.541 169.18 339.117 171.604 340.202C174.027 341.288 176.202 342.86 177.992 344.822C179.783 346.783 181.151 349.092 182.011 351.605C182.872 354.117 183.206 356.78 182.994 359.427L179.126 407.759C178.733 412.636 176.509 417.182 172.901 420.485C169.292 423.788 164.566 425.602 159.675 425.562L124.481 425.294L110.316 446.846L97.3013 425.086L91.2315 425.04C86.45 425.005 81.8507 423.202 78.3205 419.976C74.7904 416.751 72.5794 412.333 72.114 407.574L68.8386 374.143C68.3733 369.336 69.7217 364.529 72.619 360.666C75.5164 356.802 79.7534 354.161 84.4982 353.262L160.11 338.882C161.368 338.641 162.647 338.523 163.928 338.532L163.903 338.511ZM163.939 337.032C162.561 337.024 161.185 337.149 159.831 337.405L84.2194 351.79C79.1066 352.763 74.5424 355.612 71.4233 359.779C68.3042 363.945 66.8557 369.127 67.3623 374.307L70.6377 407.743C71.1311 412.873 73.5108 417.638 77.316 421.114C81.1211 424.591 86.081 426.531 91.2349 426.56L96.4448 426.6L109.005 447.616C109.135 447.834 109.319 448.015 109.538 448.143C109.758 448.27 110.006 448.34 110.26 448.346C110.51 448.348 110.757 448.287 110.978 448.169C111.199 448.051 111.387 447.88 111.525 447.67L125.259 426.774L159.663 427.037C164.932 427.077 170.021 425.121 173.906 421.563C177.792 418.005 180.187 413.107 180.61 407.856L184.478 359.519C184.724 356.666 184.372 353.793 183.446 351.084C182.519 348.374 181.039 345.888 179.098 343.782C177.168 341.67 174.824 339.977 172.212 338.808C169.6 337.639 166.776 337.019 163.914 336.986L163.939 337.032Z" fill="black"/>
<path d="M101.342 383.661C101.143 383.663 100.952 383.587 100.809 383.448C100.667 383.309 100.585 383.119 100.583 382.92C100.58 382.721 100.657 382.53 100.796 382.387C100.935 382.245 101.125 382.163 101.324 382.161L158.544 380.372C158.642 380.369 158.741 380.385 158.833 380.42C158.925 380.454 159.01 380.507 159.082 380.574C159.153 380.642 159.211 380.723 159.252 380.812C159.293 380.902 159.315 380.999 159.318 381.098C159.322 381.196 159.305 381.294 159.271 381.387C159.236 381.479 159.183 381.563 159.116 381.635C159.048 381.707 158.968 381.765 158.878 381.806C158.788 381.846 158.691 381.869 158.592 381.872L101.372 383.661L101.342 383.661Z" fill="black"/>
<path d="M103.435 400.337C103.236 400.341 103.044 400.266 102.901 400.128C102.757 399.99 102.675 399.801 102.671 399.602C102.667 399.403 102.742 399.21 102.88 399.067C103.018 398.924 103.208 398.841 103.407 398.837L143.967 396.926C144.165 396.919 144.357 396.99 144.504 397.123C144.65 397.255 144.739 397.44 144.752 397.637C144.757 397.736 144.742 397.834 144.708 397.927C144.675 398.02 144.623 398.105 144.557 398.178C144.49 398.251 144.41 398.31 144.321 398.352C144.231 398.394 144.135 398.417 144.036 398.422L103.48 400.338L103.435 400.337Z" fill="black"/>
<path d="M173.122 347.962C168.591 344.137 162.72 345.548 162.474 345.611C162.309 345.645 162.153 345.712 162.015 345.808C161.877 345.904 161.76 346.027 161.67 346.169C161.581 346.311 161.521 346.47 161.494 346.636C161.468 346.803 161.475 346.972 161.515 347.136C161.556 347.299 161.629 347.452 161.73 347.586C161.831 347.721 161.958 347.833 162.104 347.917C162.25 348.001 162.411 348.055 162.578 348.075C162.745 348.096 162.914 348.082 163.076 348.035C163.126 348.036 167.945 346.862 171.512 349.875C174.637 352.513 175.954 357.544 175.398 364.835C173.732 386.568 172.076 407.101 172.074 407.311C172.048 407.64 172.154 407.967 172.369 408.219C172.584 408.471 172.889 408.627 173.219 408.654L173.304 408.655C173.62 408.658 173.925 408.541 174.158 408.327C174.391 408.114 174.534 407.82 174.558 407.504C174.56 407.3 176.216 386.762 177.882 365.029C178.499 356.888 176.897 351.146 173.122 347.962Z" fill="white"/>
<path d="M112.812 359.513C112.792 359.416 112.754 359.324 112.699 359.243C112.643 359.161 112.573 359.091 112.49 359.037C112.408 358.983 112.316 358.946 112.219 358.927C112.122 358.909 112.022 358.91 111.926 358.931C89.1448 363.588 67.701 356.129 53.6595 349.057C44.5955 344.516 36.1045 338.912 28.3659 332.364C28.2929 332.297 28.2075 332.246 28.1147 332.213C28.0219 332.18 27.9234 332.165 27.825 332.17C27.7265 332.175 27.63 332.199 27.5408 332.241C27.4517 332.283 27.3717 332.342 27.3055 332.416C27.2393 332.489 27.1881 332.574 27.1549 332.667C27.1217 332.76 27.107 332.858 27.1119 332.956C27.1167 333.055 27.1408 333.151 27.183 333.241C27.2251 333.33 27.2844 333.41 27.3574 333.476C35.1861 340.104 43.7754 345.777 52.9444 350.376C63.9722 355.961 79.5536 361.744 96.7981 361.876C101.979 361.924 107.152 361.429 112.23 360.398C112.326 360.379 112.418 360.34 112.5 360.285C112.582 360.23 112.651 360.159 112.706 360.077C112.76 359.995 112.797 359.902 112.815 359.805C112.833 359.709 112.832 359.609 112.812 359.513Z" fill="black"/>
<path d="M91.0114 391.573C66.1532 401.088 46.532 382.143 46.3386 381.937C46.1956 381.805 46.0069 381.733 45.8122 381.738C45.6175 381.742 45.4322 381.822 45.2954 381.961C45.1587 382.099 45.0811 382.286 45.0793 382.48C45.0774 382.675 45.1513 382.863 45.2854 383.004C49.2288 386.618 53.7361 389.565 58.6293 391.726C64.2211 394.28 70.2823 395.646 76.4293 395.737C81.5977 395.769 86.7259 394.827 91.5459 392.962C91.7321 392.891 91.8825 392.749 91.964 392.567C92.0456 392.385 92.0516 392.179 91.9808 391.992C91.9099 391.806 91.768 391.656 91.5862 391.574C91.4045 391.493 91.1977 391.487 91.0116 391.558L91.0114 391.573Z" fill="black"/>
</svg>
