<svg width="402" height="370" viewBox="0 0 402 370" fill="none" xmlns="http://www.w3.org/2000/svg">
<rect width="400" height="400" transform="translate(0.236328 1.7666) rotate(-0.219142)" fill="white"/>
<path d="M365.809 370.291L67.8056 370.031C67.3656 370.032 67.0043 369.674 67.0026 369.234C67.0009 368.794 67.3595 368.432 67.7995 368.431L365.803 368.691C366.243 368.689 366.604 369.048 366.606 369.488C366.607 369.928 366.249 370.289 365.809 370.291Z" fill="black"/>
<path d="M395.524 358.417L351.604 358.585C351.284 358.587 351.003 358.308 351.002 357.988C351.001 357.668 351.28 357.387 351.6 357.385L395.519 357.217C395.839 357.216 396.12 357.495 396.121 357.815C396.123 358.135 395.844 358.416 395.524 358.417Z" fill="black"/>
<path d="M151.628 187.629C171.727 181.992 295.011 203.801 303.054 214.93C311.057 226.059 251.117 367.41 238.237 367.459C223.557 367.515 118.358 367.917 96.5597 368.481C77.4414 368.954 63.2429 317.088 69.4767 304.984C75.7104 292.88 121.857 195.183 137.37 193.283C152.883 191.384 151.628 187.629 151.628 187.629Z" fill="#00A3FF"/>
<path d="M96.3221 369.042C90.7222 369.063 85.1059 364.804 80.075 356.744C70.3355 341.221 64.3893 313.443 68.9557 304.666C69.7101 303.183 71.02 300.538 72.8457 296.811C94.5177 252.848 124.814 194.171 137.288 192.644C147.243 191.405 149.996 189.475 150.752 188.432C150.911 188.231 151.03 187.991 150.989 187.751C150.909 187.591 150.908 187.431 150.987 187.311C151.067 187.151 151.227 187.07 151.386 187.03C161.975 184.069 199.433 188.566 231.895 194.362C262.076 199.766 298.949 208.265 303.453 214.528C307.072 219.594 297.777 247.11 291.878 263.053C282.812 287.648 270.52 315.975 259.841 336.936C249.359 357.536 242.079 368.004 238.199 368.019C210.079 368.126 116.76 368.523 96.5621 369.041L96.3221 369.042ZM152.231 188.106C152.192 188.427 152.073 188.747 151.874 188.988C150.522 191.193 145.529 192.852 137.452 193.843C133.574 194.338 124.964 202.051 105.694 236.165C93.0596 258.573 80.5961 283.821 73.9278 297.367C72.1021 301.094 70.7922 303.739 69.9979 305.222C65.9876 312.997 70.7294 339.619 81.0727 356.14C84.4935 361.567 89.9182 368.026 96.5177 367.881C116.756 367.363 210.075 366.966 238.195 366.859C239.715 366.853 244.783 363.874 258.759 336.42C269.439 315.499 281.691 287.252 290.757 262.657C300.496 236.3 304.868 218.563 302.495 215.252C298.997 210.425 270.566 202.494 231.7 195.562C199.878 189.884 163.18 185.424 152.231 188.106Z" fill="black"/>
<path d="M280.23 229.577C280.23 229.577 148.621 227.56 144.437 231.776C142.525 233.704 141.689 276.627 140.125 306.833C138.225 343.521 110.199 368.148 110.199 368.148L162.998 367.946L280.23 229.577Z" fill="#0094E7"/>
<path d="M133.168 192.659C111.048 213.704 92.9728 215.013 54.1809 300.882C38.7512 334.982 54.3893 355.362 65.3333 361.6C76.2772 367.838 122.792 376.901 134.842 347.934L146.56 347.489L149.793 314.357L140.553 314.392C140.553 314.392 138.422 301 121.219 300.226C104.016 299.452 84.7713 308.765 81.0161 310.02" fill="#00A3FF"/>
<path d="M96.9205 368.64C83.4406 368.691 70.4274 365.261 64.9755 362.162C62.3697 360.652 53.5073 354.806 49.2579 341.902C45.292 329.917 46.7976 315.671 53.5801 300.645C84.9155 231.405 102.82 216.976 120.127 203.03C124.235 199.734 128.462 196.318 132.766 192.221C133.005 191.98 133.405 192.019 133.606 192.258C133.807 192.497 133.808 192.857 133.569 193.098C129.225 197.235 124.958 200.651 120.851 203.987C103.664 217.853 85.8386 232.201 54.7021 301.161C47.9592 316.106 46.4913 329.712 50.4165 341.537C54.5442 354.002 63.086 359.689 65.5715 361.119C73.4288 365.609 97.3688 370.798 115.266 364.689C124.494 361.534 130.872 355.83 134.241 347.737C134.32 347.536 134.519 347.376 134.759 347.375L145.958 346.932L149.076 315L140.516 315.032C140.236 315.034 139.955 314.835 139.914 314.515C139.832 313.995 137.624 301.603 121.141 300.826C106.779 300.201 90.8436 306.702 84.0142 309.489C82.6962 310.014 81.7777 310.417 81.1385 310.62C80.819 310.741 80.4983 310.582 80.3771 310.262C80.2559 309.943 80.4147 309.622 80.7342 309.501C81.2934 309.299 82.2919 308.895 83.5301 308.41C90.3993 305.584 106.534 299.042 121.137 299.667C136.7 300.367 140.302 311.313 140.911 313.831L149.631 313.798C149.951 313.796 150.232 314.075 150.233 314.395L150.234 314.435L147.04 347.568C147.001 347.848 146.762 348.089 146.482 348.09L135.124 348.533C131.555 356.787 124.978 362.612 115.55 365.808C109.837 367.79 103.32 368.615 96.9205 368.64Z" fill="black"/>
<path d="M133.171 350.341C133.293 340.58 138.666 323.039 141.157 315.35L148.957 315.32L145.917 346.692L134.799 347.134C134.323 348.256 133.767 349.338 133.171 350.341Z" fill="#0094E7"/>
<path d="M152.256 330.668C152.256 330.668 168.816 341.084 160.055 351.478C151.295 361.871 138.221 353.081 138.494 340.8C138.767 328.519 148.39 323.962 153.052 319.384" fill="#FFCDB2"/>
<path d="M151.275 356.671C149.915 356.676 148.594 356.441 147.312 355.926C141.624 353.788 137.76 347.562 137.894 340.762C138.096 330.801 144.277 325.817 149.222 321.838C150.498 320.833 151.694 319.869 152.611 318.905C152.85 318.664 153.25 318.703 153.451 318.942C153.652 319.181 153.653 319.541 153.454 319.742C152.458 320.746 151.261 321.711 149.945 322.756C145.2 326.574 139.258 331.357 139.094 340.757C138.958 347.038 142.54 352.784 147.748 354.764C151.954 356.348 156.309 355.011 159.613 351.039C161.525 348.751 162.315 346.268 161.905 343.67C160.839 336.834 152.017 331.188 151.937 331.148C151.657 330.949 151.575 330.589 151.774 330.309C151.933 330.028 152.293 329.947 152.574 330.146C152.974 330.384 161.956 336.11 163.105 343.505C163.556 346.464 162.687 349.267 160.537 351.835C157.909 355.005 154.635 356.658 151.275 356.671Z" fill="black"/>
<path d="M150.7 311.073C150.7 311.073 167.26 321.49 158.5 331.883C149.74 342.277 136.666 333.487 136.939 321.206C137.212 308.924 146.835 304.368 151.497 299.79" fill="#FFCDB2"/>
<path d="M149.72 337.077C148.36 337.082 147.039 336.807 145.757 336.332C140.069 334.194 136.205 327.968 136.339 321.168C136.541 311.207 142.722 306.223 147.667 302.244C148.943 301.239 150.099 300.275 151.055 299.311C151.294 299.07 151.654 299.069 151.895 299.268C152.136 299.507 152.138 299.867 151.938 300.108C151.938 300.108 151.938 300.108 151.899 300.148C150.902 301.152 149.706 302.117 148.39 303.162C143.645 306.98 137.703 311.762 137.539 321.163C137.403 327.444 140.985 333.19 146.193 335.17C150.399 336.754 154.754 335.417 158.058 331.445C159.97 329.157 160.76 326.674 160.35 324.076C159.284 317.24 150.462 311.594 150.382 311.514C150.101 311.315 150.02 310.955 150.219 310.675C150.378 310.394 150.737 310.313 151.018 310.512C151.419 310.75 160.401 316.476 161.549 323.871C162.001 326.83 161.131 329.633 158.981 332.201C156.314 335.411 153.08 337.064 149.72 337.077Z" fill="black"/>
<path d="M152.197 294.628C152.197 294.628 168.757 305.044 159.997 315.438C151.237 325.832 138.163 317.042 138.436 304.76C138.709 292.479 144.91 292.776 150.786 291.513" fill="#FFCDB2"/>
<path d="M151.177 320.631C149.817 320.636 148.496 320.361 147.214 319.886C141.526 317.748 137.662 311.522 137.796 304.722C138.033 293.281 143.469 292.26 148.745 291.24C149.344 291.118 149.984 290.995 150.584 290.873C150.903 290.792 151.224 290.99 151.305 291.31C151.386 291.63 151.188 291.95 150.868 292.032L150.828 292.032C150.188 292.154 149.549 292.277 148.949 292.399C143.713 293.379 139.196 294.236 138.956 304.717C138.82 310.998 142.402 316.744 147.61 318.724C151.816 320.308 156.171 318.972 159.476 314.999C161.427 312.711 162.178 310.229 161.768 307.63C160.701 300.754 151.88 295.148 151.8 295.108C151.519 294.909 151.438 294.55 151.637 294.269C151.795 293.988 152.155 293.907 152.436 294.106C152.837 294.344 161.819 300.07 162.967 307.466C163.418 310.424 162.549 313.227 160.399 315.795C157.811 318.965 154.577 320.618 151.177 320.631Z" fill="black"/>
<path d="M151.13 350.111C151.01 350.112 139.928 349.594 139.678 336.555C139.677 336.235 139.916 335.954 140.276 335.953C140.596 335.952 140.877 336.23 140.878 336.55C141.124 348.43 150.725 348.913 151.165 348.911C151.485 348.91 151.766 349.189 151.768 349.509C151.729 349.869 151.45 350.11 151.13 350.111Z" fill="white"/>
<path d="M150.552 334.874C150.512 334.874 150.472 334.874 150.432 334.874C150.312 334.875 139.904 332.995 138.381 321.68C138.34 321.361 138.579 321.04 138.898 320.998C139.218 320.957 139.539 321.196 139.58 321.516C140.98 331.951 150.227 333.635 150.627 333.674C150.947 333.712 151.188 333.991 151.189 334.311C151.191 334.631 150.912 334.913 150.552 334.874Z" fill="white"/>
<path d="M153.879 315.861C153.639 315.862 141.159 315.789 139.831 303.394C139.79 303.074 140.029 302.754 140.349 302.712C140.668 302.671 140.989 302.91 141.031 303.23C142.234 314.505 153.274 314.623 153.874 314.621C154.194 314.619 154.475 314.898 154.477 315.218C154.478 315.538 154.239 315.859 153.879 315.861Z" fill="white"/>
<path d="M165.404 181.216C165.404 181.216 191.498 205.837 154.602 201.778C154.602 201.778 147.089 213.967 134.103 207.296C121.078 200.626 126.911 188.444 136.1 185.488C144.09 182.938 165.404 181.216 165.404 181.216Z" fill="white"/>
<path d="M141.713 209.906C138.953 209.877 136.27 209.167 133.825 207.856C128.375 205.077 125.599 201.008 125.941 196.406C126.323 191.445 130.424 186.709 135.898 184.968C143.848 182.418 164.482 180.699 165.362 180.656C165.522 180.655 165.682 180.694 165.802 180.814C166.284 181.252 177.405 191.89 174.429 198.341C172.604 202.268 166.05 203.653 154.885 202.456C153.85 203.9 149.233 209.877 141.713 209.906ZM165.206 181.816C162.687 182.026 143.613 183.699 136.302 186.087C131.348 187.666 127.525 192.04 127.142 196.482C126.797 200.563 129.371 204.233 134.381 206.774C139.591 209.434 144.471 209.336 148.94 206.518C150.975 205.191 152.769 203.464 154.121 201.459C154.24 201.258 154.48 201.137 154.68 201.177C165.324 202.336 171.8 201.151 173.387 197.785C175.807 192.536 166.651 183.251 165.206 181.816Z" fill="black"/>
<path d="M193.423 206.989C195.057 206.982 196.377 205.652 196.371 204.017C196.365 202.383 195.035 201.063 193.4 201.069C191.765 201.075 190.445 202.405 190.451 204.04C190.458 205.675 191.788 206.995 193.423 206.989Z" fill="#2CB3FF"/>
<path d="M123.489 224.456C125.124 224.45 126.444 223.12 126.438 221.485C126.431 219.85 125.101 218.53 123.466 218.537C121.832 218.543 120.511 219.873 120.518 221.508C120.524 223.143 121.854 224.463 123.489 224.456Z" fill="#2CB3FF"/>
<path d="M93.051 266.893C94.6857 266.887 96.0059 265.556 95.9996 263.922C95.9934 262.287 94.6631 260.967 93.0283 260.973C91.3936 260.979 90.0734 262.31 90.0797 263.944C90.0859 265.579 91.4162 266.899 93.051 266.893Z" fill="#2CB3FF"/>
<path d="M120.801 285.227C122.436 285.221 123.756 283.89 123.75 282.256C123.744 280.621 122.414 279.301 120.779 279.307C119.144 279.313 117.824 280.644 117.83 282.278C117.836 283.913 119.167 285.233 120.801 285.227Z" fill="#2CB3FF"/>
<path d="M61.7429 301.372C63.3776 301.366 64.6978 300.036 64.6915 298.401C64.6853 296.766 63.355 295.446 61.7202 295.453C60.0855 295.459 58.7653 296.789 58.7716 298.424C58.7778 300.059 60.1081 301.379 61.7429 301.372Z" fill="#2CB3FF"/>
<path d="M90.4455 349.064C92.0803 349.058 93.4004 347.727 93.3942 346.093C93.3879 344.458 92.0576 343.138 90.4229 343.144C88.7881 343.15 87.468 344.481 87.4742 346.115C87.4805 347.75 88.8108 349.07 90.4455 349.064Z" fill="#2CB3FF"/>
<path d="M117.997 325.878C119.632 325.872 120.952 324.542 120.945 322.907C120.939 321.272 119.609 319.952 117.974 319.958C116.339 319.965 115.019 321.295 115.025 322.93C115.032 324.564 116.362 325.885 117.997 325.878Z" fill="#2CB3FF"/>
<path d="M123.983 353.536C125.617 353.529 126.938 352.199 126.931 350.564C126.925 348.93 125.595 347.609 123.96 347.616C122.325 347.622 121.005 348.952 121.011 350.587C121.018 352.222 122.348 353.542 123.983 353.536Z" fill="#2CB3FF"/>
<path d="M81.2801 316.259C80.9601 316.26 80.6791 315.981 80.6778 315.661C80.6769 315.421 80.7962 315.22 80.9958 315.14C97.6036 306.676 111.23 303.024 121.594 304.224C129.438 305.154 132.331 308.663 132.452 308.823C132.653 309.062 132.615 309.462 132.375 309.663C132.136 309.864 131.736 309.826 131.535 309.586C131.495 309.546 128.762 306.277 121.319 305.425C114.396 304.652 101.841 305.9 81.56 316.218C81.44 316.218 81.3601 316.258 81.2801 316.259Z" fill="white"/>
<path d="M83.6494 276.85C83.3694 276.851 83.1286 276.651 83.0475 276.372C79.0543 257.227 84.4291 229.726 89.634 210.066C93.0642 197.053 97.2151 184.197 101.967 171.579C102.086 171.258 102.405 171.097 102.725 171.176C103.046 171.255 103.207 171.614 103.128 171.934C103.128 171.974 103.128 171.974 103.089 172.014C102.811 172.695 76.6679 239.876 84.2466 276.127C84.3278 276.447 84.0891 276.768 83.7694 276.849L83.6494 276.85Z" fill="black"/>
<path d="M73.5852 281.087C73.3852 281.088 73.2249 281.009 73.1043 280.849C65.0641 270.36 64.0631 238.724 64.0179 237.364C64.0167 237.044 64.2556 236.763 64.5756 236.762C64.8956 236.76 65.1765 236.999 65.1779 237.359C65.1791 237.679 66.2226 269.955 74.0217 280.166C74.2228 280.445 74.1841 280.805 73.9049 281.006C73.8251 281.046 73.7052 281.087 73.5852 281.087Z" fill="black"/>
<path d="M315.491 234.922L152.212 235.547L152.718 367.986L315.997 367.361L315.491 234.922Z" fill="#6C32AD"/>
<path d="M315.491 234.922L315.997 367.362L152.718 367.986L152.212 235.547L315.491 234.922ZM315.486 233.722L152.207 234.347C151.527 234.35 151.009 234.872 151.012 235.552L151.518 367.991C151.521 368.671 152.043 369.189 152.723 369.186L316.002 368.562C316.682 368.559 317.2 368.037 317.197 367.357L316.691 234.918C316.688 234.238 316.166 233.72 315.486 233.722Z" fill="black"/>
<path d="M305.616 246.84L162.657 247.387L163.064 353.626L306.023 353.079L305.616 246.84Z" fill="#D9CFFF"/>
<path d="M305.616 246.841L306.023 353.08L163.064 353.627L162.657 247.388L305.616 246.841ZM305.612 245.641L162.653 246.188C161.973 246.19 161.455 246.712 161.457 247.392L161.864 353.632C161.866 354.312 162.388 354.83 163.068 354.827L306.027 354.28C306.707 354.278 307.225 353.756 307.223 353.076L306.816 246.836C306.814 246.156 306.252 245.639 305.612 245.641Z" fill="black"/>
<path d="M284.162 285.123L226.043 285.345C225.723 285.346 225.442 285.067 225.44 284.747C225.439 284.427 225.718 284.146 226.038 284.145L284.118 283.923C284.438 283.922 284.719 284.201 284.72 284.521C284.721 284.841 284.482 285.122 284.162 285.123Z" fill="black"/>
<path d="M282.699 300.049L226.1 300.265C225.78 300.266 225.499 299.987 225.497 299.667C225.496 299.347 225.775 299.066 226.095 299.065L282.655 298.849C282.975 298.848 283.256 299.126 283.257 299.446C283.258 299.766 283.019 300.047 282.699 300.049Z" fill="black"/>
<path d="M316.557 367.359L157.598 367.967C149.479 367.998 142.853 361.424 142.822 353.304L331.261 352.583C331.252 360.703 324.717 367.328 316.557 367.359Z" fill="#59298F"/>
<path d="M331.221 352.583C331.252 360.703 324.677 367.328 316.557 367.359L157.598 367.967C149.479 367.998 142.853 361.424 142.822 353.304L331.221 352.583ZM332.416 351.379L141.618 352.108L141.622 353.308C141.656 362.108 148.803 369.201 157.603 369.167L316.562 368.559C325.362 368.526 332.454 361.339 332.421 352.579L332.416 351.379Z" fill="black"/>
<path d="M250.228 312.773L226.148 312.865C225.828 312.866 225.547 312.587 225.546 312.267C225.545 311.947 225.823 311.666 226.143 311.665L250.223 311.573C250.543 311.571 250.824 311.85 250.826 312.17C250.827 312.49 250.588 312.771 250.228 312.773Z" fill="black"/>
<path d="M185.578 278.78L208.577 278.692C214.057 278.671 218.554 283.094 218.575 288.614L218.652 308.694C218.673 314.174 214.25 318.671 208.73 318.692L185.731 318.78C180.251 318.801 175.754 314.378 175.733 308.858L175.656 288.778C175.635 283.298 180.058 278.801 185.578 278.78Z" fill="#00A3FF"/>
<path d="M208.732 319.291L185.733 319.379C179.893 319.401 175.155 314.699 175.132 308.86L175.056 288.78C175.033 282.94 179.735 278.202 185.575 278.179L208.575 278.091C214.415 278.069 219.153 282.771 219.175 288.611L219.252 308.691C219.274 314.531 214.572 319.269 208.732 319.291ZM185.54 279.379C180.38 279.399 176.196 283.615 176.216 288.775L176.292 308.855C176.312 314.015 180.528 318.199 185.688 318.179L208.688 318.091C213.848 318.072 218.032 313.855 218.012 308.696L217.935 288.616C217.915 283.456 213.699 279.272 208.539 279.292L185.54 279.379Z" fill="black"/>
<path d="M197.34 310.735L197.26 310.735C196.779 310.697 196.339 310.459 196.097 310.02L185.142 290.342C184.739 289.663 184.936 288.822 185.614 288.42C186.293 288.017 187.133 288.214 187.536 288.892C187.536 288.932 187.576 288.932 187.576 288.972L197.484 306.695L205.402 295.744C205.84 295.103 206.719 294.979 207.361 295.417C208.003 295.854 208.126 296.734 207.689 297.375L198.497 310.091C198.219 310.532 197.82 310.733 197.34 310.735Z" fill="white"/>
<path d="M142.18 237.625C141.86 237.626 141.579 237.387 141.578 237.027C141.438 231.788 142.903 227.942 145.974 225.571C151.916 220.948 161.567 223.671 162.007 223.789C162.328 223.868 162.529 224.227 162.41 224.548C162.331 224.868 161.972 225.069 161.652 224.951C161.572 224.911 152.162 222.307 146.698 226.528C143.946 228.658 142.639 232.183 142.778 237.023C142.779 237.343 142.5 237.624 142.18 237.625Z" fill="black"/>
<path d="M163.954 241.342C163.634 241.343 163.353 241.064 163.352 240.744C163.351 240.424 163.63 240.143 163.95 240.142L217.188 239.538C217.508 239.537 217.789 239.816 217.79 240.136C217.791 240.456 217.512 240.737 217.192 240.738L163.954 241.342Z" fill="white"/>
<path d="M318.691 360.631L258.332 360.862C258.012 360.863 257.731 360.584 257.729 360.264C257.728 359.944 258.007 359.663 258.327 359.662L318.687 359.431C319.007 359.43 319.288 359.709 319.289 360.029C319.29 360.349 319.011 360.63 318.691 360.631Z" fill="white"/>
<path d="M171.3 289.915C170.98 289.916 170.699 289.637 170.697 289.317C170.829 281.796 172.809 276.589 176.678 273.854C181.705 270.275 187.912 272.251 188.193 272.37C188.513 272.449 188.714 272.768 188.636 273.088C188.557 273.409 188.238 273.61 187.917 273.531C187.877 273.531 187.877 273.531 187.837 273.491C187.797 273.491 181.91 271.594 177.402 274.851C173.892 277.345 172.03 282.232 171.938 289.352C171.899 289.672 171.62 289.914 171.3 289.915Z" fill="black"/>
<path d="M214.149 323.711L199.069 323.769C198.749 323.77 198.468 323.491 198.467 323.171C198.466 322.851 198.745 322.57 199.065 322.569L214.145 322.511C214.465 322.51 214.746 322.789 214.747 323.109C214.748 323.429 214.469 323.71 214.149 323.711Z" fill="black"/>
<path d="M283.537 267.965C283.537 267.965 242.017 247.284 247.085 275.264L226.855 288.462C226.855 288.462 225.948 302.225 244.969 297.233C244.969 297.233 249.319 305.136 257.523 306.345C257.523 306.345 258.393 314.021 273.746 312.243C289.099 310.464 302.269 291.933 302.269 291.933L283.537 267.965Z" fill="#FFCDB2"/>
<path d="M269.51 313.139C265.15 313.156 261.786 312.249 259.499 310.457C258.296 309.582 257.451 308.305 257.006 306.907C249.841 305.654 245.698 299.59 244.651 297.954C237.898 299.66 232.856 299.199 229.686 296.571C225.954 293.506 226.216 288.665 226.255 288.464C226.254 288.264 226.373 288.104 226.533 287.983L246.403 274.987C245.38 268.911 246.484 264.627 249.675 262.215C259.008 255.219 282.773 266.888 283.775 267.404C283.855 267.444 283.935 267.484 283.975 267.564L302.707 291.572C302.868 291.771 302.869 292.091 302.71 292.292C302.153 293.054 289.182 311.064 273.788 312.843C272.349 313.048 270.95 313.134 269.51 313.139ZM244.966 296.673C245.166 296.672 245.407 296.791 245.488 296.991C245.528 297.071 249.797 304.654 257.601 305.785C257.881 305.824 258.082 306.023 258.123 306.303C258.164 306.582 259.19 313.339 273.664 311.683C287.378 310.111 299.559 294.584 301.509 291.977L283.139 268.447C281.295 267.534 258.854 256.86 250.438 263.212C247.567 265.383 246.622 269.386 247.684 275.182C247.725 275.422 247.606 275.663 247.406 275.783L227.456 288.82C227.46 289.86 227.714 293.379 230.482 295.648C233.412 298.077 238.253 298.419 244.806 296.674C244.886 296.673 244.926 296.673 244.966 296.673Z" fill="black"/>
<path d="M163.517 189.824C188.908 177.126 298.069 156.229 331.417 184.301C364.764 212.374 336.016 267.764 330.13 276.547C324.243 285.33 311.593 282.738 311.593 282.738L302.23 292.374L274.923 264.438L279.783 259.299C279.783 259.299 255.324 254.313 286.62 216.553" fill="#00A3FF"/>
<path d="M302.232 292.934C302.072 292.934 301.912 292.855 301.792 292.735L274.485 264.799C274.244 264.56 274.242 264.2 274.481 263.959L278.664 259.543C276.742 258.911 272.575 256.967 270.836 252.053C267.965 243.944 273.118 231.844 286.178 216.114C286.417 215.873 286.777 215.872 287.018 216.071C287.259 216.27 287.26 216.63 287.101 216.871C271.254 236.012 270.134 246.336 271.994 251.649C274.016 257.361 279.861 258.619 279.941 258.619C280.261 258.697 280.462 258.977 280.424 259.337C280.384 259.457 280.344 259.537 280.265 259.617L275.803 264.314L302.267 291.413L311.191 282.219C311.351 282.059 311.551 282.018 311.751 282.057C311.871 282.097 324.12 284.45 329.688 276.148C332.433 272.018 341.172 256.104 344.941 237.49C349.691 214.191 345.024 196.449 331.059 184.702C311.917 168.576 268.642 170.021 244.571 172.313C209.943 175.606 176.295 184.054 163.799 190.302C163.519 190.463 163.159 190.345 162.998 190.025C162.837 189.746 162.955 189.385 163.275 189.224C175.851 182.936 209.658 174.447 244.446 171.114C268.717 168.781 312.352 167.374 331.855 183.779C339.64 190.31 344.633 198.851 346.752 209.163C348.465 217.596 348.261 227.197 346.141 237.725C342.293 256.54 333.475 272.654 330.691 276.825C325.202 285.006 313.917 283.649 311.836 283.297L302.671 292.692C302.512 292.892 302.392 292.933 302.232 292.934Z" fill="black"/>
<path d="M310.951 282.1L310.831 282.101L301.906 291.375L275.803 264.354L280.424 259.417C279.503 259.18 278.581 258.824 277.74 258.387C291.47 261.055 305.165 275.442 310.951 282.1Z" fill="#0094E7"/>
<path d="M247.087 275.904C246.767 275.906 246.486 275.627 246.484 275.307C246.483 275.067 246.603 274.866 246.802 274.786L253.948 270.998C254.227 270.837 254.588 270.956 254.749 271.235C254.91 271.514 254.791 271.875 254.512 272.036L247.366 275.823C247.287 275.864 247.207 275.904 247.087 275.904Z" fill="black"/>
<path d="M245.01 297.672C244.69 297.673 244.409 297.434 244.368 297.114C244.367 296.794 244.606 296.514 244.925 296.472C252.042 295.565 258.63 292.34 263.69 287.24C263.929 287 264.289 286.958 264.53 287.197C264.771 287.436 264.812 287.796 264.573 288.037C264.294 288.358 257.205 296.225 245.05 297.672L245.01 297.672Z" fill="black"/>
<path d="M257.205 306.866L257.005 306.866C256.685 306.868 256.404 306.589 256.403 306.269C256.402 305.949 256.68 305.668 257 305.666L257.16 305.666C266.12 305.632 274.129 297.441 274.209 297.361C274.448 297.12 274.808 297.078 275.049 297.317C275.29 297.556 275.331 297.916 275.092 298.157C275.092 298.157 275.092 298.157 275.052 298.197C274.733 298.559 266.645 306.83 257.205 306.866Z" fill="black"/>
<path d="M229.471 188.211C231.106 188.205 232.426 186.875 232.42 185.24C232.414 183.605 231.083 182.285 229.449 182.291C227.814 182.298 226.494 183.628 226.5 185.263C226.506 186.897 227.837 188.218 229.471 188.211Z" fill="#2CB3FF"/>
<path d="M250.359 211.051C251.993 211.045 253.314 209.715 253.307 208.08C253.301 206.445 251.971 205.125 250.336 205.131C248.701 205.138 247.381 206.468 247.387 208.103C247.394 209.737 248.724 211.057 250.359 211.051Z" fill="#2CB3FF"/>
<path d="M300.42 195.419C302.054 195.413 303.375 194.083 303.368 192.448C303.362 190.813 302.032 189.493 300.397 189.499C298.762 189.506 297.442 190.836 297.448 192.471C297.455 194.105 298.785 195.426 300.42 195.419Z" fill="#2CB3FF"/>
<path d="M332.338 226.257C333.972 226.251 335.293 224.921 335.286 223.286C335.28 221.651 333.95 220.331 332.315 220.337C330.68 220.344 329.36 221.674 329.366 223.309C329.373 224.943 330.703 226.264 332.338 226.257Z" fill="#2CB3FF"/>
<path d="M319.411 256.067C321.046 256.061 322.366 254.73 322.36 253.096C322.354 251.461 321.023 250.141 319.389 250.147C317.754 250.153 316.434 251.483 316.44 253.118C316.446 254.753 317.777 256.073 319.411 256.067Z" fill="#2CB3FF"/>
<path d="M336.744 248.801C336.664 248.801 336.624 248.801 336.544 248.761C336.223 248.683 336.062 248.323 336.141 248.043C342.742 227.418 340.288 213.427 337.098 205.359C333.624 196.612 328.489 192.672 328.449 192.632C328.168 192.433 328.127 192.073 328.326 191.792C328.525 191.552 328.884 191.47 329.165 191.669C329.366 191.828 334.541 195.809 338.175 204.795C341.487 213.062 344.022 227.333 337.302 248.359C337.223 248.639 336.984 248.8 336.744 248.801Z" fill="white"/>
<path d="M267.42 310.706L266.82 310.709C266.5 310.71 266.219 310.431 266.218 310.111C266.217 309.791 266.496 309.51 266.816 309.509L267.416 309.506C286.175 309.435 291.329 297.335 291.369 297.215C291.487 296.894 291.847 296.773 292.167 296.892C292.488 297.01 292.609 297.37 292.49 297.69C292.411 297.771 286.98 310.631 267.42 310.706Z" fill="white"/>
<path d="M256.917 304.707C255.917 304.711 254.917 304.514 253.955 304.118C253.674 303.959 253.553 303.6 253.672 303.319C253.831 303.039 254.15 302.917 254.431 303.036C260.682 305.852 271.763 295.61 271.882 295.529C272.162 295.328 272.522 295.407 272.723 295.686C272.884 295.926 272.845 296.206 272.686 296.406C272.327 296.768 263.757 304.681 256.917 304.707Z" fill="white"/>
<path d="M238.122 295.699C236.722 295.704 235.322 295.51 233.96 295.115C233.64 295.036 233.438 294.677 233.557 294.356C233.676 294.036 233.995 293.835 234.316 293.953L234.356 293.953C243.607 296.918 259.367 286.458 259.527 286.337C259.806 286.136 260.166 286.174 260.367 286.454C260.568 286.733 260.53 287.093 260.25 287.294C260.21 287.294 260.211 287.334 260.171 287.334C259.612 287.777 247.682 295.662 238.122 295.699Z" fill="white"/>
<path d="M360.244 212.271C360.204 212.271 360.164 212.271 360.124 212.271C359.804 212.232 359.603 211.913 359.642 211.593C362.622 196.061 359.336 183.954 349.824 175.59C345.409 171.767 340.199 169.027 334.553 167.608C334.233 167.53 334.032 167.21 334.07 166.89C334.149 166.57 334.468 166.369 334.789 166.408C340.634 167.865 346.045 170.685 350.58 174.627C357.363 180.601 364.646 191.854 360.802 211.788C360.803 212.068 360.524 212.27 360.244 212.271Z" fill="black"/>
<path d="M185.541 143.899C185.541 143.899 200.576 153.001 204.809 140.785C209.043 128.569 217.822 102.215 237.041 107.061C256.259 111.908 258.153 115.581 265.989 104.031C273.825 92.4806 323.127 98.0521 310.869 135.219C290.822 196.136 179.843 181.001 179.843 181.001L178.387 166.406L185.541 143.899Z" fill="#6C32AD"/>
<path d="M281.249 98.6125C297.688 98.5496 319.489 109.066 310.869 135.179C297.623 175.47 244.569 182.473 210.169 182.605C192.569 182.672 179.843 180.921 179.843 180.921L178.387 166.326L185.501 143.859C185.501 143.859 190.914 147.158 196.154 147.138C199.674 147.125 203.068 145.632 204.769 140.745C208.646 129.53 216.318 106.501 232.398 106.439C233.958 106.433 235.479 106.628 237 107.022C246.85 109.504 252.138 111.684 256.018 111.669C259.698 111.655 262.131 109.646 265.909 104.031C268.336 100.582 274.329 98.6389 281.249 98.6125ZM281.244 97.4125C273.564 97.4418 267.453 99.6652 264.986 103.315C261.287 108.769 259.214 110.417 256.054 110.429C253.774 110.438 250.69 109.569 246.486 108.345C243.883 107.595 240.96 106.767 237.316 105.861C235.714 105.467 234.074 105.233 232.434 105.239C225.154 105.267 218.691 109.732 213.204 118.473C208.711 125.61 205.784 134.221 203.806 139.909L203.648 140.39C202.342 144.115 199.909 145.964 196.149 145.978C191.309 145.997 186.177 142.936 186.097 142.897C185.897 142.777 185.697 142.738 185.457 142.739C185.297 142.74 185.177 142.78 185.057 142.821C184.697 142.942 184.459 143.223 184.34 143.583L177.226 166.051C177.186 166.211 177.147 166.371 177.188 166.531L178.603 181.126C178.646 181.686 179.087 182.124 179.648 182.202C189.772 183.403 199.934 183.964 210.134 183.885C225.814 183.825 248.728 182.257 268.821 175.141C291.471 167.134 305.98 153.798 311.99 135.615C313.73 130.368 314.351 125.406 313.814 120.968C313.359 116.97 311.905 113.175 309.532 109.944C306.597 105.876 302.144 102.573 296.696 100.393C291.808 98.4121 286.564 97.4321 281.244 97.4125Z" fill="black"/>
<path d="M287.581 164.669C232.403 149.48 186.087 171.697 186.087 171.697C185.18 174.901 185.033 178.261 185.605 181.539C202.891 183.153 255.302 185.832 287.581 164.669Z" fill="#59298F"/>
<path d="M156.352 125.811C165.1 125.777 172.164 118.658 172.131 109.91C172.098 101.162 164.979 94.0974 156.231 94.1308C147.482 94.1643 140.418 101.283 140.451 110.031C140.485 118.779 147.604 125.844 156.352 125.811Z" fill="#6C32AD"/>
<path d="M156.27 94.1308C164.99 94.0974 172.097 101.15 172.131 109.91C172.164 118.67 165.111 125.737 156.352 125.771C147.632 125.804 140.525 118.751 140.491 109.991C140.48 106.991 141.348 104.028 142.939 101.502C145.801 96.9308 150.871 94.1514 156.27 94.1308ZM156.266 92.9308C146.866 92.9667 139.255 100.596 139.251 109.996C139.287 119.396 146.916 127.007 156.316 127.011C165.716 126.975 173.327 119.346 173.331 109.946C173.309 104.106 170.328 98.717 165.396 95.5759C162.67 93.8663 159.466 92.9185 156.266 92.9308Z" fill="black"/>
<path d="M195.495 163.221C195.495 163.221 207.383 154.775 203.664 144.509C199.944 134.244 197.307 134.814 195.725 129.26C194.144 123.706 185.08 117.38 176.086 119.095C176.086 119.095 166.011 109.893 155.937 111.452C145.863 113.01 141.96 117.385 138.428 124.759C134.896 132.132 131.748 135.304 129.087 140.395C126.427 145.485 121.723 160.183 141.533 173.267C161.343 186.352 195.495 163.221 195.495 163.221Z" fill="#6C32AD"/>
<path d="M158.256 111.243C167.496 111.207 176.086 119.055 176.086 119.055C177.046 118.891 178.045 118.767 179.045 118.763C187.005 118.733 194.346 124.265 195.765 129.219C197.346 134.773 200.024 134.163 203.704 144.469C207.383 154.775 195.535 163.18 195.535 163.18C195.535 163.18 174.868 177.18 156.349 177.25C151.069 177.271 145.944 176.13 141.533 173.227C121.763 160.143 126.427 145.485 129.087 140.354C131.748 135.224 134.896 132.092 138.428 124.719C141.959 117.345 145.863 112.97 155.937 111.412C156.696 111.329 157.496 111.286 158.256 111.243ZM158.252 110.083C157.412 110.086 156.572 110.169 155.772 110.292C145.179 111.933 140.997 116.669 137.346 124.283C135.719 127.649 133.851 130.856 131.703 133.904C130.35 135.83 129.118 137.834 128.006 139.919C125.742 144.287 124.921 149.25 125.66 154.128C126.889 161.723 131.995 168.504 140.817 174.35C145.068 177.174 150.274 178.594 156.274 178.571C166.034 178.533 176.379 174.654 183.287 171.427C187.719 169.37 192.03 166.994 196.099 164.298L196.139 164.298C198.333 162.65 200.246 160.722 201.877 158.516C205.419 153.743 206.4 148.779 204.742 144.185C202.64 138.313 200.831 135.88 199.383 133.886C198.257 132.37 197.453 131.253 196.804 129.015C195.264 123.621 187.521 117.651 178.921 117.684C178.041 117.687 177.201 117.77 176.322 117.894C174.515 116.181 166.732 110.05 158.252 110.083Z" fill="black"/>
<path d="M157.72 148.805L157.68 148.805C150.637 148.192 144.449 140.736 144.207 140.417C144.007 140.178 144.045 139.777 144.284 139.576C144.523 139.376 144.924 139.414 145.125 139.653C145.165 139.733 151.233 147.03 157.755 147.605C158.075 147.604 158.356 147.883 158.317 148.243C158.279 148.603 158.04 148.844 157.72 148.805Z" fill="black"/>
<path d="M157.542 144.246C155.942 144.252 154.341 144.018 152.82 143.584C152.499 143.465 152.338 143.146 152.417 142.826C152.496 142.545 152.815 142.344 153.095 142.423C166.469 146.012 171.978 132.631 172.216 132.07C172.334 131.749 172.694 131.628 173.014 131.747C173.335 131.866 173.456 132.225 173.337 132.546C173.298 132.666 168.582 144.204 157.542 144.246Z" fill="white"/>
<path d="M140.633 94.9908C140.553 94.9911 140.513 94.9912 140.433 94.9516C140.113 94.8328 139.952 94.5134 140.07 94.1929C141.336 90.5481 143.487 87.9798 146.441 86.6085C151.592 84.1488 157.32 86.1669 157.56 86.246C157.881 86.3648 158.002 86.7243 157.883 87.0448C157.764 87.3252 157.445 87.4464 157.164 87.3675C157.124 87.3677 151.637 85.4286 146.926 87.6867C144.29 88.9368 142.379 91.2641 141.192 94.5886C141.153 94.8288 140.913 94.9897 140.633 94.9908Z" fill="black"/>
<path d="M145.835 105.611C145.515 105.612 145.234 105.333 145.232 105.013C145.232 104.933 145.272 104.813 145.311 104.733C147.257 101.125 149.769 98.9159 152.846 98.1441C157.841 96.925 162.373 99.9877 162.574 100.147C162.855 100.346 162.896 100.706 162.697 100.986C162.498 101.227 162.138 101.309 161.898 101.15C161.857 101.11 157.606 98.2459 153.131 99.343C150.413 99.9934 148.141 102.002 146.354 105.329C146.234 105.489 146.035 105.61 145.835 105.611Z" fill="white"/>
<path d="M163.978 184.942L164.002 191.222C164.002 191.222 153.184 207.623 132.173 194.263C132.173 194.263 142.397 179.464 147.849 161.883C147.849 161.883 140.081 159.793 141.655 152.867C143.228 145.941 148.905 144.999 152.153 147.027C152.153 147.027 164.75 156.698 179.288 130.163C179.288 130.163 192.873 136.511 195.088 150.942C197.303 165.374 193.686 181.828 182.462 186.111C171.239 190.394 163.978 184.942 163.978 184.942Z" fill="#FFCDB2"/>
<path d="M179.289 130.163C179.289 130.163 192.873 136.511 195.088 150.942C197.303 165.374 193.686 181.828 182.463 186.111C179.787 187.161 176.949 187.692 174.069 187.743C167.749 187.767 163.978 184.942 163.978 184.942L164.002 191.222C164.002 191.222 158.553 199.442 147.874 199.483C143.514 199.5 138.268 198.12 132.133 194.263C132.133 194.263 142.357 179.464 147.81 161.883C147.81 161.883 140.042 159.793 141.615 152.867C142.717 148.023 145.829 146.091 148.709 146.08C149.909 146.075 151.11 146.391 152.113 147.027C153.877 148.18 155.96 148.812 158.08 148.764C163.12 148.745 170.867 145.475 179.289 130.163ZM179.244 128.963C178.804 128.965 178.405 129.206 178.206 129.567C170.103 144.398 162.795 147.506 158.075 147.524C156.235 147.571 154.393 147.058 152.829 146.064L152.749 146.024C151.546 145.269 150.145 144.874 148.705 144.88C145.545 144.892 141.712 146.907 140.454 152.591C139.707 155.914 140.718 158.79 143.406 160.94C144.289 161.657 145.291 162.213 146.333 162.649C140.916 179.35 131.29 193.467 131.171 193.587C130.813 194.149 130.936 194.868 131.497 195.266C131.497 195.266 131.537 195.266 131.537 195.306C137.231 198.924 142.758 200.743 147.918 200.723C159.078 200.68 164.806 192.259 165.045 191.898C165.164 191.697 165.243 191.457 165.242 191.217L165.226 187.017C167.991 188.326 171.033 188.955 174.113 188.943C177.113 188.891 180.111 188.32 182.907 187.229C188.459 185.128 192.64 180.112 194.971 172.703C196.987 166.255 197.477 158.493 196.288 150.778C195.344 144.581 192.202 138.873 187.184 134.253C184.976 132.181 182.49 130.43 179.804 129.081C179.604 129.001 179.444 128.962 179.244 128.963Z" fill="black"/>
<path d="M164.183 186.181C164.103 186.181 164.063 186.181 163.982 186.142C157.574 184.046 152.909 177.304 152.708 177.025C152.506 176.746 152.585 176.385 152.864 176.184C153.144 175.983 153.504 176.062 153.705 176.341C153.745 176.421 158.33 183.003 164.378 184.98C164.698 185.099 164.86 185.418 164.741 185.739C164.702 186.019 164.463 186.18 164.183 186.181Z" fill="black"/>
<path d="M147.997 158.643C147.757 158.644 147.557 158.525 147.476 158.325C146.026 155.651 145.778 153.452 146.691 151.848C148.003 149.523 151.242 149.391 151.402 149.35C151.722 149.349 152.003 149.588 152.044 149.908L152.044 149.948C152.045 150.268 151.807 150.548 151.487 150.59C151.447 150.59 148.767 150.72 147.774 152.484C147.059 153.727 147.345 155.486 148.594 157.801C148.755 158.08 148.637 158.481 148.357 158.602C148.197 158.642 148.118 158.683 147.997 158.643Z" fill="black"/>
<path d="M178.77 151.525C170.652 152.156 160.434 147.315 158.244 149.883C156.053 152.452 156.949 156.448 161.074 157.913C165.2 159.377 169.482 159.84 178.284 160.287C187.085 160.733 195.725 160.54 195.346 155.741C194.968 150.943 190.686 150.559 178.77 151.525Z" fill="#FFB49F"/>
<path d="M188.595 147.608C188.435 147.608 188.235 147.529 188.155 147.409C188.115 147.369 185.784 144.698 182.865 144.949C182.545 144.991 182.264 144.712 182.223 144.392C182.182 144.072 182.461 143.791 182.781 143.75C186.3 143.496 188.951 146.486 189.072 146.646C189.273 146.885 189.274 147.285 188.995 147.486C188.875 147.566 188.715 147.607 188.595 147.608Z" fill="black"/>
<path d="M179.626 166.122C179.346 166.123 179.105 165.924 179.024 165.644L176.295 152.734C176.213 152.415 176.452 152.094 176.772 152.013C177.092 151.931 177.413 152.17 177.494 152.49L180.223 165.4C180.304 165.719 180.066 166.04 179.746 166.121C179.706 166.122 179.666 166.122 179.626 166.122Z" fill="black"/>
<path d="M144.658 164.095C146.094 164.09 147.253 162.921 147.248 161.485C147.242 160.049 146.074 158.89 144.638 158.895C143.202 158.901 142.043 160.069 142.048 161.505C142.054 162.941 143.222 164.101 144.658 164.095Z" fill="#00A3FF"/>
<path d="M144.638 158.895C146.078 158.89 147.242 160.045 147.248 161.485C147.253 162.925 146.098 164.09 144.658 164.095C143.218 164.101 142.054 162.945 142.048 161.505C142.046 161.025 142.164 160.545 142.443 160.104C142.92 159.382 143.718 158.899 144.638 158.895ZM144.633 157.695C142.553 157.703 140.84 159.39 140.848 161.51C140.856 163.63 142.543 165.303 144.663 165.295C146.743 165.287 148.456 163.601 148.448 161.481C148.443 160.201 147.798 159.003 146.676 158.288C146.034 157.93 145.353 157.693 144.633 157.695Z" fill="black"/>
<path d="M165.386 155.737C166.204 155.733 166.864 155.068 166.861 154.251C166.858 153.434 166.192 152.773 165.375 152.777C164.558 152.78 163.898 153.445 163.901 154.262C163.904 155.08 164.569 155.74 165.386 155.737Z" fill="black"/>
<path d="M186.832 157.134C187.649 157.131 188.309 156.466 188.306 155.648C188.303 154.831 187.638 154.171 186.82 154.174C186.003 154.177 185.343 154.842 185.346 155.66C185.349 156.477 186.014 157.137 186.832 157.134Z" fill="black"/>
<path d="M170.428 177.117C169.188 177.121 167.947 176.886 166.786 176.411C161.297 174.192 159.031 167.48 158.95 167.16C158.869 166.841 159.068 166.52 159.387 166.439C159.667 166.358 159.988 166.516 160.109 166.796C160.149 166.876 162.294 173.268 167.261 175.289C169.865 176.359 172.824 176.027 176.058 174.335C176.337 174.174 176.697 174.253 176.898 174.532C177.06 174.811 176.981 175.172 176.702 175.373C176.702 175.373 176.662 175.373 176.662 175.413C174.706 176.46 172.588 177.068 170.428 177.117Z" fill="black"/>
<path d="M173.422 144.105C173.262 144.106 173.101 144.027 172.981 143.907C172.579 143.509 171.295 142.394 170.416 142.717C170.097 142.838 169.776 142.679 169.655 142.36C169.534 142.04 169.693 141.72 170.012 141.598C171.77 140.992 173.617 142.865 173.818 143.104C174.059 143.343 174.06 143.703 173.821 143.944C173.701 144.024 173.582 144.105 173.422 144.105Z" fill="black"/>
<path d="M286.378 132.314C286.058 132.315 285.777 132.036 285.775 131.716C285.775 131.476 285.934 131.235 286.133 131.155C327.19 114.437 343.008 87.8567 349.094 68.5133C355.654 47.528 352.508 30.3 352.467 30.1401C352.386 29.8204 352.625 29.4995 352.945 29.4583C353.265 29.3771 353.585 29.6158 353.667 29.9355C353.707 30.0954 356.934 47.6032 350.296 68.8687C346.383 81.3638 339.787 92.8291 330.984 102.503C319.871 114.785 304.949 124.803 286.618 132.273C286.538 132.273 286.458 132.313 286.378 132.314Z" fill="black"/>
<path d="M283.811 120.163C283.491 120.164 283.21 119.886 283.209 119.566C283.208 119.326 283.367 119.085 283.607 119.004C300.542 112.419 310.209 98.6621 312.25 78.0541C313.791 62.6081 310.259 48.9415 310.218 48.7817C310.097 48.4621 310.296 48.1414 310.615 48.0202C310.935 47.8989 311.256 48.0977 311.377 48.4172C311.377 48.4572 311.377 48.4572 311.377 48.4972C311.418 48.6171 314.991 62.4835 313.451 78.1295C312.526 87.3331 310.037 95.3827 306.022 101.998C301.014 110.297 293.597 116.406 284.011 120.122C283.971 120.163 283.891 120.163 283.811 120.163Z" fill="black"/>
<path d="M135.69 193.25C135.37 193.251 135.089 192.972 135.087 192.652C135.087 192.492 135.126 192.372 135.246 192.252C140.941 185.67 146.727 171.568 146.806 171.407C146.925 171.087 147.284 170.966 147.605 171.084C147.925 171.203 148.047 171.563 147.928 171.883C147.69 172.484 142.023 186.306 136.169 193.048C136.049 193.169 135.89 193.249 135.69 193.25Z" fill="white"/>
</svg>
